<svg width="36" height="24" viewBox="0 0 36 24" fill="none" xmlns="http://www.w3.org/2000/svg">
<g clip-path="url(#clip0_4483_4735)">
<path d="M0.857422 16H35.1431V24H0.857422V16Z" fill="#1EB53A"/>
<path d="M0.857422 0H35.1431V8H0.857422V0Z" fill="#0099B5"/>
<path d="M0.857422 7.67993H35.1431V16.3199H0.857422V7.67993Z" fill="#CE1126"/>
<path d="M0.857422 8.16016H35.1431V15.8402H0.857422V8.16016Z" fill="white"/>
<path d="M8.05935 6.72008C9.76354 6.72008 11.1451 5.43066 11.1451 3.84008C11.1451 2.2495 9.76354 0.960083 8.05935 0.960083C6.35515 0.960083 4.97363 2.2495 4.97363 3.84008C4.97363 5.43066 6.35515 6.72008 8.05935 6.72008Z" fill="white"/>
<path d="M9.08572 6.72008C10.7899 6.72008 12.1714 5.43066 12.1714 3.84008C12.1714 2.2495 10.7899 0.960083 9.08572 0.960083C7.38152 0.960083 6 2.2495 6 3.84008C6 5.43066 7.38152 6.72008 9.08572 6.72008Z" fill="#0099B5"/>
<path d="M14.8585 6.06427L14.7169 5.65808L14.5753 6.06427H14.1191L14.4862 6.31385L14.3446 6.72004L14.7169 6.47045L15.0892 6.72004L14.9476 6.31385L15.3146 6.06427H14.8585Z" fill="white"/>
<path d="M14.7169 3.30896L14.5753 3.71515H14.1191L14.4862 3.96473L14.3446 4.37091L14.7169 4.12133L15.0892 4.37091L14.9476 3.96473L15.3146 3.71515H14.8585L14.7169 3.30896Z" fill="white"/>
<path d="M14.7169 0.959961L14.5753 1.36615H14.1191L14.4862 1.61573L14.3446 2.02192L14.7169 1.77233L15.0892 2.02192L14.9476 1.61573L15.3146 1.36615H14.8585L14.7169 0.959961Z" fill="white"/>
<path d="M17.3741 6.06427L17.2325 5.65808L17.0909 6.06427H16.6348L17.0018 6.31385L16.8602 6.72004L17.2325 6.47045L17.6048 6.72004L17.4632 6.31385L17.8303 6.06427H17.3741Z" fill="white"/>
<path d="M17.2325 3.30896L17.0909 3.71515H16.6348L17.0018 3.96473L16.8602 4.37091L17.2325 4.12133L17.6048 4.37091L17.4632 3.96473L17.8303 3.71515H17.3741L17.2325 3.30896Z" fill="white"/>
<path d="M17.2325 0.959961L17.0909 1.36615H16.6348L17.0018 1.61573L16.8602 2.02192L17.2325 1.77233L17.6048 2.02192L17.4632 1.61573L17.8303 1.36615H17.3741L17.2325 0.959961Z" fill="white"/>
<path d="M19.8926 6.06427L19.7511 5.65808L19.6095 6.06427H19.1533L19.5204 6.31385L19.3788 6.72004L19.7511 6.47045L20.1233 6.72004L19.9818 6.31385L20.3488 6.06427H19.8926Z" fill="white"/>
<path d="M19.7511 3.30896L19.6095 3.71515H19.1533L19.5204 3.96473L19.3788 4.37091L19.7511 4.12133L20.1233 4.37091L19.9818 3.96473L20.3488 3.71515H19.8926L19.7511 3.30896Z" fill="white"/>
<path d="M19.5204 1.61573L19.3788 2.02192L19.7511 1.77233L20.1233 2.02192L19.9818 1.61573L20.3488 1.36615H19.8926L19.7511 0.959961L19.6095 1.36615H19.1533L19.5204 1.61573Z" fill="white"/>
<path d="M9.82525 6.06427L9.68368 5.65808L9.54211 6.06427H9.08594L9.45297 6.31385L9.3114 6.72004L9.68368 6.47045L10.056 6.72004L9.91439 6.31385L10.2814 6.06427H9.82525Z" fill="white"/>
<path d="M12.3428 6.06427L12.2013 5.65808L12.0597 6.06427H11.6035L11.9706 6.31385L11.829 6.72004L12.2013 6.47045L12.5735 6.72004L12.432 6.31385L12.799 6.06427H12.3428Z" fill="white"/>
<path d="M12.2013 3.30896L12.0597 3.71515H11.6035L11.9706 3.96473L11.829 4.37091L12.2013 4.12133L12.5735 4.37091L12.432 3.96473L12.799 3.71515H12.3428L12.2013 3.30896Z" fill="white"/>
</g>
<defs>
<clipPath id="clip0_4483_4735">
<rect x="0.857422" width="34.2857" height="24" rx="4.28571" fill="white"/>
</clipPath>
</defs>
</svg>
