<svg width="32" height="32" viewBox="0 0 30 31" fill="none" xmlns="http://www.w3.org/2000/svg">
<path d="M17.6916 24.9908C20.4614 21.0351 24.375 14.7501 24.375 10.8126C24.375 8.32616 23.3873 5.94159 21.6291 4.18343C19.871 2.42528 17.4864 1.43756 15 1.43756C12.5136 1.43756 10.129 2.42528 8.37087 4.18343C6.61272 5.94159 5.625 8.32616 5.625 10.8126C5.625 14.7501 9.53859 21.0351 12.3084 24.9908C12.6111 25.424 13.0138 25.7777 13.4824 26.0219C13.951 26.2661 14.4716 26.3936 15 26.3936C15.5284 26.3936 16.049 26.2661 16.5176 26.0219C16.9862 25.7777 17.3889 25.424 17.6916 24.9908ZM11.7188 15.0313V11.2813H10.6697C10.5734 11.2813 10.4794 11.2516 10.4006 11.1962C10.3218 11.1409 10.2619 11.0627 10.2291 10.9721C10.1964 10.8816 10.1923 10.7831 10.2174 10.6902C10.2426 10.5972 10.2957 10.5142 10.3697 10.4526L14.7 6.84319C14.7842 6.77303 14.8904 6.73461 15 6.73461C15.1096 6.73461 15.2158 6.77303 15.3 6.84319L19.6303 10.4526C19.7043 10.5142 19.7574 10.5972 19.7826 10.6902C19.8077 10.7831 19.8036 10.8816 19.7709 10.9721C19.7381 11.0627 19.6782 11.1409 19.5994 11.1962C19.5206 11.2516 19.4266 11.2813 19.3303 11.2813H18.2812V15.0313C18.2812 15.1556 18.2319 15.2749 18.144 15.3628C18.056 15.4507 17.9368 15.5001 17.8125 15.5001H16.4062C16.2819 15.5001 16.1627 15.4507 16.0748 15.3628C15.9869 15.2749 15.9375 15.1556 15.9375 15.0313V13.1563C15.9375 13.032 15.8881 12.9128 15.8002 12.8249C15.7123 12.7369 15.5931 12.6876 15.4688 12.6876H14.5312C14.4069 12.6876 14.2877 12.7369 14.1998 12.8249C14.1119 12.9128 14.0625 13.032 14.0625 13.1563V15.0313C14.0625 15.1556 14.0131 15.2749 13.9252 15.3628C13.8373 15.4507 13.7181 15.5001 13.5938 15.5001H12.1875C12.0632 15.5001 11.944 15.4507 11.856 15.3628C11.7681 15.2749 11.7188 15.1556 11.7188 15.0313ZM24.8438 26.2813C24.8438 29.3258 17.3091 29.5626 15 29.5626C12.6909 29.5626 5.15625 29.3282 5.15625 26.2813C5.15625 25.0302 6.42187 24.1133 8.91797 23.5569C9.1607 23.5029 9.41498 23.5474 9.62486 23.6808C9.83474 23.8142 9.98303 24.0255 10.0371 24.2683C10.0912 24.511 10.0466 24.7653 9.91323 24.9752C9.77983 25.185 9.56852 25.3333 9.32578 25.3874C7.75641 25.7371 7.22906 26.1318 7.07578 26.286C7.49531 26.7276 9.80766 27.6876 15 27.6876C20.1923 27.6876 22.5047 26.7276 22.9252 26.286C22.7709 26.1318 22.2436 25.7371 20.6752 25.3874C20.5504 25.3655 20.4313 25.3185 20.3252 25.2492C20.2191 25.18 20.1281 25.09 20.0577 24.9846C19.9874 24.8792 19.9391 24.7607 19.9159 24.6361C19.8926 24.5116 19.8948 24.3836 19.9224 24.2599C19.95 24.1363 20.0024 24.0195 20.0764 23.9166C20.1504 23.8138 20.2444 23.727 20.3529 23.6615C20.4614 23.596 20.582 23.5532 20.7075 23.5356C20.8329 23.518 20.9607 23.5261 21.083 23.5593C23.5781 24.1133 24.8438 25.0302 24.8438 26.2813Z" fill="#64748B"/>
</svg>
