<svg width="30" height="30" viewBox="0 0 30 30" fill="none" xmlns="http://www.w3.org/2000/svg">
<path d="M17.6916 24.4908C20.4614 20.535 24.375 14.25 24.375 10.3125C24.375 7.8261 23.3873 5.44153 21.6291 3.68337C19.871 1.92522 17.4864 0.9375 15 0.9375C12.5136 0.9375 10.129 1.92522 8.37087 3.68337C6.61272 5.44153 5.625 7.8261 5.625 10.3125C5.625 14.25 9.53859 20.535 12.3084 24.4908C12.6111 24.9239 13.0138 25.2776 13.4824 25.5218C13.951 25.766 14.4716 25.8936 15 25.8936C15.5284 25.8936 16.049 25.766 16.5176 25.5218C16.9862 25.2776 17.3889 24.9239 17.6916 24.4908ZM11.7188 14.5312V10.7812H10.6697C10.5734 10.7812 10.4794 10.7515 10.4006 10.6962C10.3218 10.6409 10.2619 10.5626 10.2291 10.4721C10.1964 10.3815 10.1923 10.2831 10.2174 10.1901C10.2426 10.0971 10.2957 10.0142 10.3697 9.9525L14.7 6.34312C14.7842 6.27297 14.8904 6.23455 15 6.23455C15.1096 6.23455 15.2158 6.27297 15.3 6.34312L19.6303 9.9525C19.7043 10.0142 19.7574 10.0971 19.7826 10.1901C19.8077 10.2831 19.8036 10.3815 19.7709 10.4721C19.7381 10.5626 19.6782 10.6409 19.5994 10.6962C19.5206 10.7515 19.4266 10.7812 19.3303 10.7812H18.2812V14.5312C18.2812 14.6556 18.2319 14.7748 18.144 14.8627C18.056 14.9506 17.9368 15 17.8125 15H16.4062C16.2819 15 16.1627 14.9506 16.0748 14.8627C15.9869 14.7748 15.9375 14.6556 15.9375 14.5312V12.6562C15.9375 12.5319 15.8881 12.4127 15.8002 12.3248C15.7123 12.2369 15.5931 12.1875 15.4688 12.1875H14.5312C14.4069 12.1875 14.2877 12.2369 14.1998 12.3248C14.1119 12.4127 14.0625 12.5319 14.0625 12.6562V14.5312C14.0625 14.6556 14.0131 14.7748 13.9252 14.8627C13.8373 14.9506 13.7181 15 13.5938 15H12.1875C12.0632 15 11.944 14.9506 11.856 14.8627C11.7681 14.7748 11.7188 14.6556 11.7188 14.5312ZM24.8438 25.7812C24.8438 28.8258 17.3091 29.0625 15 29.0625C12.6909 29.0625 5.15625 28.8281 5.15625 25.7812C5.15625 24.5302 6.42187 23.6133 8.91797 23.0569C9.1607 23.0028 9.41498 23.0474 9.62486 23.1808C9.83474 23.3142 9.98303 23.5255 10.0371 23.7682C10.0912 24.0109 10.0466 24.2652 9.91323 24.4751C9.77983 24.685 9.56852 24.8333 9.32578 24.8873C7.75641 25.237 7.22906 25.6317 7.07578 25.7859C7.49531 26.2275 9.80766 27.1875 15 27.1875C20.1923 27.1875 22.5047 26.2275 22.9252 25.7859C22.7709 25.6317 22.2436 25.237 20.6752 24.8873C20.5504 24.8654 20.4313 24.8184 20.3252 24.7492C20.2191 24.6799 20.1281 24.5899 20.0577 24.4845C19.9874 24.3792 19.9391 24.2606 19.9159 24.1361C19.8926 24.0115 19.8948 23.8835 19.9224 23.7599C19.95 23.6362 20.0024 23.5194 20.0764 23.4166C20.1504 23.3137 20.2444 23.2269 20.3529 23.1614C20.4614 23.0959 20.582 23.0531 20.7075 23.0356C20.8329 23.018 20.9607 23.026 21.083 23.0592C23.5781 23.6133 24.8438 24.5302 24.8438 25.7812Z" fill="#64748B"/>
</svg>
