<svg width="17" height="17" viewBox="0 0 17 17" fill="none" xmlns="http://www.w3.org/2000/svg">
<g clip-path="url(#clip0_7905_79568)">
<path d="M13.9698 12.8287C14.0024 12.9181 14.0087 13.015 13.9881 13.1079C13.9675 13.2007 13.9208 13.2858 13.8536 13.3531L12.3536 14.8531C12.3072 14.8996 12.252 14.9366 12.1913 14.9618C12.1306 14.987 12.0656 15 11.9998 15C11.9834 15.0009 11.9669 15.0009 11.9505 15C11.8768 14.9927 11.8057 14.9692 11.7423 14.9312C11.6789 14.8932 11.6247 14.8415 11.5836 14.78L8.82921 10.6475L7.49983 11.9744V13.5C7.49977 13.6324 7.44718 13.7594 7.35358 13.8531C7.35358 13.8531 6.47858 14.7319 6.36108 14.8456C6.31224 14.8968 6.25299 14.9368 6.18733 14.9631C6.06497 15.013 5.92785 15.0123 5.80593 14.9614C5.68402 14.9104 5.58723 14.8133 5.53671 14.6912L5.53296 14.6819L4.61421 12.3844L2.31233 11.4637C2.23554 11.433 2.16758 11.3837 2.11451 11.3203C2.06145 11.2568 2.02496 11.1812 2.0083 11.1002C1.99164 11.0192 1.99533 10.9353 2.01905 10.8561C2.04277 10.7769 2.08577 10.7048 2.14421 10.6462L3.14421 9.64623C3.1909 9.59959 3.24636 9.56265 3.3074 9.53755C3.36844 9.51245 3.43384 9.49968 3.49983 9.49998H5.02483L6.35421 8.17061L2.22233 5.41561C2.16071 5.37458 2.10896 5.32039 2.07083 5.25693C2.0327 5.19347 2.00913 5.12234 2.00184 5.04867C1.99454 4.97499 2.0037 4.90062 2.02864 4.83092C2.05359 4.76122 2.0937 4.69792 2.14608 4.64561L3.64608 3.14561C3.71337 3.07835 3.79845 3.03169 3.89134 3.01109C3.98422 2.9905 4.08105 2.99684 4.17046 3.02936L9.54171 4.98248L11.5123 3.01186C11.8405 2.68365 12.2857 2.49927 12.7498 2.49927C12.9797 2.49927 13.2072 2.54453 13.4196 2.63249C13.6319 2.72044 13.8248 2.84935 13.9873 3.01186C14.1498 3.17437 14.2788 3.3673 14.3667 3.57963C14.4547 3.79196 14.4999 4.01953 14.4999 4.24936C14.4999 4.47918 14.4547 4.70676 14.3667 4.91909C14.2788 5.13142 14.1498 5.32435 13.9873 5.48686L12.0167 7.45748L13.9698 12.8287Z" fill="white"/>
</g>
<defs>
<clipPath id="clip0_7905_79568">
<rect width="16" height="16" fill="white" transform="translate(0.5 0.5)"/>
</clipPath>
</defs>
</svg>
