<svg width="50" height="50" viewBox="0 0 50 50" fill="none" xmlns="http://www.w3.org/2000/svg">
<path d="M43.144 24.6157L40.8623 21.2629C40.56 20.7873 40.1517 20.3881 39.6693 20.0967C39.1869 19.8053 38.6435 19.6295 38.0819 19.5833C38.4456 19.1528 38.7049 18.6441 38.8393 18.0968C38.9737 17.5495 38.9795 16.9785 38.8565 16.4286L38.1026 12.4442C38.0768 12.3089 38.0108 12.1846 37.9132 12.0875C37.8156 11.9903 37.691 11.9249 37.5557 11.8997L33.5713 11.1458C33.0214 11.0224 32.4503 11.0282 31.903 11.1626C31.3557 11.297 30.8469 11.5564 30.4166 11.9204C30.3705 11.3586 30.1949 10.8151 29.9035 10.3326C29.612 9.85012 29.2127 9.44173 28.7369 9.1395L25.3854 6.85825C25.2721 6.78096 25.1381 6.73962 25.001 6.73962C24.8639 6.73962 24.7299 6.78096 24.6166 6.85825L21.2639 9.14067C20.7882 9.44297 20.389 9.85133 20.0976 10.3337C19.8062 10.8161 19.6305 11.3595 19.5842 11.9211C19.1539 11.5572 18.6451 11.2978 18.0978 11.1634C17.5505 11.029 16.9794 11.0232 16.4295 11.1465L12.4451 11.9004C12.3102 11.926 12.1861 11.9917 12.089 12.0888C11.9918 12.1859 11.9262 12.31 11.9006 12.445L11.1467 16.4293C11.0236 16.9792 11.0295 17.5501 11.1639 18.0974C11.2983 18.6446 11.5575 19.1533 11.9213 19.5836C11.3595 19.6299 10.8161 19.8056 10.3337 20.097C9.8512 20.3884 9.44278 20.7876 9.14044 21.2633L6.85919 24.6153C6.7817 24.7285 6.74023 24.8625 6.74023 24.9997C6.74023 25.1368 6.7817 25.2708 6.85919 25.384L9.14044 28.7368C9.44285 29.2124 9.85128 29.6116 10.3337 29.903C10.8162 30.1944 11.3596 30.3701 11.9213 30.4165C11.5575 30.8469 11.2983 31.3556 11.1639 31.9029C11.0295 32.4502 11.0236 33.0212 11.1467 33.5711L11.9006 37.5555C11.9262 37.6905 11.9918 37.8146 12.089 37.9117C12.1861 38.0088 12.3102 38.0745 12.4451 38.1L16.4295 38.854C16.6984 38.9052 16.9714 38.9314 17.2451 38.9321C18.1023 38.9478 18.9351 38.6465 19.5838 38.086C19.6305 38.6471 19.8065 39.1899 20.0979 39.6717C20.3893 40.1535 20.7882 40.5614 21.2635 40.8633L24.6154 43.1446C24.7287 43.2219 24.8627 43.2633 24.9998 43.2633C25.137 43.2633 25.2709 43.2219 25.3842 43.1446L28.7369 40.8629C29.2122 40.5611 29.6112 40.1533 29.9026 39.6715C30.194 39.1898 30.3699 38.6471 30.4166 38.086C31.065 38.6476 31.898 38.9499 32.7557 38.9348C33.0295 38.9341 33.3027 38.9079 33.5717 38.8567L37.5561 38.1028C37.6914 38.0776 37.816 38.0121 37.9136 37.915C38.0111 37.8178 38.0771 37.6935 38.1029 37.5583L38.8569 33.5739C38.9799 33.024 38.974 32.4531 38.8397 31.9058C38.7053 31.3586 38.446 30.8499 38.0822 30.4196C38.644 30.3734 39.1874 30.1976 39.6699 29.9062C40.1523 29.6148 40.5608 29.2156 40.8631 28.7399L43.1444 25.3879C43.2226 25.2743 43.2644 25.1397 43.2643 25.0017C43.2643 24.8638 43.2223 24.7292 43.144 24.6157ZM33.3213 12.4883L36.8475 13.1555L37.5127 16.6797C37.6024 17.0423 37.6017 17.4214 37.5106 17.7836C37.4194 18.1458 37.2407 18.4801 36.9901 18.7571L36.1783 19.5704H30.4307V13.8227L31.242 13.011C31.519 12.7599 31.8537 12.5808 32.2163 12.4897C32.5789 12.3985 32.9584 12.3981 33.3213 12.4883ZM24.0342 31.7114L20.9385 34.8094V30.4297H22.7529L24.0342 31.7114ZM25.9678 18.2887L29.0635 15.1907V19.5704H27.249L25.9678 18.2887ZM30.7451 25L29.2639 26.4817C29.1357 26.6098 29.0636 26.7836 29.0635 26.9649V29.0625H26.9658C26.7846 29.0626 26.6108 29.1347 26.4826 29.2629L25.001 30.7442L23.5194 29.2629C23.3912 29.1347 23.2174 29.0626 23.0361 29.0625H20.9385V26.9649C20.9384 26.7836 20.8663 26.6098 20.7381 26.4817L19.2588 25L20.7401 23.5184C20.8676 23.39 20.9389 23.2162 20.9385 23.0352V20.9375H23.0361C23.2174 20.9375 23.3912 20.8654 23.5194 20.7372L25.001 19.2579L26.4826 20.7391C26.6108 20.8673 26.7846 20.9394 26.9658 20.9395H29.0635V23.0372C29.0636 23.2184 29.1357 23.3922 29.2639 23.5204L30.7451 25ZM22.7529 19.5704H20.9385V15.1907L24.0342 18.2887L22.7529 19.5704ZM19.5713 22.752L18.2897 24.0333L15.1916 20.9375H19.5713V22.752ZM18.2897 25.9668L19.5713 27.2481V29.0625H15.1916L18.2897 25.9668ZM27.249 30.4297H29.0635V34.8094L25.9678 31.7114L27.249 30.4297ZM30.4307 27.2481L31.7123 25.9668L34.8104 29.0625H30.4307V27.2481ZM31.7123 24.0333L30.4307 22.752V20.9375H34.8104L31.7123 24.0333ZM22.0322 10.268L25.001 8.24888L27.967 10.2676C28.286 10.4606 28.5528 10.7289 28.744 11.049C28.9351 11.3691 29.0449 11.7312 29.0635 12.1036V13.2547L25.001 17.3219L20.9385 13.2567V12.1055C20.9566 11.7331 21.0658 11.3709 21.2565 11.0505C21.4472 10.7302 21.7136 10.4615 22.0322 10.268ZM12.4893 16.6817L13.1565 13.1555L16.6807 12.4883C17.0432 12.3983 17.4224 12.3988 17.7847 12.49C18.147 12.5811 18.4813 12.7601 18.758 13.011L19.5713 13.8227V19.5704H13.8236L13.0119 18.7586C12.7613 18.4818 12.5826 18.1475 12.4915 17.7854C12.4003 17.4232 12.3996 17.0442 12.4893 16.6817ZM10.269 27.9688L8.24982 25L10.2686 22.034C10.4615 21.715 10.7298 21.4482 11.0499 21.2571C11.37 21.0659 11.7321 20.9562 12.1045 20.9375H13.2557L17.3229 25L13.2576 29.0625H12.1065C11.7341 29.0444 11.3718 28.9352 11.0515 28.7445C10.7311 28.5538 10.4624 28.2875 10.269 27.9688ZM16.6826 37.5118L13.1565 36.8446L12.4893 33.3204C12.3995 32.9578 12.4003 32.5787 12.4914 32.2165C12.5825 31.8542 12.7613 31.52 13.0119 31.243L13.8236 30.4297H19.5713V36.1774L18.7596 36.9891C18.4828 37.2399 18.1486 37.4187 17.7864 37.5099C17.4242 37.601 17.0451 37.6017 16.6826 37.5118ZM27.9697 39.7321L25.001 41.7512L22.035 39.7325C21.716 39.5395 21.4492 39.2712 21.258 38.9511C21.0668 38.631 20.9571 38.2689 20.9385 37.8965V36.7434L25.001 32.6782L29.0635 36.7434V37.8946C29.0454 38.267 28.9362 38.6292 28.7455 38.9496C28.5548 39.2699 28.2884 39.5386 27.9697 39.7321ZM37.5127 33.3204L36.8455 36.8461L33.3213 37.5118C32.9587 37.6017 32.5795 37.6011 32.2172 37.51C31.8548 37.4188 31.5205 37.24 31.2436 36.9891L30.4307 36.1774V30.4297H36.1783L36.9901 31.2415C37.2409 31.5186 37.4198 31.8531 37.511 32.2156C37.6021 32.5782 37.6027 32.9576 37.5127 33.3204ZM39.7334 27.9688C39.5404 28.2878 39.2721 28.5546 38.952 28.7458C38.632 28.9369 38.2698 29.0466 37.8975 29.0653H36.7444L32.6791 25L36.7444 20.9375H37.8955C38.2676 20.9559 38.6296 21.0652 38.9496 21.2559C39.2697 21.4466 39.5381 21.7128 39.7315 22.0313L41.7506 25L39.7334 27.9688Z" fill="#BB9769"/>
</svg>
