<svg width="80" height="80" viewBox="0 0 80 80" fill="none" xmlns="http://www.w3.org/2000/svg">
<path fill-rule="evenodd" clip-rule="evenodd" d="M59.9994 6.66666H19.9994C12.6356 6.66666 6.66602 12.6362 6.66602 20V60C6.66602 66.2141 10.9171 71.4354 16.6697 72.9142C17.734 73.1878 18.8497 73.3333 19.9993 73.3333H59.9993C61.149 73.3333 62.2647 73.1878 63.329 72.9142C69.0816 71.4354 73.3327 66.2141 73.3327 60V20C73.3327 12.6362 67.3632 6.66666 59.9994 6.66666ZM49.9993 30C49.9993 24.4771 45.5222 20 39.9993 20C34.4765 20 29.9993 24.4771 29.9993 30C29.9993 35.5228 34.4765 40 39.9993 40C45.5222 40 49.9993 35.5228 49.9993 30ZM23.8413 56.7184C25.6689 50.9414 32.2101 46.6667 39.9993 46.6667C47.7886 46.6667 54.3298 50.9414 56.1574 56.7184C56.7127 58.4736 55.1736 60 53.3327 60H26.666C24.8251 60 23.286 58.4736 23.8413 56.7184Z" fill="#A8A29E"/>
</svg>
