<svg width="80" height="81" viewBox="0 0 80 81" fill="none" xmlns="http://www.w3.org/2000/svg">
<path fill-rule="evenodd" clip-rule="evenodd" d="M66.6667 20.4935V39.1985C65.5946 38.9553 64.479 38.8268 63.3333 38.8268H60C56.3278 38.8268 52.87 40.5558 50.6667 43.4935L46.6667 48.8268C45.0929 50.9252 42.623 52.1602 40 52.1602C37.377 52.1602 34.9071 50.9252 33.3333 48.8268L29.3333 43.4935C27.13 40.5558 23.6722 38.8268 20 38.8268H16.6667C15.521 38.8268 14.4054 38.9553 13.3333 39.1985V20.4935C13.3333 13.1297 19.3029 7.16016 26.6667 7.16016H53.3333C60.6971 7.16016 66.6667 13.1297 66.6667 20.4935ZM30.0006 31.3281C28.6199 31.3281 27.5006 32.4474 27.5006 33.8281C27.5006 35.2088 28.6199 36.3281 30.0006 36.3281H40.0006C41.3814 36.3281 42.5006 35.2088 42.5006 33.8281C42.5006 32.4474 41.3814 31.3281 40.0006 31.3281H30.0006ZM27.5006 20.4948C27.5006 19.1141 28.6199 17.9948 30.0006 17.9948H50.0006C51.3814 17.9948 52.5006 19.1141 52.5006 20.4948C52.5006 21.8755 51.3814 22.9948 50.0006 22.9948H30.0006C28.6199 22.9948 27.5006 21.8755 27.5006 20.4948ZM73.3346 53.8294V63.8294C73.3346 69.3523 68.8575 73.8294 63.3346 73.8294H16.668C11.1451 73.8294 6.66797 69.3523 6.66797 63.8294V53.8294C6.66797 48.3066 11.1451 43.8294 16.668 43.8294H20.0013C22.0997 43.8294 24.0756 44.8174 25.3346 46.4961L29.3346 51.8294C31.8527 55.1868 35.8045 57.1628 40.0013 57.1628C44.1981 57.1628 48.1499 55.1868 50.668 51.8294L54.668 46.4961C55.927 44.8174 57.9029 43.8294 60.0013 43.8294H63.3346C68.8575 43.8294 73.3346 48.3066 73.3346 53.8294Z" fill="#D6D3D1"/>
</svg>
