<svg width="40" height="41" viewBox="0 0 40 41" fill="none" xmlns="http://www.w3.org/2000/svg">
<path d="M24.667 3.83301C31.2942 3.83319 36.6668 9.20585 36.667 15.833L36.667 25.167C36.6668 31.7942 31.2942 37.1668 24.667 37.167L15.333 37.167C8.70585 37.1668 3.33319 31.7941 3.33301 25.167L3.33301 15.833C3.33318 9.20585 8.70585 3.83319 15.333 3.83301L24.667 3.83301ZM20.8838 12.9492C20.3957 12.4613 19.6043 12.4613 19.1162 12.9492L14.1162 17.9492C13.6281 18.4373 13.6282 19.2286 14.1162 19.7168C14.6044 20.205 15.3956 20.205 15.8838 19.7168C16.9415 18.6594 18.7499 19.4087 18.75 20.9043L18.75 27.167C18.7502 27.8572 19.3098 28.417 20 28.417C20.6902 28.417 21.2498 27.8572 21.25 27.167L21.25 20.9043C21.2501 19.4087 23.0585 18.6594 24.1162 19.7168C24.6044 20.205 25.3956 20.205 25.8838 19.7168C26.3718 19.2286 26.3719 18.4373 25.8838 17.9492L20.8838 12.9492Z" fill="#BB9769"/>
</svg>
