<svg width="40" height="41" viewBox="0 0 40 41" fill="none" xmlns="http://www.w3.org/2000/svg">
<path d="M24.667 3.83325C31.2942 3.83343 36.6668 9.2061 36.667 15.8333L36.667 25.1672C36.6668 31.7944 31.2942 37.1671 24.667 37.1672L15.333 37.1672C8.70585 37.1671 3.33319 31.7944 3.33301 25.1672L3.33301 15.8333C3.33318 9.20609 8.70585 3.83343 15.333 3.83325L24.667 3.83325ZM20 12.5833C19.3098 12.5833 18.7502 13.143 18.75 13.8333L18.75 20.0959C18.7499 21.5916 16.9415 22.3409 15.8838 21.2834C15.3956 20.7953 14.6044 20.7953 14.1162 21.2834C13.6282 21.7716 13.6281 22.5629 14.1162 23.051L19.1162 28.051C19.6043 28.539 20.3957 28.539 20.8838 28.051L25.8838 23.051C26.3719 22.5629 26.3718 21.7716 25.8838 21.2834C25.3956 20.7953 24.6044 20.7953 24.1162 21.2834C23.0585 22.3409 21.2501 21.5916 21.25 20.0959L21.25 13.8333C21.2498 13.143 20.6902 12.5833 20 12.5833Z" fill="#BB9769"/>
</svg>
