<svg width="30" height="31" viewBox="0 0 30 31" fill="none" xmlns="http://www.w3.org/2000/svg">
<path fill-rule="evenodd" clip-rule="evenodd" d="M10.9375 3C10.9375 2.48223 10.5178 2.0625 10 2.0625C9.48223 2.0625 9.0625 2.48223 9.0625 3L9.0625 4.875L7.75 4.875C5.54086 4.875 3.75 6.66586 3.75 8.875L3.75 10.8125L26.25 10.8125L26.25 8.875C26.25 6.66586 24.4591 4.875 22.25 4.875L20.9375 4.875L20.9375 3C20.9375 2.48223 20.5178 2.0625 20 2.0625C19.4822 2.0625 19.0625 2.48223 19.0625 3L19.0625 4.875L10.9375 4.875L10.9375 3ZM3.75 12.6875L26.25 12.6875L26.25 24C26.25 26.2091 24.4591 28 22.25 28L7.75 28C5.54086 28 3.75 26.2091 3.75 24L3.75 12.6875ZM15 20.5C15.6904 20.5 16.25 19.9404 16.25 19.25C16.25 18.5596 15.6904 18 15 18C14.3096 18 13.75 18.5596 13.75 19.25C13.75 19.9404 14.3096 20.5 15 20.5ZM21.25 19.25C21.25 19.9404 20.6904 20.5 20 20.5C19.3096 20.5 18.75 19.9404 18.75 19.25C18.75 18.5596 19.3096 18 20 18C20.6904 18 21.25 18.5596 21.25 19.25ZM10 20.5C10.6904 20.5 11.25 19.9404 11.25 19.25C11.25 18.5596 10.6904 18 10 18C9.30964 18 8.75 18.5596 8.75 19.25C8.75 19.9404 9.30964 20.5 10 20.5Z" fill="#64748B"/>
</svg>
