<svg width="30" height="31" viewBox="0 0 30 31" fill="none" xmlns="http://www.w3.org/2000/svg">
<path d="M26.25 24.2502L26.25 22.1928C26.25 21.1705 25.6276 20.2512 24.6785 19.8716L22.1358 18.8545C20.9286 18.3716 19.5527 18.8947 18.9713 20.0577L18.75 20.5002C18.75 20.5002 15.625 19.8752 13.125 17.3752C10.625 14.8752 10 11.7502 10 11.7502L10.4425 11.5289C11.6055 10.9474 12.1286 9.57161 11.6457 8.36438L10.6286 5.82171C10.249 4.87256 9.32968 4.25018 8.30742 4.25018L6.25 4.25018C4.86929 4.25018 3.75 5.36947 3.75 6.75018C3.75 17.7959 12.7043 26.7502 23.75 26.7502C25.1307 26.7502 26.25 25.6309 26.25 24.2502Z" fill="currentColor"/>
</svg>
