<svg width="18" height="18" viewBox="0 0 18 18" fill="none" xmlns="http://www.w3.org/2000/svg">
<path d="M13.5 2.25C14.9646 2.25 16.1841 3.29952 16.4474 4.6875L1.55265 4.6875C1.81594 3.29952 3.03541 2.25 4.5 2.25H13.5Z" fill="currentColor"/>
<path d="M16.5 7.6875V5.8125L1.5 5.8125V7.6875H16.5Z" fill="currentColor"/>
<path fill-rule="evenodd" clip-rule="evenodd" d="M16.5 8.8125L1.5 8.8125V12.75C1.5 14.4069 2.84315 15.75 4.5 15.75H9.75C10.1642 15.75 10.5 15.4142 10.5 15V14.25C10.5 12.5931 11.8431 11.25 13.5 11.25H15.75C16.1642 11.25 16.5 10.9142 16.5 10.5V8.8125ZM4.5 13.5C4.91421 13.5 5.25 13.1642 5.25 12.75C5.25 12.3358 4.91421 12 4.5 12C4.08579 12 3.75 12.3358 3.75 12.75C3.75 13.1642 4.08579 13.5 4.5 13.5Z" fill="currentColor"/>
<path fill-rule="evenodd" clip-rule="evenodd" d="M15.0414 12.6029C15.2611 12.8226 15.2611 13.1788 15.0414 13.3984L14.3785 14.0613L15.0414 14.7243C15.2611 14.9439 15.2611 15.3001 15.0414 15.5198C14.8217 15.7394 14.4656 15.7394 14.2459 15.5198L13.583 14.8568L12.9201 15.5198C12.7004 15.7394 12.3443 15.7394 12.1246 15.5198C11.9049 15.3001 11.9049 14.9439 12.1246 14.7243L12.7875 14.0613L12.1246 13.3984C11.9049 13.1788 11.9049 12.8226 12.1246 12.6029C12.3443 12.3833 12.7004 12.3833 12.9201 12.6029L13.583 13.2659L14.2459 12.6029C14.4656 12.3833 14.8217 12.3833 15.0414 12.6029Z" fill="currentColor"/>
</svg>
