<svg width="18" height="18" viewBox="0 0 18 18" fill="none" xmlns="http://www.w3.org/2000/svg">
<path fill-rule="evenodd" clip-rule="evenodd" d="M1.5 6.25C1.5 6.10216 1.50802 5.95619 1.52365 5.8125H16.4763C16.492 5.95619 16.5 6.10216 16.5 6.25V7.6875H1.5V6.25ZM1.5 11.75V8.8125H16.5V11.75C16.5 13.9591 14.7091 15.75 12.5 15.75H5.5C3.29086 15.75 1.5 13.9591 1.5 11.75ZM12.5 2.25C14.1547 2.25 15.5748 3.25478 16.1833 4.6875H1.81668C2.42522 3.25478 3.84527 2.25 5.5 2.25H12.5ZM4.5 12C4.08579 12 3.75 12.3358 3.75 12.75C3.75 13.1642 4.08579 13.5 4.5 13.5H6C6.41421 13.5 6.75 13.1642 6.75 12.75C6.75 12.3358 6.41421 12 6 12H4.5Z" fill="currentColor"/>
</svg>
