<svg width="19" height="18" viewBox="0 0 19 18" fill="none" xmlns="http://www.w3.org/2000/svg">
<path fill-rule="evenodd" clip-rule="evenodd" d="M9.5 16.5C13.6421 16.5 17 13.1421 17 9C17 4.85786 13.6421 1.5 9.5 1.5C5.35786 1.5 2 4.85786 2 9C2 13.1421 5.35786 16.5 9.5 16.5ZM12.944 7.09537C13.1347 6.85015 13.0906 6.49674 12.8453 6.30602C12.6001 6.11529 12.2467 6.15946 12.056 6.40468L9.05074 10.2686C8.98392 10.3545 8.85822 10.3656 8.77731 10.2928L6.8763 8.58192C6.64539 8.3741 6.28972 8.39282 6.0819 8.62373C5.87408 8.85464 5.8928 9.21031 6.12371 9.41813L8.02472 11.129C8.59107 11.6388 9.47098 11.5607 9.93876 10.9593L12.944 7.09537Z" fill="currentColor"/>
</svg>
