<svg width="124" height="32" viewBox="0 0 124 32" fill="none" xmlns="http://www.w3.org/2000/svg">
<g clip-path="url(#clip0_4673_47261)">
<path fill-rule="evenodd" clip-rule="evenodd" d="M31.6834 15.7483C31.6834 21.7146 22.219 31.2509 16.2974 31.2509C10.3757 31.2509 0.911133 21.7146 0.911133 15.7483C0.911133 9.78194 10.3757 0.245361 16.2974 0.245361C22.219 0.245361 31.6834 9.78194 31.6834 15.7483ZM22.4517 15.7483C22.4517 18.1348 18.6658 21.9493 16.2974 21.9493C13.9286 21.9493 10.1428 18.1348 10.1428 15.7483C10.1428 13.3618 13.9288 9.5471 16.2974 9.5471C18.6658 9.5471 22.4517 13.3618 22.4517 15.7483Z" fill="#0065FF"/>
<path d="M48.4385 31.249C54.1804 31.249 57.7789 27.6232 58.8707 22.8564H52.5629C51.7947 24.486 50.5816 25.7083 48.4385 25.7083C45.8507 25.7083 43.9504 23.8343 43.9504 20.6156C43.9504 17.3972 45.8507 15.5229 48.4385 15.5229C50.5816 15.5229 51.7947 16.7451 52.5629 18.375H58.8707C57.7789 13.6082 54.1804 9.98217 48.4385 9.98217C42.2923 9.98217 37.8042 14.7083 37.8042 20.6156C37.8042 26.5232 42.2923 31.249 48.4385 31.249ZM61.0239 30.8009H67.1297V0.245141H61.0239V30.8009ZM73.8115 7.65989C75.9545 7.65989 77.6528 5.9488 77.6528 3.83023C77.6528 1.71182 75.9545 0.000732422 73.8115 0.000732422C71.7494 0.000732422 70.0105 1.71182 70.0105 3.83023C70.0105 5.9488 71.7494 7.65989 73.8115 7.65989ZM70.7789 30.8009H76.8847V10.4304H70.7789V30.8009ZM89.9555 31.249C95.6969 31.249 99.2954 27.6232 100.388 22.8564H94.0797C93.311 24.486 92.0985 25.7083 89.9555 25.7083C87.3672 25.7083 85.4672 23.8343 85.4672 20.6156C85.4672 17.3972 87.3672 15.5229 89.9555 15.5229C92.0985 15.5229 93.311 16.7451 94.0797 18.375H100.388C99.2954 13.6082 95.6969 9.98217 89.9555 9.98217C83.8094 9.98217 79.3212 14.7083 79.3212 20.6156C79.3212 26.5232 83.8094 31.249 89.9555 31.249ZM116.167 30.8009H123.566L114.348 19.6379L121.788 10.4304H114.549L108.646 17.723V0.245141H102.541V30.8009H108.646V21.7156L116.167 30.8009Z" fill="white"/>
</g>
<defs>
<clipPath id="clip0_4673_47261">
<rect width="122.656" height="31.25" fill="white" transform="translate(0.921875 0.000488281)"/>
</clipPath>
</defs>
</svg>
