<svg width="70" height="70" viewBox="0 0 70 70" fill="none" xmlns="http://www.w3.org/2000/svg">
<rect x="5" y="5" width="60" height="60" rx="20" fill="#F2F4F7"/>
<rect x="5" y="5" width="60" height="60" rx="20" stroke="#F9FAFB" stroke-width="9"/>
<g clip-path="url(#clip0_5852_30906)">
<path d="M40.0008 40.0008L35.0008 35.0008M35.0008 35.0008L30.0008 40.0008M35.0008 35.0008V46.2508M45.4883 42.9883C46.7075 42.3237 47.6706 41.2719 48.2256 39.9991C48.7807 38.7263 48.8961 37.3049 48.5536 35.9592C48.2111 34.6135 47.4302 33.4202 46.3341 32.5676C45.2381 31.7151 43.8894 31.2518 42.5008 31.2508H40.9258C40.5474 29.7874 39.8423 28.4288 38.8632 27.2771C37.8842 26.1254 36.6569 25.2106 35.2734 24.6016C33.89 23.9925 32.3865 23.705 30.876 23.7607C29.3654 23.8163 27.8871 24.2137 26.5523 24.9229C25.2174 25.6321 24.0607 26.6347 23.1691 27.8553C22.2775 29.0759 21.6742 30.4828 21.4045 31.9701C21.1349 33.4574 21.2059 34.9865 21.6123 36.4424C22.0187 37.8983 22.7499 39.2432 23.7508 40.3758" stroke="#64748B" stroke-width="2.5" stroke-linecap="round" stroke-linejoin="round"/>
</g>
<defs>
<clipPath id="clip0_5852_30906">
<rect width="30" height="30" fill="white" transform="translate(20 20)"/>
</clipPath>
</defs>
</svg>
