<svg width="24" height="24" viewBox="0 0 24 24" fill="none" xmlns="http://www.w3.org/2000/svg">
<path fill-rule="evenodd" clip-rule="evenodd" d="M6.47458 2.71453C8.16252 1.58924 10.3797 2.62089 10.7085 4.51564H14C15.5188 4.51564 16.75 5.74685 16.75 7.26564C16.75 7.67985 16.4142 8.01564 16 8.01564C15.5858 8.01564 15.25 7.67985 15.25 7.26564C15.25 6.57528 14.6904 6.01564 14 6.01564H10.75V18.5156H14C14.6904 18.5156 15.25 17.956 15.25 17.2656C15.25 16.8514 15.5858 16.5156 16 16.5156C16.4142 16.5156 16.75 16.8514 16.75 17.2656C16.75 18.7844 15.5188 20.0156 14 20.0156H10.7085C10.3797 21.9104 8.16252 22.942 6.47458 21.8167L4.47457 20.4834C3.70953 19.9734 3.25 19.1147 3.25 18.1953V6.336C3.25 5.41653 3.70953 4.5579 4.47457 4.04787L6.47458 2.71453ZM15.5302 9.7353C15.8231 10.0282 15.8231 10.5031 15.5302 10.796L14.8105 11.5156L19.9998 11.5156C20.4141 11.5156 20.7499 11.8514 20.7499 12.2656C20.7499 12.6798 20.4141 13.0156 19.9998 13.0156L14.8105 13.0156L15.5302 13.7353C15.8231 14.0282 15.8231 14.5031 15.5302 14.796C15.2373 15.0888 14.7624 15.0888 14.4695 14.796L13.1766 13.5031C12.4932 12.8196 12.4932 11.7116 13.1766 11.0282L14.4695 9.73529C14.7624 9.4424 15.2373 9.4424 15.5302 9.7353Z" fill="white"/>
</svg>
