<svg width="26" height="26" viewBox="0 0 26 26" fill="none" xmlns="http://www.w3.org/2000/svg">
<path fill-rule="evenodd" clip-rule="evenodd" d="M18.102 0.496096L2.90195 0.496094C1.57647 0.496094 0.501953 1.57061 0.501953 2.89609L0.501954 23.0961C0.501954 24.4216 1.57647 25.4961 2.90195 25.4961L23.002 25.4961C21.6212 25.4961 20.502 24.3768 20.502 22.9961L20.502 7.99609L20.502 2.8961C20.5019 1.57061 19.4274 0.496096 18.102 0.496096ZM4.56445 6.74609C4.56445 6.22833 4.98419 5.80859 5.50195 5.80859L15.502 5.80859C16.0197 5.80859 16.4395 6.22833 16.4395 6.74609C16.4395 7.26386 16.0197 7.68359 15.502 7.68359L5.50195 7.68359C4.98419 7.68359 4.56445 7.26386 4.56445 6.74609ZM5.50195 12.0586C4.98419 12.0586 4.56445 12.4783 4.56445 12.9961C4.56445 13.5139 4.98419 13.9336 5.50195 13.9336L15.502 13.9336C16.0197 13.9336 16.4395 13.5139 16.4395 12.9961C16.4395 12.4783 16.0197 12.0586 15.502 12.0586L5.50195 12.0586ZM4.56445 19.2461C4.56445 18.7283 4.98419 18.3086 5.50195 18.3086L10.502 18.3086C11.0197 18.3086 11.4395 18.7283 11.4395 19.2461C11.4395 19.7639 11.0197 20.1836 10.502 20.1836L5.50195 20.1836C4.98419 20.1836 4.56445 19.7639 4.56445 19.2461ZM25.5016 22.4227L25.5016 10.4977C25.5016 9.11694 24.3823 7.99766 23.0016 7.99766L22.3766 7.99766L22.3766 22.4227C22.3766 23.0854 22.9138 23.6227 23.5766 23.6227L24.3016 23.6227C24.9643 23.6227 25.5016 23.0854 25.5016 22.4227Z" fill="currentColor"/>
</svg>
