<svg width="36" height="36" viewBox="0 0 36 36" fill="none" xmlns="http://www.w3.org/2000/svg">
<path d="M4.5 27H3.5H4.5ZM4.5 9L5.5 9L4.5 9ZM10.5 3V2V3ZM25.5 3V2V3ZM31.5 9L30.5 9V9H31.5ZM31.5 18.5147L32.5 18.5147V18.5147H31.5ZM17.0147 33V32V33ZM10.5 33V34V33ZM29.7426 22.7574L29.0355 22.0503H29.0355L29.7426 22.7574ZM21.2574 31.2426L21.9645 31.9497L21.2574 31.2426ZM19.5 27H18.5H19.5ZM25.5 21V20V21ZM12 9.5C11.4477 9.5 11 9.94772 11 10.5C11 11.0523 11.4477 11.5 12 11.5V9.5ZM24 11.5C24.5523 11.5 25 11.0523 25 10.5C25 9.94772 24.5523 9.5 24 9.5V11.5ZM12 17C11.4477 17 11 17.4477 11 18C11 18.5523 11.4477 19 12 19V17ZM18 19C18.5523 19 19 18.5523 19 18C19 17.4477 18.5523 17 18 17V19ZM5.5 27L5.5 9L3.5 9L3.5 27H5.5ZM10.5 4L25.5 4V2L10.5 2L10.5 4ZM30.5 9V18.5147H32.5V9H30.5ZM17.0147 32H10.5V34H17.0147V32ZM29.0355 22.0503L20.5503 30.5355L21.9645 31.9497L30.4497 23.4645L29.0355 22.0503ZM17.0147 34C18.8712 34 20.6517 33.2625 21.9645 31.9497L20.5503 30.5355C19.6126 31.4732 18.3408 32 17.0147 32V34ZM30.5 18.5147C30.5 19.8408 29.9732 21.1126 29.0355 22.0503L30.4497 23.4645C31.7625 22.1517 32.5 20.3712 32.5 18.5147L30.5 18.5147ZM5.5 9C5.5 6.23858 7.73858 4 10.5 4L10.5 2C6.63401 2 3.5 5.13401 3.5 9L5.5 9ZM3.5 27C3.5 30.866 6.63401 34 10.5 34V32C7.73858 32 5.5 29.7614 5.5 27H3.5ZM25.5 4C28.2614 4 30.5 6.23858 30.5 9L32.5 9C32.5 5.13401 29.366 2 25.5 2V4ZM20.5 33V27H18.5V33H20.5ZM25.5 22L31.5 22V20L25.5 20V22ZM20.5 27C20.5 24.2386 22.7386 22 25.5 22V20C21.634 20 18.5 23.134 18.5 27H20.5ZM12 11.5H24V9.5H12V11.5ZM12 19H18V17H12V19Z" fill="#BB9769"/>
</svg>
