<svg width="260" height="54" viewBox="0 0 260 54" fill="none" xmlns="http://www.w3.org/2000/svg">
<rect x="11.5" y="2" width="50" height="50" rx="12.1212" fill="#D0B28B"/>
<path d="M48.211 15.3349L39.3726 11.6609C37.5443 10.9009 35.4574 10.901 33.6292 11.6609L24.7908 15.3349C22.2374 16.3963 20.5918 18.7646 20.5918 21.378V32.622C20.5918 35.2355 22.2374 37.6038 24.7908 38.6652L33.6292 42.3391C35.4574 43.0991 37.5443 43.0991 39.3726 42.3391L48.211 38.6652C50.7644 37.6038 52.41 35.2355 52.41 32.622V21.378C52.41 18.7646 50.7644 16.3963 48.211 15.3349Z" fill="black" stroke="black" stroke-width="1.51515" stroke-linecap="round" stroke-linejoin="round"/>
<path d="M36.5 25.4849V42.1515" stroke="black" stroke-width="2.27273" stroke-linecap="square" stroke-linejoin="round" stroke-dasharray="3.79 3.79"/>
<path d="M51.6526 27L36.5011 33.8182L21.3496 27" stroke="#C88C45" stroke-width="2.27273" stroke-linecap="round" stroke-linejoin="round" stroke-dasharray="3.79 3.79"/>
<path d="M51.6526 23.2122L36.5011 30.0303L21.3496 23.2122" stroke="#C88C45" stroke-width="2.27273" stroke-linecap="round" stroke-linejoin="round"/>
<path d="M50.8953 18.6667L36.5014 25.4849L22.1074 18.6667" stroke="#484F5E" stroke-width="2.27273" stroke-linecap="round" stroke-linejoin="round"/>
<path d="M84.392 5.6H87.252V21H84.392V5.6ZM76.428 21H73.568V5.6H76.428V21ZM84.612 14.4H76.186V11.958H84.612V14.4ZM89.2005 21L96.1305 5.6H98.9465L105.899 21H102.907L96.9445 7.118H98.0885L92.1485 21H89.2005ZM92.3905 17.436L93.1605 15.192H101.477L102.247 17.436H92.3905ZM110.577 21.22C109.595 21.22 108.685 21.0293 107.849 20.648C107.028 20.2667 106.353 19.7167 105.825 18.998L107.453 17.04C107.879 17.6267 108.341 18.0667 108.839 18.36C109.353 18.6533 109.91 18.8 110.511 18.8C112.11 18.8 112.909 17.854 112.909 15.962V7.998H107.431V5.6H115.769V15.808C115.769 17.6267 115.322 18.9833 114.427 19.878C113.547 20.7727 112.264 21.22 110.577 21.22ZM130.415 21L123.683 5.6H126.785L132.791 19.526H131.009L137.081 5.6H139.941L133.231 21H130.415ZM138.894 21L145.824 5.6H148.64L155.592 21H152.6L146.638 7.118H147.782L141.842 21H138.894ZM142.084 17.436L142.854 15.192H151.17L151.94 17.436H142.084ZM80.19 48.22C78.078 48.22 76.4207 47.626 75.218 46.438C74.03 45.25 73.436 43.534 73.436 41.29V32.6H76.296V41.18C76.296 42.764 76.6333 43.9153 77.308 44.634C77.9973 45.3527 78.9653 45.712 80.212 45.712C81.4587 45.712 82.4193 45.3527 83.094 44.634C83.7687 43.9153 84.106 42.764 84.106 41.18V32.6H86.922V41.29C86.922 43.534 86.3207 45.25 85.118 46.438C83.93 47.626 82.2873 48.22 80.19 48.22ZM90.9274 48V32.6H93.2814L100.013 43.842H98.7814L105.403 32.6H107.757L107.779 48H105.073L105.051 36.846H105.623L99.9914 46.24H98.7154L92.9954 36.846H93.6554V48H90.9274ZM111.939 48V32.6H118.275C119.639 32.6 120.805 32.82 121.773 33.26C122.756 33.7 123.511 34.3307 124.039 35.152C124.567 35.9733 124.831 36.9487 124.831 38.078C124.831 39.2073 124.567 40.1827 124.039 41.004C123.511 41.8107 122.756 42.434 121.773 42.874C120.805 43.2993 119.639 43.512 118.275 43.512H113.523L114.799 42.214V48H111.939ZM122.015 48L118.121 42.412H121.179L125.095 48H122.015ZM114.799 42.522L113.523 41.158H118.143C119.404 41.158 120.35 40.8867 120.981 40.344C121.626 39.8013 121.949 39.046 121.949 38.078C121.949 37.0953 121.626 36.34 120.981 35.812C120.35 35.284 119.404 35.02 118.143 35.02H113.523L114.799 33.612V42.522ZM125.853 48L132.783 32.6H135.599L142.551 48H139.559L133.597 34.118H134.741L128.801 48H125.853ZM129.043 44.436L129.813 42.192H138.129L138.899 44.436H129.043ZM150.589 48V32.6H156.925C158.289 32.6 159.455 32.82 160.423 33.26C161.406 33.7 162.161 34.3307 162.689 35.152C163.217 35.9733 163.481 36.9487 163.481 38.078C163.481 39.2073 163.217 40.1827 162.689 41.004C162.161 41.8253 161.406 42.456 160.423 42.896C159.455 43.336 158.289 43.556 156.925 43.556H152.173L153.449 42.214V48H150.589ZM153.449 42.522L152.173 41.136H156.793C158.055 41.136 159.001 40.872 159.631 40.344C160.277 39.8013 160.599 39.046 160.599 38.078C160.599 37.0953 160.277 36.34 159.631 35.812C159.001 35.284 158.055 35.02 156.793 35.02H152.173L153.449 33.612V42.522ZM173.768 48.22C172.566 48.22 171.458 48.022 170.446 47.626C169.434 47.23 168.554 46.68 167.806 45.976C167.058 45.2573 166.479 44.4213 166.068 43.468C165.658 42.5 165.452 41.444 165.452 40.3C165.452 39.156 165.658 38.1073 166.068 37.154C166.479 36.186 167.058 35.35 167.806 34.646C168.554 33.9273 169.434 33.37 170.446 32.974C171.458 32.578 172.558 32.38 173.746 32.38C174.949 32.38 176.049 32.578 177.046 32.974C178.058 33.37 178.938 33.9273 179.686 34.646C180.434 35.35 181.014 36.186 181.424 37.154C181.835 38.1073 182.04 39.156 182.04 40.3C182.04 41.444 181.835 42.5 181.424 43.468C181.014 44.436 180.434 45.272 179.686 45.976C178.938 46.68 178.058 47.23 177.046 47.626C176.049 48.022 174.956 48.22 173.768 48.22ZM173.746 45.712C174.524 45.712 175.242 45.58 175.902 45.316C176.562 45.052 177.134 44.678 177.618 44.194C178.102 43.6953 178.476 43.1233 178.74 42.478C179.019 41.818 179.158 41.092 179.158 40.3C179.158 39.508 179.019 38.7893 178.74 38.144C178.476 37.484 178.102 36.912 177.618 36.428C177.134 35.9293 176.562 35.548 175.902 35.284C175.242 35.02 174.524 34.888 173.746 34.888C172.969 34.888 172.25 35.02 171.59 35.284C170.945 35.548 170.373 35.9293 169.874 36.428C169.39 36.912 169.009 37.484 168.73 38.144C168.466 38.7893 168.334 39.508 168.334 40.3C168.334 41.0773 168.466 41.796 168.73 42.456C169.009 43.116 169.39 43.6953 169.874 44.194C170.358 44.678 170.93 45.052 171.59 45.316C172.25 45.58 172.969 45.712 173.746 45.712ZM185.072 48V32.6H191.408C192.772 32.6 193.938 32.82 194.906 33.26C195.889 33.7 196.644 34.3307 197.172 35.152C197.7 35.9733 197.964 36.9487 197.964 38.078C197.964 39.2073 197.7 40.1827 197.172 41.004C196.644 41.8107 195.889 42.434 194.906 42.874C193.938 43.2993 192.772 43.512 191.408 43.512H186.656L187.932 42.214V48H185.072ZM195.148 48L191.254 42.412H194.312L198.228 48H195.148ZM187.932 42.522L186.656 41.158H191.276C192.537 41.158 193.483 40.8867 194.114 40.344C194.759 39.8013 195.082 39.046 195.082 38.078C195.082 37.0953 194.759 36.34 194.114 35.812C193.483 35.284 192.537 35.02 191.276 35.02H186.656L187.932 33.612V42.522ZM204.073 48V35.02H198.969V32.6H212.037V35.02H206.933V48H204.073ZM211.232 48L218.162 32.6H220.978L227.93 48H224.938L218.976 34.118H220.12L214.18 48H211.232ZM214.422 44.436L215.192 42.192H223.508L224.278 44.436H214.422ZM229.888 48V32.6H232.748V45.58H240.8V48H229.888ZM243.058 48V32.6H245.918V48H243.058Z" fill="#fff"/>
</svg>
