<svg width="31" height="31" viewBox="0 0 31 31" fill="none" xmlns="http://www.w3.org/2000/svg">
<path fill-rule="evenodd" clip-rule="evenodd" d="M7 4.25018C4.79086 4.25018 3 6.04104 3 8.25018L3 8.92278L13.7355 16.7304C14.7874 17.4955 16.2126 17.4955 17.2645 16.7304L28 8.92278L28 8.25019C28 6.04105 26.2091 4.25019 24 4.25019L7 4.25018ZM28 11.3958L18.4409 18.3479C16.6876 19.623 14.3124 19.623 12.5591 18.3479L3 11.3958L3 22.7502C3 24.9593 4.79086 26.7502 7 26.7502L24 26.7502C26.2091 26.7502 28 24.9593 28 22.7502L28 11.3958Z" fill="#64748B"/>
</svg>
