<svg width="16" height="16" viewBox="0 0 16 16" fill="none" xmlns="http://www.w3.org/2000/svg">
<path fill-rule="evenodd" clip-rule="evenodd" d="M3.66797 4.99996C3.66797 4.88663 3.67597 4.77529 3.6913 4.66663H8.3113C8.35646 4.98357 8.33591 5.30641 8.25094 5.61506C8.16597 5.92372 8.01839 6.21159 7.81739 6.46077C7.61639 6.70994 7.36626 6.91508 7.08257 7.06344C6.79888 7.21179 6.48769 7.30018 6.16837 7.3231C5.84905 7.34602 5.52843 7.30299 5.22646 7.19668C4.92449 7.09037 4.64762 6.92306 4.41309 6.70515C4.17855 6.48724 3.99137 6.22341 3.86318 5.93005C3.73499 5.63669 3.66855 5.3201 3.66797 4.99996ZM12.0013 12.3333C12.0021 11.6447 11.8603 10.9635 11.5848 10.3324C11.3093 9.70134 10.9061 9.13417 10.4006 8.66663H11.0006C11.9731 8.66663 12.9057 9.05293 13.5934 9.74057C14.281 10.4282 14.6673 11.3608 14.6673 12.3333V12.6666C14.6673 12.8434 14.5971 13.013 14.472 13.138C14.347 13.2631 14.1774 13.3333 14.0006 13.3333H11.8873C11.9606 13.1246 12.0006 12.9 12.0006 12.6666L12.0013 12.3333Z" fill="#BB9769"/>
<path fill-rule="evenodd" clip-rule="evenodd" d="M8.10932 4C7.92019 3.60079 7.62163 3.26347 7.24834 3.02726C6.87506 2.79105 6.44239 2.66565 6.00065 2.66565C5.55891 2.66565 5.12624 2.79105 4.75296 3.02726C4.37967 3.26347 4.08111 3.60079 3.89198 4H8.10932ZM1.33398 12.6667C1.33398 12.8435 1.40422 13.013 1.52925 13.1381C1.65427 13.2631 1.82384 13.3333 2.00065 13.3333H10.0007C10.1775 13.3333 10.347 13.2631 10.4721 13.1381C10.5971 13.013 10.6673 12.8435 10.6673 12.6667V12.3333C10.6673 11.3609 10.281 10.4282 9.59338 9.74061C8.90574 9.05297 7.97311 8.66667 7.00065 8.66667H5.00065C4.02819 8.66667 3.09556 9.05297 2.40793 9.74061C1.72029 10.4282 1.33398 11.3609 1.33398 12.3333V12.6667ZM8.83998 7.32C9.14265 6.95066 9.37398 6.52067 9.51465 6.052C9.71161 6.2055 9.94772 6.30061 10.1961 6.32649C10.4445 6.35237 10.6951 6.30798 10.9195 6.19837C11.1439 6.08877 11.3329 5.91836 11.4652 5.70655C11.5975 5.49474 11.6676 5.25005 11.6676 5.00033C11.6676 4.75062 11.5975 4.50592 11.4652 4.29411C11.3329 4.0823 11.1439 3.91189 10.9195 3.80229C10.6951 3.69269 10.4445 3.6483 10.1961 3.67418C9.94772 3.70006 9.71161 3.79516 9.51465 3.94867C9.41706 3.62263 9.27434 3.31184 9.09065 3.02533C9.44368 2.80303 9.84986 2.67944 10.2669 2.66744C10.6839 2.65545 11.0965 2.75548 11.4617 2.95712C11.827 3.15876 12.1315 3.45464 12.3435 3.81393C12.5555 4.17323 12.6674 4.5828 12.6673 5V6.33333C12.6673 6.59855 12.562 6.8529 12.3744 7.04044C12.1869 7.22798 11.9325 7.33333 11.6673 7.33333H9.00065C8.94682 7.33319 8.8931 7.32873 8.83998 7.32Z" fill="#57534E"/>
</svg>
