<svg width="24" height="25" viewBox="0 0 24 25" fill="none" xmlns="http://www.w3.org/2000/svg">
<path d="M14.0922 11.25L13.3422 13.75H9.9082L10.6582 11.25H14.0922Z" fill="#64748B"/>
<path fill-rule="evenodd" clip-rule="evenodd" d="M3.464 3.964C2 5.43 2 7.786 2 12.5C2 17.214 2 19.571 3.464 21.035C4.93 22.5 7.286 22.5 12 22.5C16.714 22.5 19.071 22.5 20.535 21.035C22 19.572 22 17.214 22 12.5C22 7.786 22 5.429 20.535 3.964C19.072 2.5 16.714 2.5 12 2.5C7.286 2.5 4.929 2.5 3.464 3.964ZM11.216 6.782C11.4064 6.83934 11.5662 6.96993 11.6604 7.14507C11.7545 7.32022 11.7752 7.52558 11.718 7.716L11.108 9.75H14.542L15.282 7.285C15.3445 7.10115 15.4758 6.94869 15.6483 6.85969C15.8209 6.77068 16.0213 6.75207 16.2073 6.80777C16.3933 6.86347 16.5504 6.98914 16.6457 7.15834C16.7409 7.32754 16.7669 7.52708 16.718 7.715L16.108 9.75H18C18.1989 9.75 18.3897 9.82902 18.5303 9.96967C18.671 10.1103 18.75 10.3011 18.75 10.5C18.75 10.6989 18.671 10.8897 18.5303 11.0303C18.3897 11.171 18.1989 11.25 18 11.25H15.658L14.908 13.75H17C17.1989 13.75 17.3897 13.829 17.5303 13.9697C17.671 14.1103 17.75 14.3011 17.75 14.5C17.75 14.6989 17.671 14.8897 17.5303 15.0303C17.3897 15.171 17.1989 15.25 17 15.25H14.458L13.718 17.715C13.6555 17.8988 13.5242 18.0513 13.3517 18.1403C13.1791 18.2293 12.9787 18.2479 12.7927 18.1922C12.6067 18.1365 12.4496 18.0109 12.3543 17.8417C12.2591 17.6725 12.2331 17.4729 12.282 17.285L12.892 15.25H9.458L8.718 17.715C8.69263 17.8126 8.64786 17.904 8.58636 17.9839C8.52486 18.0637 8.44789 18.1304 8.36005 18.1798C8.27222 18.2293 8.17532 18.2605 8.07514 18.2716C7.97496 18.2828 7.87356 18.2736 7.777 18.2447C7.68043 18.2158 7.59069 18.1677 7.51313 18.1034C7.43557 18.039 7.37178 17.9596 7.32557 17.87C7.27937 17.7805 7.2517 17.6825 7.24421 17.582C7.23672 17.4814 7.24958 17.3804 7.282 17.285L7.892 15.25H6C5.80109 15.25 5.61032 15.171 5.46967 15.0303C5.32902 14.8897 5.25 14.6989 5.25 14.5C5.25 14.3011 5.32902 14.1103 5.46967 13.9697C5.61032 13.829 5.80109 13.75 6 13.75H8.342L9.092 11.25H7C6.80109 11.25 6.61032 11.171 6.46967 11.0303C6.32902 10.8897 6.25 10.6989 6.25 10.5C6.25 10.3011 6.32902 10.1103 6.46967 9.96967C6.61032 9.82902 6.80109 9.75 7 9.75H9.542L10.282 7.285C10.3103 7.19064 10.3569 7.10277 10.4191 7.02642C10.4814 6.95007 10.5581 6.88673 10.6448 6.84002C10.7315 6.79331 10.8266 6.76414 10.9246 6.75419C11.0226 6.74423 11.1216 6.75368 11.216 6.782Z" fill="#64748B"/>
</svg>
