<svg width="68" height="68" viewBox="0 0 68 68" fill="none" xmlns="http://www.w3.org/2000/svg">
<path fill-rule="evenodd" clip-rule="evenodd" d="M67.3327 33.9994C67.3327 52.4088 52.4088 67.3327 33.9994 67.3327C15.5899 67.3327 0.666017 52.4088 0.666017 33.9994C0.666016 15.5899 15.5899 0.666017 33.9994 0.666019C52.4088 0.666021 67.3327 15.5899 67.3327 33.9994ZM33.9994 19.8327C31.6982 19.8327 29.8327 21.6982 29.8327 23.9994C29.8327 25.3801 28.7134 26.4994 27.3327 26.4994C25.952 26.4994 24.8327 25.3801 24.8327 23.9994C24.8327 18.9367 28.9367 14.8327 33.9994 14.8327C39.062 14.8327 43.166 18.9367 43.166 23.9994C43.166 25.8205 42.6324 27.5246 41.7121 28.9548C41.1357 29.8506 40.4618 30.7058 39.8403 31.4781L39.5052 31.8935C38.9896 32.5317 38.5163 33.1175 38.0789 33.7186C37.0003 35.201 36.4994 36.315 36.4994 37.3327L36.4994 38.9994C36.4994 40.3801 35.3801 41.4994 33.9994 41.4994C32.6186 41.4994 31.4994 40.3801 31.4994 38.9994L31.4994 37.3327C31.4994 34.6685 32.8074 32.4653 34.0359 30.7769C34.555 30.0634 35.1238 29.3598 35.641 28.72L35.9448 28.3436C36.5621 27.5765 37.0876 26.9015 37.5074 26.2492C37.924 25.6016 38.166 24.8326 38.166 23.9994C38.166 21.6982 36.3005 19.8327 33.9994 19.8327ZM36.4994 47.3327C36.4994 45.952 35.3801 44.8327 33.9994 44.8327C32.6186 44.8327 31.4994 45.952 31.4994 47.3327L31.4994 50.666C31.4994 52.0467 32.6186 53.166 33.9994 53.166C35.3801 53.166 36.4994 52.0467 36.4994 50.666L36.4994 47.3327Z" fill="#E11D48"/>
</svg>
