<svg width="64" height="64" viewBox="0 0 64 64" fill="none" xmlns="http://www.w3.org/2000/svg">
<path fill-rule="evenodd" clip-rule="evenodd" d="M58.6673 32.0007C58.6673 46.7283 46.7282 58.6673 32.0007 58.6673C17.2731 58.6673 5.33399 46.7282 5.33399 32.0007C5.33398 17.2731 17.2731 5.33399 32.0007 5.33399C46.7282 5.33399 58.6673 17.2731 58.6673 32.0007ZM32.0007 20.6673C30.1597 20.6673 28.6673 22.1597 28.6673 24.0007C28.6673 25.1052 27.7719 26.0007 26.6673 26.0007C25.5627 26.0007 24.6673 25.1052 24.6673 24.0007C24.6673 19.9506 27.9506 16.6673 32.0007 16.6673C36.0507 16.6673 39.334 19.9506 39.334 24.0007C39.334 25.4576 38.9071 26.8208 38.1708 27.965C37.7097 28.6816 37.1706 29.3658 36.6734 29.9837L36.4053 30.316C35.9928 30.8265 35.6142 31.2952 35.2643 31.7761C34.4014 32.962 34.0007 33.8532 34.0007 34.6673L34.0007 36.0007C34.0007 37.1052 33.1052 38.0007 32.0007 38.0007C30.8961 38.0007 30.0007 37.1052 30.0007 36.0007L30.0007 34.6673C30.0007 32.5359 31.0471 30.7734 32.0299 29.4227C32.4452 28.8519 32.9002 28.289 33.314 27.7772L33.557 27.4761C34.0509 26.8623 34.4713 26.3224 34.8071 25.8005C35.1404 25.2825 35.334 24.6672 35.334 24.0007C35.334 22.1597 33.8416 20.6673 32.0007 20.6673ZM34.0007 42.6673C34.0007 41.5628 33.1052 40.6673 32.0007 40.6673C30.8961 40.6673 30.0007 41.5628 30.0007 42.6673L30.0007 45.334C30.0007 46.4386 30.8961 47.334 32.0007 47.334C33.1052 47.334 34.0007 46.4386 34.0007 45.334L34.0007 42.6673Z" fill="#6366F1"/>
</svg>
