<svg width="24" height="25" viewBox="0 0 24 25" fill="none" xmlns="http://www.w3.org/2000/svg">
<path fill-rule="evenodd" clip-rule="evenodd" d="M21 10.6506L21 18.4671C21 20.6945 19.2091 22.5002 17 22.5002L7 22.5002C4.79086 22.5002 3 20.6945 3 18.4671L3 10.6506C3 9.43962 3.53965 8.29274 4.46986 7.52677L9.46986 3.40959C10.9423 2.19713 13.0577 2.19713 14.5301 3.40959L19.5301 7.52677C20.4604 8.29274 21 9.43962 21 10.6506ZM10 17.7502C9.58579 17.7502 9.25 18.086 9.25 18.5002C9.25 18.9145 9.58579 19.2502 10 19.2502L14 19.2502C14.4142 19.2502 14.75 18.9145 14.75 18.5002C14.75 18.086 14.4142 17.7502 14 17.7502L10 17.7502Z" fill="#64748B"/>
</svg>
