<svg width="26" height="25" viewBox="0 0 26 25" fill="none" xmlns="http://www.w3.org/2000/svg">
<path fill-rule="evenodd" clip-rule="evenodd" d="M25.5 12.5C25.5 19.4036 19.9036 25 13 25C6.09644 25 0.500001 19.4036 0.5 12.5C0.5 5.59644 6.09644 5.63148e-07 13 1.25783e-06C19.9036 1.95251e-06 25.5 5.59644 25.5 12.5ZM14.25 6.25C14.25 6.94036 13.6904 7.5 13 7.5C12.3096 7.5 11.75 6.94036 11.75 6.25C11.75 5.55965 12.3096 5 13 5C13.6904 5 14.25 5.55965 14.25 6.25ZM11.75 9.0625C11.2322 9.0625 10.8125 9.48223 10.8125 10C10.8125 10.5178 11.2322 10.9375 11.75 10.9375L12.0625 10.9375L12.0625 18.75C12.0625 19.2678 12.4822 19.6875 13 19.6875C13.5178 19.6875 13.9375 19.2678 13.9375 18.75L13.9375 10C13.9375 9.48223 13.5178 9.0625 13 9.0625L11.75 9.0625Z" fill="currentColor"/>
</svg>
