<svg width="80" height="80" viewBox="0 0 80 80" fill="none" xmlns="http://www.w3.org/2000/svg">
<path fill-rule="evenodd" clip-rule="evenodd" d="M40.0003 73.3346C58.4098 73.3346 73.3337 58.4108 73.3337 40.0013C73.3337 21.5918 58.4098 6.66797 40.0003 6.66797C21.5908 6.66797 6.66699 21.5918 6.66699 40.0013C6.66699 58.4108 21.5908 73.3346 40.0003 73.3346ZM42.5003 26.668C42.5003 25.2873 41.381 24.168 40.0003 24.168C38.6196 24.168 37.5003 25.2873 37.5003 26.668L37.5003 30.0013C37.5003 31.382 38.6196 32.5013 40.0003 32.5013C41.381 32.5013 42.5003 31.382 42.5003 30.0013L42.5003 26.668ZM42.5003 38.3346C42.5003 36.9539 41.381 35.8346 40.0003 35.8346C38.6196 35.8346 37.5003 36.9539 37.5003 38.3346L37.5003 53.3346C37.5003 54.7154 38.6196 55.8346 40.0003 55.8346C41.381 55.8346 42.5003 54.7154 42.5003 53.3346L42.5003 38.3346Z" fill="#94A3B8"/>
</svg>
