<svg width="22" height="22" viewBox="0 0 22 22" fill="none" xmlns="http://www.w3.org/2000/svg">
<path d="M18.3606 3.66762L12.8051 1.35827C11.6559 0.880576 10.3441 0.880577 9.19494 1.35827L3.63938 3.66762C2.03437 4.33479 1 5.82344 1 7.46617V14.5338C1 16.1766 2.03437 17.6652 3.63939 18.3324L9.19494 20.6417C10.3441 21.1194 11.6559 21.1194 12.8051 20.6417L18.3606 18.3324C19.9656 17.6652 21 16.1766 21 14.5338V7.46617C21 5.82344 19.9656 4.33479 18.3606 3.66762Z" fill="black" stroke="black" stroke-width="0.952381" stroke-linecap="round" stroke-linejoin="round"/>
<path d="M11 10.0476V20.5238" stroke="black" stroke-width="1.42857" stroke-linecap="square" stroke-linejoin="round" stroke-dasharray="2.38 2.38"/>
<path d="M20.5242 11L11.0004 15.2857L1.47656 11" stroke="#C88C45" stroke-width="1.42857" stroke-linecap="round" stroke-linejoin="round" stroke-dasharray="2.38 2.38"/>
<path d="M20.5242 8.6189L11.0004 12.9046L1.47656 8.6189" stroke="#C88C45" stroke-width="1.42857" stroke-linecap="round" stroke-linejoin="round"/>
<path d="M20.0484 5.76172L11.0007 10.0474L1.95312 5.76172" stroke="#484F5E" stroke-width="1.42857" stroke-linecap="round" stroke-linejoin="round"/>
</svg>
