<svg width="16" height="17" viewBox="0 0 16 17" fill="none" xmlns="http://www.w3.org/2000/svg">
<path fill-rule="evenodd" clip-rule="evenodd" d="M12.0005 6.64815C12.0005 8.93911 9.50049 11.8333 8.00049 11.8333C6.50049 11.8333 4.00049 8.93911 4.00049 6.64815C4.00049 4.35719 5.79135 2.5 8.00049 2.5C10.2096 2.5 12.0005 4.35719 12.0005 6.64815ZM9.33382 6.5C9.33382 7.23638 8.73687 7.83333 8.00049 7.83333C7.26411 7.83333 6.66715 7.23638 6.66715 6.5C6.66715 5.76362 7.26411 5.16667 8.00049 5.16667C8.73687 5.16667 9.33382 5.76362 9.33382 6.5ZM3.88832 11.1667H4.77957C5.8243 12.3443 7.0592 13.1667 7.99943 13.1667C8.93966 13.1667 10.1746 12.3443 11.2193 11.1667H12.1105C12.6488 11.1667 13.1343 11.4904 13.3413 11.9873L13.8969 13.3206C14.2628 14.1988 13.6175 15.1667 12.6661 15.1667H3.33277C2.38133 15.1667 1.73606 14.1988 2.102 13.3206L2.65755 11.9873C2.86458 11.4904 3.35005 11.1667 3.88832 11.1667Z" fill="#94A3B8"/>
</svg>
