<svg width="25" height="24" viewBox="0 0 25 24" fill="none" xmlns="http://www.w3.org/2000/svg">
<path d="M20.1273 20.5444H19.3567V19.546L18.9714 19.2619H9.06016L8.67203 19.5516V20.5444H8.46953L8.45828 19.7513L8.12078 19.546L7.70734 19.7907C7.69047 19.8019 7.67078 19.8076 7.65109 19.8076C7.63141 19.8076 7.61172 19.8019 7.59203 19.7907L7.18141 19.546L6.77078 19.7907C6.75391 19.8019 6.73141 19.8076 6.71172 19.8076C6.69203 19.8076 6.66953 19.8019 6.65266 19.7907L6.24203 19.546L5.89047 19.7766V20.5444H4.87234C4.74578 20.5444 4.64453 20.6457 4.64453 20.7722C4.64453 20.8988 4.74578 21.0001 4.87234 21.0001H20.1273C20.2539 21.0001 20.3552 20.8988 20.3552 20.7722C20.3552 20.6485 20.2511 20.5444 20.1273 20.5444ZM10.1261 20.5444H9.43422V20.0747C9.43422 19.861 9.58891 19.6866 9.78016 19.6866C9.97141 19.6866 10.1261 19.861 10.1261 20.0747V20.5444ZM11.8277 20.5444H11.133V20.0747C11.133 19.861 11.2877 19.6866 11.4789 19.6866C11.6702 19.6866 11.8248 19.861 11.8248 20.0747V20.5444H11.8277ZM13.5292 20.5444H12.8345V20.0747C12.8345 19.861 12.9892 19.6866 13.1805 19.6866C13.3717 19.6866 13.5264 19.861 13.5264 20.0747V20.5444H13.5292ZM15.2308 20.5444H14.5361V20.0747C14.5361 19.861 14.6908 19.6866 14.882 19.6866C15.0733 19.6866 15.228 19.861 15.228 20.0747V20.5444H15.2308ZM16.9323 20.5444H16.2377V20.0747C16.2377 19.861 16.3923 19.6866 16.5836 19.6866C16.7748 19.6866 16.9295 19.861 16.9295 20.0747V20.5444H16.9323ZM18.6311 20.5444H17.9364V20.0747C17.9364 19.861 18.0911 19.6866 18.2823 19.6866C18.4736 19.6866 18.6283 19.861 18.6283 20.0747V20.5444H18.6311Z" fill="#BB9769"/>
<path d="M14.0325 11.4178C14.1197 11.4178 14.2041 11.4122 14.2913 11.3981L14.3672 11.3644C14.3672 11.3644 14.3082 11.249 14.2997 11.2378C14.2463 11.1365 14.1872 11.0409 14.1169 10.9481V10.0594C14.1169 10.0003 14.0691 9.95248 14.01 9.95248C13.951 9.95248 13.9032 10.0003 13.9032 10.0594V10.9509C13.8329 11.0437 13.7738 11.1422 13.726 11.2322L13.6416 11.3728L13.7344 11.3897C13.8357 11.4094 13.9341 11.4178 14.0325 11.4178Z" fill="#BB9769"/>
<path d="M18.6054 16.7559C18.6111 13.7803 16.0039 12.3515 14.8901 11.7412L14.8451 11.7159C14.6932 11.6315 14.5892 11.5725 14.5161 11.5247L14.4964 11.5106L14.4711 11.5162C14.3107 11.5556 14.1673 11.5753 14.0267 11.5753C13.8832 11.5753 13.7286 11.5556 13.5654 11.5134L13.5401 11.5078L13.5204 11.5218C13.4417 11.5725 13.3264 11.64 13.1351 11.7412C12.0214 12.3515 9.41699 13.7775 9.42543 16.7503L9.41699 17.6025H18.6139L18.6054 16.7559Z" fill="#BB9769"/>
<path d="M7.71312 18.9271C7.69625 18.9384 7.67375 18.944 7.65406 18.944C7.63438 18.944 7.61469 18.9384 7.595 18.9299L7.18438 18.6824L6.77656 18.9299C6.75969 18.9412 6.73719 18.9468 6.7175 18.9468C6.69781 18.9468 6.67531 18.9412 6.65844 18.9327L6.24781 18.6852L5.89062 18.9074V19.4952L6.18875 19.318C6.20563 19.3068 6.22813 19.3012 6.24781 19.3012C6.2675 19.3012 6.28719 19.3068 6.30406 19.3152L6.7175 19.5627L7.12531 19.3152C7.14219 19.304 7.16469 19.2984 7.18438 19.2984C7.20406 19.2984 7.22656 19.304 7.24344 19.3124L7.65406 19.5599L8.06187 19.3124C8.07875 19.3012 8.10125 19.2955 8.12094 19.2955C8.14062 19.2955 8.16031 19.3012 8.18 19.3096L8.47531 19.4896V19.439L8.46125 18.8793L8.12375 18.674L7.71312 18.9271Z" fill="#BB9769"/>
<path d="M8.47531 18.5756L8.46125 18.0187L8.12375 17.8134L7.71031 18.0581C7.69344 18.0693 7.67375 18.0749 7.65406 18.0749C7.63438 18.0749 7.61469 18.0693 7.595 18.0581L7.18438 17.8134L6.77375 18.0581C6.75688 18.0693 6.73438 18.0749 6.71469 18.0749C6.695 18.0749 6.6725 18.0693 6.65563 18.0581L6.245 17.8134L5.89062 18.0412V18.629L6.18875 18.449C6.20563 18.4378 6.22531 18.4321 6.245 18.4321C6.26469 18.4321 6.28719 18.4378 6.30406 18.449L6.7175 18.6965L7.12531 18.449C7.14219 18.4378 7.16469 18.4321 7.18438 18.4321C7.20406 18.4321 7.22656 18.4378 7.24344 18.4462L7.65406 18.6937L8.06187 18.4462C8.07875 18.4349 8.10125 18.4293 8.12094 18.4293C8.14062 18.4293 8.16031 18.4349 8.18 18.4434L8.47531 18.6206V18.5756Z" fill="#BB9769"/>
<path d="M8.47531 17.7094L8.46125 17.1497L8.12375 16.9444L7.71312 17.1919C7.69625 17.2031 7.67375 17.2087 7.65406 17.2087C7.63438 17.2087 7.61469 17.2031 7.595 17.1947L7.18438 16.9472L6.77656 17.1947C6.75969 17.2059 6.73719 17.2116 6.7175 17.2116C6.69781 17.2116 6.67531 17.2059 6.65844 17.1975L6.24781 16.95L5.89062 17.1722V17.76L6.18875 17.5828C6.20563 17.5716 6.22813 17.5659 6.24781 17.5659C6.2675 17.5659 6.28719 17.5716 6.30406 17.5828L6.7175 17.8275L7.12812 17.5828C7.145 17.5716 7.1675 17.5659 7.18719 17.5659C7.20687 17.5659 7.22937 17.5716 7.24625 17.5828L7.65406 17.8275L8.06469 17.5828C8.08156 17.5716 8.10125 17.5659 8.12375 17.5659C8.14344 17.5659 8.16312 17.5716 8.18281 17.5828L8.47813 17.76V17.7094H8.47531Z" fill="#BB9769"/>
<path d="M8.47531 16.8431L8.46125 16.2834L8.12375 16.0781L7.71312 16.3256C7.69625 16.3368 7.67375 16.3425 7.65406 16.3425C7.63438 16.3425 7.61469 16.3368 7.595 16.3284L7.18438 16.0809L6.77656 16.3284C6.75969 16.3397 6.73719 16.3453 6.7175 16.3453C6.69781 16.3453 6.67531 16.3397 6.65844 16.3312L6.24781 16.0781L5.89062 16.3059V16.8937L6.18875 16.7137C6.20563 16.7025 6.22813 16.6968 6.24781 16.6968C6.2675 16.6968 6.28719 16.7025 6.30406 16.7109L6.7175 16.9584L7.12531 16.7109C7.14219 16.6997 7.16469 16.694 7.18438 16.694C7.20406 16.694 7.22656 16.6997 7.24344 16.7081L7.65406 16.9556L8.06187 16.7081C8.07875 16.6968 8.10125 16.6912 8.12094 16.6912C8.14062 16.6912 8.16031 16.6968 8.18 16.7053L8.47531 16.8853V16.8431Z" fill="#BB9769"/>
<path d="M8.47531 15.344H5.89062V16.0275L6.18875 15.8475C6.20563 15.8362 6.22813 15.8306 6.24781 15.8306C6.2675 15.8306 6.28719 15.8362 6.30406 15.8475L6.7175 16.0921L7.12812 15.8475C7.145 15.8362 7.1675 15.8306 7.18719 15.8306C7.20687 15.8306 7.22937 15.8362 7.24625 15.8475L7.65687 16.0921L8.0675 15.8475C8.08437 15.8362 8.10406 15.8306 8.12656 15.8306C8.14625 15.8306 8.16594 15.8362 8.18563 15.8475L8.48094 16.0247V15.344H8.47531Z" fill="#BB9769"/>
<path d="M8.84414 14.6493H5.52539L5.57883 14.7365L5.86008 15.1443H8.5432L8.84414 14.6493Z" fill="#BB9769"/>
<path d="M8.90625 13.7689H8.14406V10.7061L8.11875 10.7033C7.80938 10.6639 7.49437 10.6443 7.18219 10.6443C6.87 10.6443 6.555 10.6639 6.24281 10.7033L6.22031 10.7061V13.7661H5.46094V14.4749H8.90906V13.7689H8.90625Z" fill="#BB9769"/>
<path d="M7.1841 6.61684C7.54129 6.61684 7.89848 6.65059 8.25285 6.7181L8.32035 6.73216V6.43966L8.29785 6.41153L8.27535 6.40591C8.10941 6.37216 7.94348 6.34966 7.77473 6.33278V5.07278C7.77473 4.91809 7.71285 4.76622 7.60035 4.65091C7.5441 4.59747 7.47941 4.55528 7.4091 4.52434V4.17841C7.4091 4.11934 7.38379 4.06028 7.3416 4.01809C7.32473 4.00122 7.30223 3.98997 7.28254 3.97872V3.09841C7.28254 3.04497 7.23754 2.99997 7.1841 2.99997C7.13066 2.99997 7.08566 3.04497 7.08566 3.09841V3.97591C7.00973 4.01247 6.9591 4.08841 6.9591 4.17559V4.52434C6.74254 4.61716 6.59348 4.82809 6.59348 5.07278V6.33278C6.42191 6.35247 6.24754 6.37497 6.07035 6.41153L6.04785 6.41716V6.73497L6.11535 6.72091C6.46691 6.65059 6.82691 6.61684 7.1841 6.61684Z" fill="#BB9769"/>
<path d="M7.18352 6.78842C6.85164 6.78842 6.51695 6.81936 6.18789 6.87561L6.10352 6.88967L6.2807 7.16811L6.30883 7.18217L6.3257 7.17936C6.62383 7.1428 6.91352 7.12592 7.18352 7.12592C7.45633 7.12592 7.73758 7.1428 8.0582 7.18217L8.07508 7.18498L8.26633 6.89248L8.18195 6.87842C7.85008 6.81655 7.51539 6.78842 7.18352 6.78842Z" fill="#BB9769"/>
<path d="M7.1832 9.8569C7.60227 9.8569 8.02133 9.89628 8.43477 9.97784L8.50227 9.9919V9.62347L8.47977 9.59534L8.45727 9.58972C8.3082 9.55878 8.15352 9.5419 8.00164 9.52222V7.37628L7.97633 7.37347C7.71477 7.34253 7.44758 7.32565 7.18039 7.32565C6.91602 7.32565 6.64883 7.34253 6.38445 7.37347L6.35914 7.37628V9.51659C6.20164 9.53628 6.04414 9.56159 5.88102 9.59253L5.86133 9.60097V9.9919L5.92883 9.97784C6.34227 9.89909 6.76695 9.8569 7.1832 9.8569Z" fill="#BB9769"/>
<path d="M7.18457 10.0312C6.79082 10.0312 6.39426 10.0678 6.00332 10.1409L5.91895 10.155L6.13832 10.4981L6.16645 10.5122L6.18332 10.5093C6.5152 10.4672 6.84988 10.4447 7.18176 10.4447C7.51363 10.4447 7.84832 10.4672 8.1802 10.5093L8.21676 10.515L8.4502 10.1578L8.36582 10.1409C7.97488 10.0678 7.57832 10.0312 7.18457 10.0312Z" fill="#BB9769"/>
<path d="M10.1544 18.5363C10.1544 18.3422 10.3091 18.1847 10.4975 18.1847C10.6859 18.1847 10.8406 18.3422 10.8406 18.5363V19.0594H11.8391V18.5363C11.8391 18.3422 11.9938 18.1847 12.1822 18.1847C12.3706 18.1847 12.5253 18.3422 12.5253 18.5363V19.0594H13.5209V18.5363C13.5209 18.3422 13.6756 18.1847 13.8641 18.1847C14.0525 18.1847 14.2072 18.3422 14.2072 18.5363V19.0594H15.2028V18.5363C15.2028 18.3422 15.3575 18.1847 15.5459 18.1847C15.7344 18.1847 15.8891 18.3422 15.8891 18.5363V19.0594H16.8875V18.5363C16.8875 18.3422 17.0394 18.1847 17.2278 18.1847C17.4163 18.1847 17.5709 18.3422 17.5709 18.5363V19.0594H18.9041V18.1116L18.6594 17.8106H9.36969L9.125 18.1116V19.0594H10.1572V18.5363H10.1544Z" fill="#BB9769"/>
</svg>
