<svg width="24" height="24" viewBox="0 0 24 24" fill="none" xmlns="http://www.w3.org/2000/svg">
<path fill-rule="evenodd" clip-rule="evenodd" d="M3.79708 6.44823L6.31919 6.45047C6.61131 5.98878 6.67685 5.41284 6.28067 4.9911C6.02121 4.71525 5.64463 4.48519 5.36264 4.33862C5.29575 4.30675 5.24958 4.23874 5.24958 4.15996V3.19797C5.24958 3.08866 5.16084 3 5.05093 3C4.94169 3 4.85228 3.08911 4.85228 3.19797V4.15412C4.8516 4.22572 4.81241 4.29463 4.74439 4.32964C4.46308 4.47509 4.0838 4.70762 3.82253 4.98638C3.41915 5.4171 3.48694 5.98541 3.79708 6.44823ZM4.86759 21C4.86759 18.4152 4.86759 15.8302 4.86759 13.2455H3V21H4.86759ZM12.2048 14.506L12.2053 21H15.4767V16.7112L17.5112 17.1401V21H18.7484V16.0924C16.5673 15.5636 14.386 15.0348 12.2048 14.506ZM11.808 14.5062C9.62688 15.035 7.446 15.5636 5.26489 16.0924V21H11.808V14.5062ZM11.808 14.1002V12.2806C9.62688 12.8094 7.446 13.3379 5.26489 13.8668V15.6864C7.446 15.1576 9.62688 14.629 11.808 14.1002ZM18.7484 13.8668C16.5673 13.3382 14.3864 12.8091 12.2053 12.2806V14.1002C14.3864 14.6288 16.5673 15.1578 18.7484 15.6864V13.8668ZM19.1457 13.2455V21H21V13.2455H19.1457ZM17.2626 10.4697L18.9813 10.9141C19.0747 10.9303 19.1457 11.0115 19.1457 11.1092V12.8495H20.605V9.27518C19.4907 9.27518 18.3768 9.27518 17.2626 9.27518V10.4697ZM12.2046 9.5701L12.2048 11.8745C14.386 12.4033 16.5673 12.9321 18.7484 13.4607C18.7484 12.7277 18.7484 11.9948 18.7484 11.2618C16.5673 10.6977 14.386 10.1339 12.2046 9.5701ZM11.808 9.5701C9.62688 10.1339 7.446 10.698 5.26489 11.2618V13.4607C7.446 12.9321 9.62688 12.4033 11.808 11.8745V9.5701ZM3.39505 9.27518V12.8495H4.86759V11.1092C4.86759 11.0115 4.93854 10.9303 5.03201 10.9141L6.73743 10.4733V9.27518C5.62323 9.27518 4.50925 9.27518 3.39505 9.27518ZM6.24621 8.87925V6.82575L3.88627 6.84169V8.87925H6.24621ZM17.7538 6.84169V8.87925H20.1137V6.82575L17.7538 6.84169ZM17.6511 6.45474L20.1815 6.44306C20.4775 5.97553 20.5509 5.41957 20.1482 4.9911C19.8869 4.71323 19.5067 4.48182 19.2241 4.33548C19.1563 4.30046 19.1173 4.23133 19.1173 4.15996L19.1171 3.19797C19.1171 3.08821 19.0286 3 18.9184 3C18.8092 3 18.7198 3.08911 18.7198 3.19797V4.15412C18.7198 4.2356 18.6702 4.30563 18.5997 4.33593C18.3196 4.48182 17.9475 4.71166 17.69 4.98638C17.306 5.39645 17.356 6.01392 17.6511 6.45474Z" fill="#BB9769"/>
</svg>
