<svg width="30" height="31" viewBox="0 0 30 31" fill="none" xmlns="http://www.w3.org/2000/svg">
<g clip-path="url(#clip0_4221_37072)">
<path fill-rule="evenodd" clip-rule="evenodd" d="M15.7625 28.2391C20.2475 23.6834 25.3644 16.5621 25.167 10.0723C25.0051 4.75907 20.5154 0.500122 15.0005 0.500122C9.5492 0.500122 5.0995 4.66136 4.84126 9.88884C4.52767 16.2361 10.0318 23.6556 14.2384 28.2391C14.4521 28.472 14.6791 28.6587 15.0005 28.6587C15.3218 28.6586 15.5405 28.4645 15.7625 28.2391ZM15.0005 3.26251C19.094 3.26251 22.4127 6.58128 22.4127 10.6748C22.4127 14.7683 19.094 18.0869 15.0005 18.0869C10.9069 18.0869 7.58828 14.7683 7.58828 10.6748C7.58828 6.58119 10.907 3.26251 15.0005 3.26251ZM22.2153 22.864C22.1452 22.8425 22.0801 22.8074 22.0238 22.7606C21.9674 22.7138 21.9208 22.6564 21.8867 22.5915C21.8527 22.5267 21.8318 22.4557 21.8253 22.3827C21.8188 22.3098 21.8268 22.2362 21.8488 22.1664C21.8709 22.0965 21.9066 22.0317 21.9538 21.9757C22.001 21.9197 22.0588 21.8736 22.124 21.8401C22.1891 21.8066 22.2602 21.7862 22.3332 21.7803C22.4063 21.7744 22.4797 21.783 22.5494 21.8056L22.8626 21.9228L22.8629 21.922C22.8899 21.9329 22.9172 21.9434 22.944 21.9547L22.9443 21.9539L23.4217 22.1474L23.424 22.1484C23.5623 22.1985 23.6749 22.3015 23.7372 22.4347C23.7995 22.5679 23.8063 22.7203 23.7561 22.8586C23.706 22.9968 23.603 23.1094 23.4698 23.1717C23.3366 23.234 23.1841 23.2408 23.0459 23.1907L23.0436 23.1897L22.5274 22.9834L22.5277 22.9826L22.4503 22.9514L22.4507 22.9507L22.2188 22.8652C22.2177 22.8647 22.2165 22.8643 22.2153 22.864ZM24.363 23.9089C24.3014 23.8701 24.2481 23.8196 24.206 23.7602C24.1639 23.7008 24.134 23.6337 24.1178 23.5627C24.1017 23.4917 24.0997 23.4182 24.112 23.3465C24.1243 23.2747 24.1505 23.2061 24.1893 23.1445C24.364 22.8671 24.707 22.8037 25.004 23.0035C25.7183 23.4838 25.9357 23.7135 26.3026 24.4302C26.3356 24.4949 26.3557 24.5655 26.3615 24.638C26.3673 24.7104 26.3587 24.7833 26.3363 24.8525C26.314 24.9217 26.2782 24.9858 26.231 25.0411C26.1839 25.0964 26.1263 25.1419 26.0615 25.175C25.9968 25.2081 25.9262 25.2281 25.8537 25.2339C25.7813 25.2397 25.7084 25.2312 25.6392 25.2088C25.57 25.1864 25.506 25.1506 25.4506 25.1035C25.3953 25.0563 25.3498 24.9987 25.3167 24.934C25.0486 24.4105 24.9074 24.2533 24.363 23.9089ZM25.2388 26.3353C25.2776 26.2737 25.3281 26.2203 25.3875 26.1783C25.4469 26.1362 25.514 26.1062 25.585 26.0901C25.656 26.074 25.7295 26.072 25.8012 26.0843C25.873 26.0965 25.9416 26.1228 26.0032 26.1616C26.2686 26.3287 26.3429 26.6643 26.1616 26.9503L26.1621 26.9506C25.7293 27.6241 25.045 28.1555 24.3119 28.5719C24.2486 28.6084 24.1786 28.6321 24.1061 28.6415C24.0336 28.6509 23.9599 28.6458 23.8894 28.6266C23.8188 28.6074 23.7527 28.5744 23.695 28.5296C23.6372 28.4848 23.5889 28.4289 23.5528 28.3653C23.5167 28.3017 23.4935 28.2316 23.4847 28.159C23.4758 28.0864 23.4814 28.0128 23.5011 27.9424C23.5208 27.872 23.5542 27.8061 23.5994 27.7487C23.6447 27.6912 23.7009 27.6433 23.7647 27.6077C24.3401 27.2808 24.8953 26.8694 25.2283 26.3512L25.2288 26.3514L25.2388 26.3353ZM22.0194 28.3751C22.158 28.3311 22.3083 28.3431 22.438 28.4087C22.5677 28.4743 22.6666 28.5882 22.7132 28.7259C22.7599 28.8636 22.7506 29.0141 22.6875 29.1451C22.6244 29.276 22.5124 29.377 22.3756 29.4262C21.6893 29.6592 21.0608 29.8312 20.3404 29.9848C20.1974 30.0128 20.0492 29.9834 19.9277 29.903C19.8062 29.8227 19.7212 29.6978 19.6909 29.5552C19.6607 29.4127 19.6877 29.2641 19.7662 29.1413C19.8446 29.0185 19.9682 28.9315 20.1102 28.8991C20.7557 28.7613 21.4134 28.5812 22.0194 28.3751ZM18.0957 29.2309C18.7971 29.148 19.0066 30.2442 18.1703 30.3404C17.4617 30.4219 16.8151 30.4728 16.0754 30.4998C16.0027 30.5023 15.9302 30.4906 15.862 30.4651C15.7939 30.4396 15.7314 30.401 15.6781 30.3514C15.6249 30.3018 15.582 30.2422 15.5518 30.176C15.5216 30.1097 15.5047 30.0382 15.5021 29.9655C15.4996 29.8928 15.5113 29.8203 15.5368 29.7521C15.5623 29.6839 15.6009 29.6214 15.6505 29.5682C15.7001 29.515 15.7597 29.472 15.826 29.4418C15.8922 29.4116 15.9637 29.3948 16.0364 29.3922C16.6724 29.3689 17.455 29.3094 18.0957 29.2309ZM13.9549 29.3919C14.0276 29.3945 14.0991 29.4114 14.1654 29.4416C14.2316 29.4718 14.2912 29.5147 14.3408 29.5679C14.3904 29.6212 14.429 29.6836 14.4545 29.7518C14.4799 29.82 14.4917 29.8925 14.4892 29.9652C14.4866 30.0379 14.4697 30.1094 14.4395 30.1756C14.4093 30.2418 14.3664 30.3014 14.3132 30.3511C14.2599 30.4007 14.1974 30.4393 14.1293 30.4648C14.0611 30.4902 13.9886 30.502 13.9159 30.4994C13.1912 30.4737 12.468 30.4177 11.748 30.3317C11.675 30.3238 11.6043 30.3015 11.54 30.2662C11.4757 30.2308 11.419 30.183 11.3732 30.1256C11.3275 30.0682 11.2936 30.0023 11.2734 29.9317C11.2533 29.8611 11.2474 29.7872 11.256 29.7143C11.2646 29.6414 11.2876 29.5709 11.3236 29.5069C11.3596 29.443 11.408 29.3868 11.4658 29.3416C11.5237 29.2964 11.5899 29.2632 11.6607 29.2438C11.7315 29.2244 11.8055 29.2192 11.8783 29.2285C12.5681 29.3102 13.2608 29.3647 13.9549 29.3919ZM9.87536 28.8974C10.0193 28.928 10.1453 29.0144 10.2255 29.1378C10.3057 29.2612 10.3337 29.4115 10.3031 29.5554C10.2726 29.6994 10.1861 29.8254 10.0627 29.9056C9.93932 29.9858 9.78911 30.0137 9.64513 29.9832C8.95428 29.8357 8.21724 29.6348 7.56137 29.4065C7.49213 29.383 7.42823 29.346 7.37337 29.2976C7.3185 29.2492 7.27375 29.1905 7.24169 29.1248C7.20963 29.059 7.1909 28.9876 7.18657 28.9146C7.18225 28.8416 7.19241 28.7684 7.21649 28.6994C7.24056 28.6303 7.27806 28.5667 7.32684 28.5122C7.37561 28.4577 7.43469 28.4134 7.50066 28.3818C7.56664 28.3503 7.63821 28.3321 7.71125 28.3283C7.78429 28.3245 7.85735 28.3352 7.92623 28.3598C8.55189 28.5777 9.20199 28.7526 9.87536 28.8974ZM6.22525 27.6068C6.35201 27.68 6.44471 27.8002 6.48313 27.9415C6.52156 28.0827 6.50258 28.2333 6.43035 28.3606C6.35812 28.4879 6.23849 28.5814 6.09756 28.6208C5.95662 28.6603 5.80582 28.6424 5.67804 28.571C4.92139 28.1412 4.22027 27.5949 3.79394 26.8914C3.71946 26.7659 3.69756 26.6161 3.73301 26.4745C3.76846 26.3329 3.85839 26.2111 3.98324 26.1355C4.10808 26.0599 4.25773 26.0367 4.39961 26.0709C4.54149 26.1051 4.66413 26.1939 4.74083 26.3181C5.05349 26.8342 5.65834 27.2846 6.22525 27.6068ZM4.68217 24.9208C4.61421 25.0509 4.49732 25.1488 4.35722 25.1928C4.21712 25.2367 4.06529 25.2233 3.93512 25.1553C3.80495 25.0874 3.70711 24.9705 3.66312 24.8304C3.61913 24.6903 3.6326 24.5384 3.70056 24.4083C3.99565 23.8439 4.46901 23.3798 5.009 22.9912C5.06804 22.9487 5.13487 22.9182 5.20567 22.9016C5.27647 22.8849 5.34986 22.8823 5.42165 22.894C5.49344 22.9057 5.56222 22.9315 5.62407 22.9697C5.68592 23.008 5.73962 23.0581 5.78211 23.1171C5.82461 23.1762 5.85505 23.243 5.87172 23.3138C5.88838 23.3846 5.89094 23.458 5.87924 23.5298C5.86754 23.6016 5.84182 23.6704 5.80354 23.7322C5.76526 23.7941 5.71517 23.8478 5.65614 23.8903C5.27047 24.1679 4.88897 24.5259 4.68217 24.9208ZM6.89938 23.1658C6.76114 23.2153 6.60889 23.2079 6.47612 23.1451C6.34335 23.0824 6.24094 22.9695 6.19142 22.8313C6.1419 22.693 6.14932 22.5408 6.21206 22.408C6.27479 22.2752 6.3877 22.1728 6.52594 22.1233L7.45788 21.7977L7.45984 21.7971C7.59887 21.7554 7.74871 21.7699 7.87716 21.8375C8.00561 21.9051 8.10243 22.0204 8.14682 22.1585C8.1912 22.2967 8.17962 22.4468 8.11455 22.5766C8.04948 22.7063 7.93611 22.8054 7.79881 22.8524L7.7972 22.853L6.89938 23.1658ZM16.3998 4.58224C16.4079 4.56886 16.4201 4.55844 16.4345 4.55249C16.449 4.54655 16.465 4.5454 16.4801 4.54922C17.7961 4.86595 18.9555 5.59645 19.8096 6.60454C19.8161 6.61205 19.8211 6.62084 19.824 6.63036C19.827 6.63987 19.8279 6.6499 19.8268 6.6598C19.7019 7.90483 19.2188 8.51096 19.1059 9.44562C19.0023 10.3032 19.4067 10.7519 19.3313 11.3811C19.2261 12.2588 18.482 12.7322 18.5331 13.6856C18.557 14.1323 18.9934 14.7414 19.3257 15.1628C19.3372 15.1773 19.3429 15.1957 19.3415 15.2142C19.3401 15.2327 19.3319 15.25 19.3183 15.2627C16.8421 17.5947 12.9555 17.54 10.5453 15.1298C7.84881 12.4333 8.15926 8.00517 11.1402 5.69509C11.1523 5.68554 11.1671 5.68006 11.1825 5.67942C11.1978 5.67878 11.2131 5.68301 11.2259 5.69152C11.239 5.69978 11.2491 5.71198 11.2548 5.72637C11.2605 5.74076 11.2615 5.75659 11.2577 5.77158C11.0358 6.67135 11.5253 6.6795 11.5388 7.15744C11.5508 7.58148 11.0349 8.0786 11.2387 8.74102C11.3813 9.20478 12.0247 9.77695 12.441 10.1168C12.8761 10.4717 13.3153 10.7902 13.2283 11.3979C13.1873 11.6843 12.8375 11.9962 12.8883 12.4561C12.9669 13.1686 13.4934 13.4823 13.7427 14.0731C13.9616 14.5919 13.6722 15.513 14.1593 15.6947C14.5233 15.8304 14.7193 15.5668 14.8338 15.26C14.9604 14.9209 14.9344 14.7717 15.1506 14.2369C15.5975 13.1315 15.9281 12.9506 16.4436 12.0921C16.7213 11.6298 16.4388 11.3646 16.3986 10.7612C16.3839 10.5406 16.3696 10.3257 16.2371 10.1148C15.9514 9.66048 15.5182 9.61837 15.0798 9.53807C14.7713 9.48153 13.3816 8.65986 13.2246 8.44228C13.1691 8.36528 13.1058 8.24609 13.1199 8.16188C13.2086 7.63759 13.5133 7.69998 13.9176 7.67392C14.4889 7.63708 14.905 7.76162 15.5163 7.68504C15.9966 7.62485 16.9301 7.22323 16.974 6.59095C17.0313 5.76546 16.2193 5.67115 16.1175 5.57157C15.6811 5.14516 16.167 4.95806 16.3998 4.58224Z" fill="#64748B"/>
</g>
<defs>
<clipPath id="clip0_4221_37072">
<rect width="30" height="30" fill="white" transform="translate(0 0.500122)"/>
</clipPath>
</defs>
</svg>
