<svg xmlns="http://www.w3.org/2000/svg" width="20" height="22" viewBox="0 0 20 22" fill="none">
<path fill-rule="evenodd" clip-rule="evenodd" d="M6.75 4.50012C6.75 3.25748 7.75736 2.25012 9 2.25012L11 2.25012C12.2426 2.25012 13.25 3.25748 13.25 4.50012L13.25 5.50012L6.75 5.50012L6.75 4.50012ZM5.25 5.50012L5.25 4.50012C5.25 2.42905 6.92893 0.750123 9 0.750123L11 0.750123C13.0711 0.750123 14.75 2.42906 14.75 4.50012L14.75 5.50012L16 5.50012C18.2091 5.50012 20 7.29099 20 9.50012L20 17.5001C20 19.7093 18.2091 21.5001 16 21.5001L4 21.5001C1.79086 21.5001 5.03983e-07 19.7093 4.45259e-07 17.5001L2.32598e-07 9.50012C1.73873e-07 7.29098 1.79086 5.50012 4 5.50012L5.25 5.50012ZM10 9.75012C10.4142 9.75012 10.75 10.0859 10.75 10.5001L10.75 12.7501L13 12.7501C13.4142 12.7501 13.75 13.0859 13.75 13.5001C13.75 13.9143 13.4142 14.2501 13 14.2501L10.75 14.2501L10.75 16.5001C10.75 16.9143 10.4142 17.2501 10 17.2501C9.58579 17.2501 9.25 16.9143 9.25 16.5001L9.25 14.2501L7 14.2501C6.58579 14.2501 6.25 13.9143 6.25 13.5001C6.25 13.0859 6.58579 12.7501 7 12.7501L9.25 12.7501L9.25 10.5001C9.25 10.0859 9.58579 9.75012 10 9.75012Z" fill="#64748B"/>
<script xmlns=""/></svg>