<svg width="25" height="25" viewBox="0 0 25 25" fill="none" xmlns="http://www.w3.org/2000/svg">
<path d="M8.89824 5.75037L16.1023 5.75037C17.2647 4.18019 15.6986 1.98264 13.7532 2.61022L12.8254 2.90951C12.6142 2.97765 12.3863 2.97765 12.1751 2.90951L11.2473 2.61021C9.30191 1.98264 7.73579 4.18018 8.89824 5.75037Z" fill="currentColor"/>
<path fill-rule="evenodd" clip-rule="evenodd" d="M15.9941 7.25037L9.00643 7.25037C7.68715 7.98084 6.65648 9.20049 6.18453 10.7107L4.93453 14.7107C3.72716 18.5743 6.61357 22.5004 10.6614 22.5004L14.3391 22.5004C18.387 22.5004 21.2734 18.5743 20.066 14.7107L18.816 10.7107C18.3441 9.20049 17.3134 7.98084 15.9941 7.25037ZM15.8643 19.1561C16.2264 18.9551 16.357 18.4985 16.156 18.1364C15.955 17.7742 15.4984 17.6436 15.1363 17.8446C13.9672 18.4936 13.1658 18.7505 12.4404 18.7476C11.7188 18.7446 10.9609 18.484 9.8781 17.8525C9.52028 17.6438 9.06106 17.7647 8.85239 18.1225C8.64372 18.4803 8.76462 18.9396 9.12244 19.1482C10.294 19.8315 11.3251 20.243 12.4343 20.2476C13.5398 20.252 14.6112 19.8516 15.8643 19.1561Z" fill="currentColor"/>
</svg>
