<svg width="36" height="36" viewBox="0 0 36 36" fill="none" xmlns="http://www.w3.org/2000/svg">
<path fill-rule="evenodd" clip-rule="evenodd" d="M33.4394 26.546H27.6557C27.582 26.5462 27.509 26.5318 27.4408 26.5037C27.3727 26.4756 27.3107 26.4343 27.2586 26.3822C27.2065 26.3301 27.1652 26.2682 27.137 26.2C27.1089 26.1319 27.0946 26.0588 27.0948 25.9851C27.0948 25.9114 27.1092 25.8385 27.1374 25.7704C27.1656 25.7024 27.2069 25.6405 27.259 25.5884C27.3111 25.5363 27.373 25.495 27.441 25.4668C27.5091 25.4386 27.582 25.4242 27.6557 25.4242H32.8558C32.5697 21.6615 29.4156 18.6867 25.5779 18.6867C24.7922 18.6867 24.0201 18.8094 23.2822 19.0546C22.9892 19.1499 22.6713 18.9933 22.5737 18.6981C22.476 18.4051 22.635 18.0873 22.9302 17.9896C23.7817 17.708 24.6719 17.5649 25.5779 17.5649C30.2218 17.5649 34.0003 21.3413 34.0003 25.9851C34.0004 26.0588 33.9859 26.1317 33.9577 26.1998C33.9295 26.2679 33.8882 26.3297 33.8361 26.3818C33.784 26.4339 33.7222 26.4752 33.6541 26.5034C33.586 26.5315 33.5131 26.546 33.4394 26.546Z" fill="#BB9769"/>
<path fill-rule="evenodd" clip-rule="evenodd" d="M25.577 12.0583C24.1033 12.0583 22.902 13.2595 22.902 14.7355C22.902 16.2115 24.1033 17.4105 25.577 17.4105C27.0508 17.4105 28.2543 16.2093 28.2543 14.7355C28.2543 13.2618 27.053 12.0583 25.577 12.0583ZM25.577 18.5324C23.4834 18.5324 21.7803 16.8293 21.7803 14.7356C21.7803 12.642 23.4834 10.9365 25.577 10.9365C27.6707 10.9365 29.3761 12.6396 29.3761 14.7356C29.3761 16.8316 27.6708 18.5324 25.577 18.5324Z" fill="#BB9769"/>
<path fill-rule="evenodd" clip-rule="evenodd" d="M25.8579 29.7929H20.1036C20.03 29.793 19.957 29.7785 19.889 29.7503C19.8209 29.7221 19.759 29.6808 19.707 29.6288C19.6549 29.5767 19.6135 29.5148 19.5854 29.4468C19.5572 29.3787 19.5427 29.3058 19.5427 29.2321C19.5427 28.9233 19.7947 28.6712 20.1036 28.6712H25.2765C24.9881 24.9085 21.834 21.9337 17.9963 21.9337C17.0993 21.9337 16.2228 22.0949 15.3917 22.4128C15.1033 22.5219 14.7785 22.3765 14.6674 22.0881C14.5583 21.7998 14.7014 21.475 14.9921 21.3638C15.9504 20.9982 16.9609 20.812 17.9964 20.812C22.6402 20.812 26.4188 24.5883 26.4188 29.2322C26.4188 29.3059 26.4043 29.3788 26.3762 29.4469C26.348 29.5149 26.3067 29.5768 26.2546 29.6289C26.2025 29.681 26.1406 29.7223 26.0726 29.7504C26.0045 29.7786 25.9315 29.7931 25.8579 29.793V29.7929Z" fill="#BB9769"/>
<path fill-rule="evenodd" clip-rule="evenodd" d="M17.997 15.3057C16.5232 15.3057 15.322 16.507 15.322 17.983C15.322 19.459 16.5232 20.658 17.997 20.658C19.4707 20.658 20.6742 19.4567 20.6742 17.983C20.6742 16.5092 19.473 15.3057 17.997 15.3057ZM17.997 21.7798C15.9033 21.7798 14.2002 20.0767 14.2002 17.983C14.2002 15.8894 15.9033 14.1863 17.997 14.1863C20.0906 14.1863 21.796 15.8894 21.796 17.983C21.796 20.0767 20.0907 21.7798 17.997 21.7798Z" fill="#BB9769"/>
<path fill-rule="evenodd" clip-rule="evenodd" d="M3.14452 31.9187H17.7004C17.412 28.1559 14.2579 25.1812 10.4225 25.1812C6.58712 25.1812 3.43059 28.1559 3.14452 31.9187ZM18.2817 33.0404H2.56092C2.48725 33.0405 2.4143 33.026 2.34623 32.9978C2.27816 32.9696 2.21631 32.9283 2.16422 32.8762C2.11213 32.8241 2.07081 32.7623 2.04263 32.6942C2.01446 32.6261 1.99997 32.5532 2 32.4795C2 27.838 5.77866 24.0593 10.4224 24.0593C15.0662 24.0593 18.8426 27.8379 18.8426 32.4795C18.8426 32.5532 18.8282 32.6261 18.8 32.6942C18.7718 32.7623 18.7305 32.8241 18.6784 32.8762C18.6263 32.9283 18.5644 32.9696 18.4964 32.9978C18.4283 33.026 18.3553 33.0405 18.2817 33.0404Z" fill="#BB9769"/>
<path fill-rule="evenodd" clip-rule="evenodd" d="M10.4202 18.5522C8.94417 18.5522 7.74294 19.7534 7.74294 21.2295C7.74294 22.7056 8.94417 23.9045 10.4202 23.9045C11.8962 23.9045 13.0952 22.7033 13.0952 21.2295C13.0952 19.7557 11.8939 18.5522 10.4202 18.5522ZM10.4202 25.0263C8.32653 25.0263 6.62109 23.3232 6.62109 21.2295C6.62109 19.1359 8.32645 17.4304 10.4202 17.4304C12.5139 17.4304 14.2169 19.1358 14.2169 21.2295C14.2169 23.3232 12.5138 25.0263 10.4202 25.0263Z" fill="#BB9769"/>
<path fill-rule="evenodd" clip-rule="evenodd" d="M10.6043 9.17549H17.2078C17.5166 9.17549 17.7687 9.42527 17.7687 9.73409V11.0512L21.8675 7.61545L17.7687 4.17741V5.49448C17.7687 5.8033 17.5167 6.05541 17.2078 6.05541H10.6043V9.17549ZM17.7232 12.2297C17.5688 12.2297 17.4144 12.1957 17.2668 12.1275C16.883 11.9481 16.6468 11.5757 16.6468 11.1533V10.2949H10.5565C9.96388 10.2949 9.48242 9.81348 9.48242 9.22308V6.00766C9.48242 5.41502 9.9638 4.93356 10.5565 4.93356H16.6468V4.07519C16.6468 3.6551 16.883 3.28043 17.2668 3.10099C17.6482 2.92387 18.0865 2.98291 18.409 3.25312L22.6326 6.79105C22.8802 6.99997 23.0164 7.29061 23.0164 7.61537C23.0164 7.93781 22.8802 8.23077 22.6326 8.43737L18.409 11.9775C18.2114 12.1433 17.9685 12.2297 17.7232 12.2297Z" fill="#BB9769"/>
</svg>
