<svg width="19" height="18" viewBox="0 0 19 18" fill="none" xmlns="http://www.w3.org/2000/svg">
<path d="M14 8.92499V13.5C14 15.1569 12.6569 16.5 11 16.5H5C3.34315 16.5 2 15.1569 2 13.5V7.5C2 5.84315 3.34315 4.5 5 4.5H9.57501M14 8.92499C15.7117 8.57753 17 7.06422 17 5.25C17 3.17893 15.3211 1.5 13.25 1.5C11.4358 1.5 9.92247 2.78832 9.57501 4.5M14 8.92499C13.7577 8.97418 13.5068 9 13.25 9C11.1789 9 9.5 7.32107 9.5 5.25C9.5 4.99315 9.52582 4.74233 9.57501 4.5" stroke="currentColor" stroke-width="1.5" stroke-linejoin="round"/>
</svg>
