<svg width="91" height="29" viewBox="0 0 91 29" fill="none" xmlns="http://www.w3.org/2000/svg">
<path fill-rule="evenodd" clip-rule="evenodd" d="M90.8527 14.4491L90.8577 15.813V16.378V16.8115L90.8557 17.1767L90.8537 17.4984L90.8507 17.7892L90.8467 18.0564L90.8408 18.3052L90.8368 18.5384L90.8298 18.7589L90.8238 18.9686L90.8159 19.1687L90.8059 19.3605L90.798 19.5447L90.788 19.7222L90.7771 19.8937L90.7662 20.0599L90.7532 20.2208L90.7403 20.3773L90.7264 20.5293L90.7114 20.6776L90.6975 20.8216L90.6816 20.9624L90.6647 21.1001L90.6478 21.2345L90.6289 21.366L90.611 21.4945L90.5911 21.6206L90.5712 21.7441L90.5503 21.8652L90.5284 21.9837L90.5055 22.1006L90.4817 22.2151L90.4588 22.3273L90.4339 22.4377L90.4081 22.5464L90.3812 22.653L90.3543 22.7581L90.3265 22.8612L90.2986 22.9627L90.2688 23.0627L90.239 23.1611L90.2081 23.2579L90.1763 23.3534L90.1435 23.4473L90.1108 23.5398L90.0771 23.6309L90.0425 23.7206L90.0067 23.8092L89.97 23.8965L89.9342 23.9822L89.8963 24.0669L89.8574 24.1504L89.8184 24.2327L89.7785 24.3137L89.7374 24.3937L89.6955 24.4726L89.6524 24.5504L89.6092 24.627L89.5651 24.7027L89.5199 24.7772L89.4747 24.8505L89.4275 24.9232L89.3811 24.9943L89.3319 25.065L89.2836 25.1343L89.2331 25.2028L89.1828 25.2703L89.1314 25.3369L89.0789 25.4023L89.0254 25.4672L88.9719 25.5308L88.9163 25.5939L88.8608 25.6555L88.8042 25.7166L88.7465 25.7768L88.687 25.8364L88.6293 25.8944L88.5686 25.9521L88.5068 26.0088L88.445 26.0646L88.3813 26.1197L88.3175 26.1738L88.2527 26.2271L88.1868 26.2798L88.119 26.3316L88.052 26.3825L87.9831 26.4325L87.9122 26.4819L87.8423 26.5303L87.7702 26.5779L87.6982 26.6247L87.6231 26.6711L87.5481 26.7164L87.472 26.7611L87.395 26.8049L87.3168 26.8478L87.2377 26.8902L87.1575 26.9316L87.0753 26.9724L86.9921 27.0124L86.9078 27.0518L86.8226 27.0903L86.7364 27.1283L86.648 27.1652L86.5588 27.2016L86.4685 27.2372L86.3771 27.272L86.2847 27.306L86.1894 27.3396L86.0939 27.3722L85.9965 27.4042L85.898 27.4354L85.7976 27.4658L85.6961 27.4957L85.5927 27.5247L85.4871 27.5533L85.3796 27.581L85.2721 27.6079L85.1615 27.6341L85.049 27.6597L84.9344 27.6845L84.8177 27.7089L84.7001 27.732L84.5795 27.7549L84.4568 27.777L84.3322 27.7983L84.2045 27.819L84.0739 27.8392L83.9421 27.8584L83.8054 27.8771L83.6677 27.8951L83.526 27.9123L83.3813 27.9287L83.2335 27.9445L83.0808 27.96L82.925 27.9744L82.7653 27.9883L82.6004 28.0014L82.4307 28.014L82.257 28.0257L82.0762 28.0368L81.8894 28.0473L81.6957 28.0572L81.4939 28.0664L81.2833 28.075L81.0635 28.0827L80.8309 28.09L80.5863 28.0967L80.3258 28.1024L80.0443 28.1078L79.7399 28.1126L79.4036 28.1164L79.0226 28.12L78.5718 28.1232L77.9926 28.1257L69.8307 28.1495L68.0439 28.1541L67.4299 28.155L66.9651 28.1546L66.5751 28.1533L66.2325 28.1512L65.9227 28.1486L65.6393 28.1449L65.3753 28.1407L65.1276 28.1357L64.8942 28.1298L64.6719 28.1233L64.4607 28.1159L64.2576 28.1081L64.0625 28.0996L63.8746 28.0902L63.6925 28.0803L63.5165 28.0696L63.3464 28.0582L63.1814 28.0459L63.0203 28.0332L62.8641 28.0196L62.7108 28.0055L62.5625 27.9905L62.417 27.9749L62.2745 27.9587L62.136 27.9415L62.0002 27.9237L61.8665 27.9052L61.7365 27.8861L61.6085 27.8662L61.4824 27.8458L61.3592 27.8245L61.2389 27.8023L61.1194 27.7799L61.0027 27.7564L60.8881 27.7323L60.7752 27.7076L60.6642 27.6821L60.5551 27.6558L60.4479 27.6288L60.3425 27.6011L60.2389 27.5726L60.1364 27.5436L60.0354 27.5137L59.9365 27.4831L59.8385 27.4519L59.7422 27.4199L59.6478 27.387L59.5542 27.3536L59.4615 27.3196L59.3706 27.2846L59.2816 27.2487L59.1935 27.2124L59.1061 27.1752L59.0207 27.1373L58.936 27.0986L58.8531 27.059L58.771 27.0188L58.6901 26.9779L58.6097 26.9363L58.5312 26.8937L58.4536 26.8505L58.3777 26.8064L58.3018 26.7617L58.2275 26.716L58.1542 26.6696L58.0817 26.6224L58.01 26.5745L57.9402 26.5258L57.8711 26.476L57.8028 26.4257L57.7355 26.3744L57.6688 26.3226L57.603 26.2697L57.539 26.216L57.4748 26.1616L57.4125 26.1062L57.3509 26.0498L57.2901 25.9928L57.2302 25.9349L57.171 25.8761L57.1135 25.8162L57.056 25.7558L56.9992 25.6945L56.9442 25.6319L56.8899 25.5685L56.8356 25.5045L56.7828 25.4392L56.7309 25.3731L56.6798 25.3059L56.6295 25.238L56.5799 25.1689L56.5311 25.0989L56.4831 25.028L56.4357 24.956L56.3893 24.8831L56.3445 24.8088L56.2994 24.7337L56.2552 24.6576L56.2125 24.5802L56.1698 24.5019L56.1288 24.4222L56.0883 24.3415L56.0476 24.2598L56.0087 24.1766L55.9704 24.0924L55.9329 24.0068L55.896 23.9201L55.8599 23.832L55.8244 23.7427L55.7906 23.6517L55.7563 23.5599L55.7238 23.4662L55.691 23.3713L55.6598 23.2749L55.6292 23.1769L55.5992 23.0773L55.5698 22.9764L55.541 22.8736L55.5137 22.7689L55.4861 22.6628L55.4599 22.5546L55.4344 22.4447L55.4102 22.3325L55.3856 22.2188L55.3624 22.1026L55.3398 21.9843L55.3185 21.8636L55.2966 21.7407L55.2771 21.6151L55.2569 21.4871L55.238 21.3561L55.2194 21.2225L55.2019 21.0855L55.1857 20.9452L55.1695 20.8016L55.1544 20.6541L55.1393 20.5029L55.126 20.3472L55.1126 20.1871L55.0999 20.022L55.0878 19.8515L55.0772 19.6749L55.0668 19.4917L55.0567 19.3014L55.0482 19.1027L55.0395 18.8949L55.0319 18.6762L55.025 18.4451L55.0194 18.1989L55.0139 17.935L55.0086 17.6486L55.0046 17.3323L55.0008 16.9753L54.9975 16.5552L54.995 16.0196L54.9914 15.0953L54.9874 13.3002L54.9861 12.7004L54.9865 12.2521L54.9883 11.8779L54.9904 11.5502L54.9932 11.2552L54.9973 10.9845L55.0016 10.7333L55.0068 10.4977L55.0127 10.2752L55.0195 10.0642L55.0278 9.86244L55.0355 9.66969L55.0451 9.48402L55.0546 9.30554L55.0656 9.13293L55.0772 8.96601L55.0891 8.80428L55.1013 8.64723L55.1147 8.49466L55.1291 8.34599L55.1445 8.20091L55.1599 8.05961L55.1762 7.92181L55.1942 7.7865L55.2122 7.65468L55.2309 7.52555L55.2503 7.39911L55.2704 7.27527L55.2911 7.15391L55.3126 7.03476L55.3356 6.91779L55.3582 6.80302L55.3823 6.69035L55.407 6.57946L55.4322 6.47078L55.4589 6.36358L55.4851 6.25858L55.5127 6.15518L55.5419 6.05308L55.5705 5.95296L55.6006 5.85445L55.631 5.75733L55.6628 5.6617L55.6951 5.56747L55.7278 5.47484L55.7618 5.3835L55.7961 5.29336L55.8319 5.20461L55.8681 5.11726L55.9046 5.03111L55.9425 4.94635L55.9806 4.86269L56.0201 4.78013L56.06 4.69886L56.1002 4.6188L56.1418 4.53982L56.1846 4.46185L56.2276 4.38507L56.2721 4.30918L56.3168 4.2346L56.362 4.16111L56.4082 4.08842L56.4559 4.01672L56.5038 3.94623L56.5529 3.87653L56.6024 3.80802L56.6532 3.74032L56.7043 3.67381L56.7565 3.608L56.8101 3.54308L56.8639 3.47907L56.919 3.41615L56.9744 3.35403L57.031 3.2929L57.0889 3.23248L57.1471 3.17315L57.2064 3.11452L57.2662 3.05698L57.328 2.99994L57.3892 2.9442L57.4526 2.88886L57.5162 2.83472L57.5811 2.78107L57.6473 2.72842L57.7136 2.67667L57.7813 2.62562L57.8502 2.57536L57.9202 2.52581L57.9905 2.47724L58.0621 2.42958L58.1349 2.38252L58.209 2.33605L58.2844 2.29058L58.3598 2.24591L58.4366 2.20204L58.5146 2.15886L58.5939 2.11648L58.6743 2.0748L58.756 2.03392L58.8389 1.99353L58.923 1.95425L59.0074 1.91576L59.094 1.87767L59.1819 1.84037L59.27 1.80418L59.3603 1.76848L59.4518 1.73348L59.5445 1.69928L59.6395 1.66548L59.7347 1.63287L59.8323 1.60066L59.93 1.56965L60.0308 1.53864L60.132 1.50893L60.2354 1.47971L60.3401 1.45119L60.4469 1.42337L60.5551 1.39645L60.6654 1.36992L60.778 1.3441L60.8918 1.31917L61.0069 1.29504L61.1252 1.27151L61.2457 1.24837L61.3676 1.22634L61.4926 1.2048L61.6199 1.18396L61.7495 1.16382L61.8814 1.14457L62.0164 1.12573L62.1548 1.10748L62.2954 1.09033L62.4394 1.07368L62.5876 1.05752L62.739 1.04226L62.8937 1.02771L63.0528 1.01385L63.2172 1.00049L63.3859 0.987822L63.5599 0.975956L63.7393 0.964689L63.9249 0.954019L64.1171 0.944247L64.3176 0.934974L64.5265 0.926299L64.745 0.918422L64.9749 0.911143L65.2183 0.904262L65.4764 0.898279L65.7532 0.892895L66.0538 0.888009L66.3846 0.883922L66.7567 0.88053L67.1939 0.87724L67.7454 0.874547L68.6442 0.871356L77.6753 0.845929L78.3292 0.845032L78.811 0.845332L79.211 0.846228L79.5595 0.848223L79.8741 0.850815L80.1618 0.854206L80.4277 0.858693L80.6777 0.863379L80.9138 0.869064L81.1369 0.875645L81.3512 0.882425L81.5555 0.890302L81.7509 0.898878L81.9404 0.908051L82.1228 0.917923L82.2993 0.928692L82.4699 0.94006L82.6366 0.951925L82.7983 0.964588L82.9559 0.97805L83.1087 0.99211L83.2585 1.00697L83.4044 1.02242L83.5473 1.03868L83.6872 1.05543L83.8222 1.07338L83.9562 1.09172L84.0873 1.11067L84.2163 1.13031L84.3424 1.15075L84.4657 1.17199L84.5868 1.19383L84.7061 1.21637L84.8223 1.2397L84.9377 1.26383L85.051 1.28826L85.1623 1.31369L85.2717 1.33991L85.3781 1.36693L85.4846 1.39436L85.5891 1.42257L85.6916 1.45159L85.7932 1.48121L85.8918 1.51192L85.9904 1.54293L86.0861 1.57504L86.1817 1.60754L86.2755 1.64095L86.3682 1.67495L86.459 1.70985L86.5489 1.74535L86.6367 1.78174L86.7236 1.81874L86.8096 1.85663L86.8945 1.89522L86.9775 1.9344L87.0594 1.97459L87.1405 2.01557L87.2216 2.05695L87.3007 2.09923L87.3788 2.14241L87.455 2.18618L87.5302 2.23115L87.6054 2.27642L87.6787 2.32279L87.751 2.36985L87.8224 2.41762L87.8928 2.46638L87.9621 2.51573L88.0306 2.56609L88.0981 2.61714L88.1645 2.66899L88.2301 2.72174L88.2956 2.77509L88.3583 2.82963L88.4219 2.88477L88.4835 2.94091L88.5443 2.99795L88.604 3.05568L88.6638 3.11441L88.7216 3.17394L88.7795 3.23437L88.8364 3.29549L88.8913 3.35802L88.9462 3.42113L89.0002 3.48525L89.0532 3.55016L89.1052 3.61617L89.1563 3.68328L89.2075 3.75079L89.2567 3.81979L89.3058 3.88959L89.3541 3.96039L89.4014 4.03228L89.4478 4.10517L89.4931 4.17906L89.5385 4.25394L89.582 4.33012L89.6254 4.4072L89.668 4.48538L89.7086 4.56495L89.7503 4.64532L89.7899 4.72718L89.8287 4.81015L89.8683 4.89391L89.9051 4.97936L89.9421 5.06591L89.978 5.15386L90.0139 5.243L90.0489 5.33334L90.083 5.42528L90.115 5.51871L90.1482 5.61334L90.1793 5.70966L90.2111 5.80728L90.241 5.9065L90.2698 6.00741L90.2986 6.10981L90.3255 6.21441L90.3533 6.32021L90.3792 6.4281L90.4051 6.53778L90.4299 6.64936L90.4548 6.76304L90.4777 6.8788L90.4996 6.99677L90.5225 7.11682L90.5443 7.23937L90.5642 7.36451L90.5841 7.49234L90.603 7.62267L90.6219 7.75599L90.6398 7.89239L90.6567 8.03209L90.6726 8.17508L90.6876 8.32206L90.7025 8.47253L90.7164 8.62748L90.7293 8.78692L90.7423 8.95125L90.7542 9.12097L90.7652 9.29646L90.7751 9.47864L90.785 9.6678L90.794 9.86503L90.803 10.0714L90.8109 10.2881L90.8179 10.5171L90.8238 10.7607L90.8288 11.0213L90.8348 11.3039L90.8388 11.6149L90.8417 11.9645L90.8467 12.3719L90.8487 12.8828L90.8517 13.6792L90.8527 14.4491ZM69.7791 22.0111L75.4048 21.9952C80.7335 21.9801 83.8341 18.7559 83.8216 14.4261C83.8096 10.0533 80.7344 6.97543 75.4471 6.99038L69.736 7.00684L69.7791 22.0111ZM66.9658 22.0193L62.7467 22.0313L62.7046 7.02658L66.9237 7.01461L66.9658 22.0193ZM15.579 14.663C15.5909 18.8012 12.5087 22.515 7.86023 22.5281C3.21075 22.5413 0.151869 18.8884 0.140659 14.7067C0.128773 10.5684 3.21005 6.85477 7.85953 6.84141C12.508 6.82835 15.5669 10.4814 15.579 14.663ZM1.32482 14.7032C1.33536 18.4516 4.10657 21.5207 7.90032 21.51C11.695 21.4988 14.4056 18.4579 14.3947 14.6661C14.3842 10.9179 11.6121 7.84922 7.81845 7.85989C4.0246 7.87055 1.31398 10.9117 1.32482 14.7032ZM20.939 22.1499L19.8515 22.153L19.8084 7.14863L20.8743 7.14564L31.4184 20.1697L31.3821 7.11552L32.4695 7.11253L32.5115 22.1171L31.6631 22.1196L20.9016 8.81734L20.939 22.1499ZM47.9798 22.0731L37.0374 22.1043L36.9953 7.09967L47.8286 7.06886L47.8316 8.0977L38.1289 8.12532L38.1458 14.02L46.8689 13.9952L46.8719 15.0241L38.1487 15.0488L38.1661 21.072L47.9768 21.0442L47.9798 22.0731ZM79.2648 18.4459C79.1687 18.5133 79.0703 18.5763 78.9698 18.635C78.5564 18.8824 78.1555 19.0305 77.7829 19.1318C77.7227 19.1483 77.6635 19.1634 77.6062 19.1777C77.126 19.2966 76.6541 19.3506 76.2401 19.3632C75.633 19.3819 75.0178 19.378 74.4241 19.3739C74.135 19.372 73.8512 19.3701 73.5751 19.371L72.5865 19.3736C72.5673 18.8183 72.6597 18.0549 72.8323 17.4468C72.9741 16.9495 73.6091 16.5843 74.1878 16.2807L74.2292 16.259C74.4097 16.1638 74.7362 15.9918 75.0416 15.875C75.0556 15.8696 75.0696 15.8643 75.0847 15.8589C75.1034 15.8519 75.1232 15.8451 75.1429 15.838C75.4057 15.7429 75.7137 15.6318 75.7439 15.3278C75.768 15.093 75.6451 14.9468 75.4981 14.7727C75.463 14.7309 75.4264 14.6874 75.3901 14.6406C74.9631 14.0899 74.5599 13.3383 74.6296 12.3186C74.6971 11.3181 75.3552 10.5392 76.4598 10.4161C76.5878 10.4018 76.7129 10.3954 76.8337 10.3968C76.9549 10.3948 77.0785 10.4005 77.2074 10.414C78.3132 10.5307 78.9743 11.3058 79.0479 12.3063C79.1242 13.3253 78.7245 14.0793 78.2999 14.6325C78.2647 14.6793 78.2284 14.7231 78.1931 14.7652C78.0478 14.9402 77.9256 15.0869 77.9507 15.3213C77.9821 15.6253 78.2915 15.7346 78.5555 15.8281C78.5898 15.8405 78.6241 15.8525 78.6563 15.8648C78.9619 15.9798 79.2893 16.15 79.4707 16.2441L79.5123 16.2656C79.9035 16.4681 80.3196 16.6983 80.5951 16.9788C80.4767 17.2052 80.2689 17.4972 80.1492 17.6351C79.8534 17.9721 79.5561 18.2358 79.2618 18.4444L79.2648 18.4459Z" fill="white"/>
</svg>