<svg width="14" height="18" viewBox="0 0 14 18" fill="none" xmlns="http://www.w3.org/2000/svg">
<path d="M1.99967 0.666626C1.55765 0.666626 1.13372 0.842221 0.821163 1.15478C0.508602 1.46734 0.333008 1.89127 0.333008 2.33329V15.6666C0.333008 16.1087 0.508602 16.5326 0.821163 16.8451C1.13372 17.1577 1.55765 17.3333 1.99967 17.3333H11.9997C12.4417 17.3333 12.8656 17.1577 13.1782 16.8451C13.4907 16.5326 13.6663 16.1087 13.6663 15.6666V2.33329C13.6663 1.89127 13.4907 1.46734 13.1782 1.15478C12.8656 0.842221 12.4417 0.666626 11.9997 0.666626H1.99967ZM6.99967 3.16663C8.10474 3.16663 9.16455 3.60561 9.94595 4.38701C10.7274 5.16842 11.1663 6.22822 11.1663 7.33329C11.1663 8.43836 10.7274 9.49817 9.94595 10.2796C9.16455 11.061 8.10474 11.5 6.99967 11.5C5.89461 11.5 4.8348 11.061 4.0534 10.2796C3.27199 9.49817 2.83301 8.43836 2.83301 7.33329C2.83301 6.22822 3.27199 5.16842 4.0534 4.38701C4.8348 3.60561 5.89461 3.16663 6.99967 3.16663ZM6.99967 3.99996C6.65801 4.51663 6.37467 5.07496 6.19967 5.66663H7.79967C7.62071 5.07308 7.35084 4.51085 6.99967 3.99996ZM5.91634 4.18329C5.14967 4.44163 4.49967 4.97496 4.11634 5.66663H5.33301C5.48301 5.14996 5.66634 4.64996 5.91634 4.18329ZM8.07467 4.18329C8.32467 4.64996 8.51634 5.14996 8.66634 5.66663H9.88301C9.49967 4.97496 8.84134 4.44996 8.07467 4.18329ZM3.77467 6.49996C3.70801 6.76663 3.66634 7.04163 3.66634 7.33329C3.66634 7.62496 3.70801 7.89996 3.77467 8.16663H5.18301C5.14967 7.89163 5.12467 7.61663 5.12467 7.33329C5.12467 7.04996 5.14967 6.77496 5.18301 6.49996H3.77467ZM6.02467 6.49996C5.98301 6.76663 5.95801 7.04996 5.95801 7.33329C5.95801 7.61663 5.98301 7.89163 6.02467 8.16663H7.97467C8.00801 7.89163 8.04134 7.61663 8.04134 7.33329C8.04134 7.04996 8.00801 6.76663 7.97467 6.49996H6.02467ZM8.81634 6.49996C8.84967 6.77496 8.87467 7.04996 8.87467 7.33329C8.87467 7.61663 8.84967 7.89163 8.81634 8.16663H10.2247C10.2913 7.89996 10.333 7.62496 10.333 7.33329C10.333 7.04163 10.2913 6.76663 10.2247 6.49996H8.81634ZM4.11634 8.99996C4.49967 9.69163 5.14967 10.2166 5.91634 10.4833C5.66634 10.0166 5.48301 9.52496 5.33301 8.99996H4.11634ZM6.19967 8.99996C6.37467 9.59996 6.65801 10.15 6.99967 10.6666C7.34967 10.15 7.62467 9.59996 7.79967 8.99996H6.19967ZM8.66634 8.99996C8.51634 9.52496 8.32467 10.0166 8.07467 10.4833C8.84134 10.2166 9.49967 9.69163 9.88301 8.99996H8.66634ZM2.83301 13.1666H11.1663V14.8333H2.83301V13.1666Z" fill="currentColor"/>
</svg>
