<svg width="97" height="32" viewBox="0 0 97 32" fill="none" xmlns="http://www.w3.org/2000/svg">
<g clip-path="url(#clip0_4673_47265)">
<path d="M6.64833 0.00279842H84.9229C85.8246 0.00279842 86.6201 0.374651 87.0713 1.09064L95.0056 13.96C95.6156 14.9682 95.5108 16.1877 94.6338 17.197L83.4632 30.0664C82.8532 30.7558 82.0576 31.1808 81.1534 31.1808H3.11481C1.55014 31.1808 0.408096 29.9601 0.592855 28.4207L3.54091 2.76052C3.72798 1.19574 5.08019 0.000488281 6.64602 0.000488281H6.64718L6.64833 0.00279842Z" fill="#00C0C9"/>
<path d="M46.981 8.69531L42.9186 17.9432L40.8077 8.69531H36.6379L40.3527 22.0855L38.1887 26.4692H42.3043L51.0433 8.69531H46.9798H46.981ZM7.64111 26.4692H11.3825L11.9968 21.4191C12.5846 21.873 13.6804 22.3811 15.0696 22.3811C19.3999 22.3811 22.0454 18.5587 22.0454 14.3909C22.0454 10.8363 20.3618 8.35117 17.2082 8.35117C15.7105 8.35117 14.3479 8.83158 13.3063 9.68841L13.4391 8.69993H9.80511L7.64111 26.4738V26.4704V26.4692ZM12.3179 18.7977L13.147 12.2233C13.9483 11.5824 14.8571 11.3145 15.6585 11.341C17.2613 11.3664 18.1435 12.6506 18.1435 14.6553C18.1435 17.2479 16.781 19.4663 14.4819 19.4663C13.7601 19.4663 12.9322 19.2262 12.3179 18.7977ZM22.7672 18.4512C22.7394 20.6154 24.505 22.3811 27.2025 22.3811C29.1009 22.3811 30.4889 21.5797 31.2903 20.6974L31.1298 22.0601H34.7638L35.646 14.8182C36.0744 11.237 34.8977 8.32344 30.3007 8.32344C28.43 8.32344 26.1586 8.75189 24.9288 9.55332L24.5535 12.5466C25.5431 12.0108 27.467 11.3595 29.2302 11.3595C31.3411 11.3595 32.0905 12.4127 32.0097 13.5363H29.7649C26.5039 13.5363 22.7891 14.7916 22.7625 18.4536H22.766L22.7672 18.4512ZM26.5362 18.1556C26.5362 16.7121 28.2198 16.1774 29.9554 16.1774H31.7187L31.4508 18.3415C30.7025 18.9294 29.3665 19.5437 28.2429 19.5437C27.2279 19.5437 26.5327 18.9825 26.5327 18.1533H26.5339L26.5362 18.1556ZM72.4175 15.9372C72.3648 19.2781 74.7965 22.3777 79.7665 22.3777C81.5295 22.3777 83.0276 22.0301 84.3622 21.2009L84.6304 18.0471C83.5354 18.7157 81.8772 19.1695 80.4351 19.1695C78.5367 19.1695 76.8264 18.3404 76.3472 16.4165H85.5946C85.7274 16.0689 85.8349 15.2397 85.8349 14.4382C85.8349 10.9114 83.883 8.34421 79.8739 8.34421C75.8648 8.34421 72.4709 10.7232 72.4175 15.9337V15.9361V15.9372ZM76.3726 14.1461C76.7476 12.3826 78.0282 11.3387 79.6057 11.3387C81.1832 11.3387 82.038 12.221 82.038 13.638C82.038 13.7984 82.038 13.9855 82.0126 14.1461H76.3739H76.3726ZM54.0896 22.0577L55.3194 12.2764C56.1485 11.7152 57.0826 11.2613 57.8864 11.2613C58.9279 11.2613 59.436 12.0374 59.2767 13.3723L58.2074 22.0589H61.9765L63.1532 12.5709L63.1786 12.303C64.0077 11.7417 64.9696 11.2613 65.7711 11.2613C66.8127 11.2613 67.3205 12.0374 67.161 13.3723L66.092 22.0589H69.8609L71.038 12.5709C71.359 9.9252 69.995 8.32227 67.564 8.32227C65.8804 8.32227 64.0896 9.28424 62.8875 10.1665C62.3795 8.98978 61.2571 8.32227 59.6797 8.32227C58.1022 8.32227 56.5792 9.09831 55.3771 9.8998L55.5376 8.69759H52.011L50.3274 22.0613H54.0965H54.0918L54.0896 22.0577Z" fill="white"/>
</g>
<defs>
<clipPath id="clip0_4673_47265">
<rect width="96.3542" height="31.25" fill="white" transform="translate(0.572754 0.000488281)"/>
</clipPath>
</defs>
</svg>
