<svg width="31" height="31" viewBox="0 0 31 31" fill="none" xmlns="http://www.w3.org/2000/svg">
<path d="M19.991 4.28399C18.8507 3.05293 17.2581 2.375 15.5003 2.375C13.7331 2.375 12.1353 3.04883 11.0003 4.27227C9.85307 5.50918 9.29409 7.19023 9.42534 9.00547C9.68549 12.5867 12.4107 15.5 15.5003 15.5C18.59 15.5 21.3105 12.5873 21.5747 9.00664C21.7078 7.20781 21.1453 5.53028 19.991 4.28399ZM25.8128 28.625L5.18784 28.625C4.91787 28.6285 4.65052 28.5718 4.40524 28.459C4.15995 28.3462 3.9429 28.1801 3.76987 27.9728C3.38901 27.5176 3.23549 26.8959 3.34916 26.2672C3.8437 23.5238 5.38705 21.2193 7.81284 19.6016C9.96791 18.1654 12.6978 17.375 15.5003 17.375C18.3029 17.375 21.0328 18.166 23.1878 19.6016C25.6136 21.2188 27.157 23.5232 27.6515 26.2666C27.7652 26.8953 27.6117 27.517 27.2308 27.9723C27.0578 28.1796 26.8408 28.3458 26.5955 28.4587C26.3502 28.5716 26.0828 28.6284 25.8128 28.625Z" fill="#64748B"/>
</svg>
