<svg width="21" height="21" viewBox="0 0 21 21" fill="none" xmlns="http://www.w3.org/2000/svg">
<path fill-rule="evenodd" clip-rule="evenodd" d="M20.5 10.5C20.5 16.0228 16.0228 20.5 10.5 20.5C4.97715 20.5 0.5 16.0228 0.5 10.5C0.5 4.97715 4.97715 0.5 10.5 0.5C16.0228 0.5 20.5 4.97715 20.5 10.5ZM10.5 5.75C10.9142 5.75 11.25 6.08579 11.25 6.5V9.75H14.5C14.9142 9.75 15.25 10.0858 15.25 10.5C15.25 10.9142 14.9142 11.25 14.5 11.25H11.25V14.5C11.25 14.9142 10.9142 15.25 10.5 15.25C10.0858 15.25 9.75 14.9142 9.75 14.5V11.25H6.5C6.08579 11.25 5.75 10.9142 5.75 10.5C5.75 10.0858 6.08579 9.75 6.5 9.75H9.75V6.5C9.75 6.08579 10.0858 5.75 10.5 5.75Z" fill="white"/>
</svg>
