<svg width="31" height="31" viewBox="0 0 31 31" fill="none" xmlns="http://www.w3.org/2000/svg">
<g clip-path="url(#clip0_4221_37064)">
<path d="M19.3264 10.8829C19.9885 9.82233 20.346 8.59186 20.3518 7.33795C20.3635 5.53326 19.6663 3.82233 18.3831 2.5274C17.1057 1.22662 15.4065 0.51178 13.596 0.500061H13.5549C11.7503 0.500061 10.051 1.20319 8.76784 2.47467C7.47878 3.75787 6.76393 5.46881 6.76393 7.29108C6.76393 8.56842 7.12135 9.81061 7.78932 10.8829C8.65065 12.2657 9.94557 13.2618 11.4456 13.7481C11.4749 13.7598 11.51 13.7657 11.5393 13.7774C11.8616 13.877 12.1897 13.9532 12.5237 14.0001C12.5354 14.0001 12.5471 14.0059 12.5589 14.0059C12.6233 14.0176 12.6936 14.0235 12.7581 14.0352C12.7815 14.0352 12.7991 14.0411 12.8225 14.0411L12.9983 14.0587C13.0217 14.0587 13.051 14.0645 13.0745 14.0645C13.1331 14.0704 13.1917 14.0704 13.2503 14.0762C13.2737 14.0762 13.2971 14.0762 13.3206 14.0821C13.4026 14.0821 13.4788 14.088 13.5608 14.088C13.6428 14.088 13.719 14.088 13.801 14.0821C13.8245 14.0821 13.8479 14.0821 13.8714 14.0762C13.9299 14.0762 13.9885 14.0704 14.0413 14.0645C14.0647 14.0645 14.094 14.0587 14.1174 14.0587L14.2932 14.0411C14.3167 14.0411 14.3342 14.0352 14.3577 14.0352C14.4221 14.0294 14.4924 14.0176 14.5569 14.0118C14.5686 14.0118 14.5803 14.0059 14.5921 14.0059C14.926 13.9532 15.2542 13.8829 15.5764 13.7833L15.6292 13.7657C17.1409 13.2852 18.4534 12.2833 19.3264 10.8829ZM28.5842 22.6309H28.1096V22.2383C28.1096 20.7969 26.9378 19.6251 25.4964 19.6251C24.0549 19.6251 22.8831 20.7969 22.8831 22.2383V22.6309H22.4143C21.512 22.6309 20.7796 23.3633 20.7796 24.2657V24.8868H30.219V24.2657C30.219 23.3633 29.4866 22.6309 28.5842 22.6309ZM26.2991 22.6309H24.6995V22.2383C24.6995 21.7989 25.0569 21.4356 25.5022 21.4356C25.9475 21.4356 26.3049 21.793 26.3049 22.2383V22.6309H26.2991ZM26.4046 27.1133C26.4046 27.6114 26.0003 28.0215 25.4964 28.0215C24.9924 28.0215 24.5882 27.6172 24.5882 27.1133V26.6973H20.7737V28.8653C20.7737 29.7676 21.5061 30.5001 22.4085 30.5001H28.5784C29.4807 30.5001 30.2132 29.7676 30.2132 28.8653V26.6973H26.3987V27.1133H26.4046ZM16.1096 15.5118C15.2893 15.7696 14.428 15.8985 13.5608 15.8985C12.6936 15.8985 11.8323 15.7696 11.012 15.5118C10.2385 15.2715 9.45339 15.1544 8.67995 15.1544C6.07253 15.1544 3.61159 16.4727 2.23464 18.752C1.60768 19.795 1.12721 20.9141 0.810807 22.086C0.728776 22.3907 0.840104 22.7188 1.09206 22.8946C4.74245 25.5196 9.04909 26.9024 13.5608 26.9024C14.5569 26.9024 15.553 26.8321 16.5374 26.6973C16.4553 26.211 16.4143 25.713 16.4143 25.2149C16.4143 22.9297 17.2639 20.7501 18.8108 19.0684C19.9124 17.8731 21.2952 17.0059 22.8186 16.5372C20.9202 15.1954 18.4417 14.7852 16.1096 15.5118Z" fill="#64748B"/>
</g>
<defs>
<clipPath id="clip0_4221_37064">
<rect width="30" height="30" fill="white" transform="translate(0.5 0.500061)"/>
</clipPath>
</defs>
</svg>