<svg width="20" height="30" viewBox="0 0 20 30" fill="none" xmlns="http://www.w3.org/2000/svg">
<path d="M12.6916 24.4908C15.4614 20.535 19.375 14.25 19.375 10.3125C19.375 7.8261 18.3873 5.44153 16.6291 3.68337C14.871 1.92522 12.4864 0.9375 10 0.9375C7.5136 0.9375 5.12903 1.92522 3.37087 3.68337C1.61272 5.44153 0.625 7.8261 0.625 10.3125C0.625 14.25 4.53859 20.535 7.30844 24.4908C7.6111 24.9239 8.01383 25.2776 8.48241 25.5218C8.951 25.766 9.4716 25.8936 10 25.8936C10.5284 25.8936 11.049 25.766 11.5176 25.5218C11.9862 25.2776 12.3889 24.9239 12.6916 24.4908ZM5.3125 14.0625V9.375C5.3125 9.12636 5.41127 8.8879 5.58709 8.71209C5.7629 8.53627 6.00136 8.4375 6.25 8.4375H7.65625V7.96875C7.65625 7.59579 7.80441 7.2381 8.06813 6.97438C8.33185 6.71066 8.68954 6.5625 9.0625 6.5625H10.9375C11.3105 6.5625 11.6681 6.71066 11.9319 6.97438C12.1956 7.2381 12.3438 7.59579 12.3438 7.96875V8.4375H13.75C13.9986 8.4375 14.2371 8.53627 14.4129 8.71209C14.5887 8.8879 14.6875 9.12636 14.6875 9.375V14.0625C14.6875 14.3111 14.5887 14.5496 14.4129 14.7254C14.2371 14.9012 13.9986 15 13.75 15H6.25C6.00136 15 5.7629 14.9012 5.58709 14.7254C5.41127 14.5496 5.3125 14.3111 5.3125 14.0625ZM11.4062 7.96875V8.4375H8.59375V7.96875C8.59375 7.84443 8.64314 7.7252 8.73104 7.63729C8.81895 7.54939 8.93818 7.5 9.0625 7.5H10.9375C11.0618 7.5 11.181 7.54939 11.269 7.63729C11.3569 7.7252 11.4062 7.84443 11.4062 7.96875ZM19.8438 25.7812C19.8438 28.8258 12.3095 29.0625 10 29.0625C7.69047 29.0625 0.15625 28.8281 0.15625 25.7812C0.15625 24.5302 1.42187 23.6133 3.91797 23.0569C4.1607 23.0028 4.41498 23.0474 4.62486 23.1808C4.83474 23.3142 4.98303 23.5255 5.03711 23.7682C5.09119 24.0109 5.04663 24.2652 4.91323 24.4751C4.77983 24.685 4.56852 24.8333 4.32578 24.8873C2.75641 25.237 2.22906 25.6317 2.07578 25.7859C2.49531 26.2275 4.80766 27.1875 10 27.1875C15.1923 27.1875 17.5047 26.2275 17.9252 25.7859C17.7709 25.6317 17.2431 25.237 15.6752 24.8873C15.5504 24.8654 15.4313 24.8184 15.3252 24.7492C15.2191 24.6799 15.1281 24.5899 15.0577 24.4845C14.9874 24.3792 14.9391 24.2606 14.9159 24.1361C14.8926 24.0115 14.8948 23.8835 14.9224 23.7599C14.95 23.6362 15.0024 23.5194 15.0764 23.4166C15.1504 23.3137 15.2444 23.2269 15.3529 23.1614C15.4614 23.0959 15.582 23.0531 15.7075 23.0356C15.8329 23.018 15.9607 23.026 16.083 23.0592C18.5781 23.6133 19.8438 24.5302 19.8438 25.7812Z" fill="#4F46E5"/>
</svg>
