<svg width="150" height="151" viewBox="0 0 150 151" fill="none" xmlns="http://www.w3.org/2000/svg">
<g clip-path="url(#clip0_4673_47403)">
<path d="M150 0.500061H0V150.5H150V0.500061Z" fill="white"/>
<mask id="mask0_4673_47403" style="mask-type:luminance" maskUnits="userSpaceOnUse" x="8" y="9" width="134" height="133">
<path d="M11.9385 78.5762C13.6778 78.5762 15.0879 77.1661 15.0879 75.4268C15.0879 73.6874 13.6778 72.2773 11.9385 72.2773C10.1991 72.2773 8.78906 73.6874 8.78906 75.4268C8.78906 77.1661 10.1991 78.5762 11.9385 78.5762Z" fill="white"/>
<path d="M11.9385 91.1738C13.6778 91.1738 15.0879 89.7638 15.0879 88.0244C15.0879 86.285 13.6778 84.875 11.9385 84.875C10.1991 84.875 8.78906 86.285 8.78906 88.0244C8.78906 89.7638 10.1991 91.1738 11.9385 91.1738Z" fill="white"/>
<path d="M18.2373 65.9785C19.9767 65.9785 21.3867 64.5685 21.3867 62.8291C21.3867 61.0897 19.9767 59.6797 18.2373 59.6797C16.4979 59.6797 15.0879 61.0897 15.0879 62.8291C15.0879 64.5685 16.4979 65.9785 18.2373 65.9785Z" fill="white"/>
<path d="M18.2373 72.2773C19.9767 72.2773 21.3867 70.8673 21.3867 69.1279C21.3867 67.3886 19.9767 65.9785 18.2373 65.9785C16.4979 65.9785 15.0879 67.3886 15.0879 69.1279C15.0879 70.8673 16.4979 72.2773 18.2373 72.2773Z" fill="white"/>
<path d="M18.2373 78.5762C19.9767 78.5762 21.3867 77.1661 21.3867 75.4268C21.3867 73.6874 19.9767 72.2773 18.2373 72.2773C16.4979 72.2773 15.0879 73.6874 15.0879 75.4268C15.0879 77.1661 16.4979 78.5762 18.2373 78.5762Z" fill="white"/>
<path d="M18.2373 91.1738C19.9767 91.1738 21.3867 89.7638 21.3867 88.0244C21.3867 86.285 19.9767 84.875 18.2373 84.875C16.4979 84.875 15.0879 86.285 15.0879 88.0244C15.0879 89.7638 16.4979 91.1738 18.2373 91.1738Z" fill="white"/>
<path d="M24.5361 78.5762C26.2755 78.5762 27.6855 77.1661 27.6855 75.4268C27.6855 73.6874 26.2755 72.2773 24.5361 72.2773C22.7968 72.2773 21.3867 73.6874 21.3867 75.4268C21.3867 77.1661 22.7968 78.5762 24.5361 78.5762Z" fill="white"/>
<path d="M24.5361 84.875C26.2755 84.875 27.6855 83.465 27.6855 81.7256C27.6855 79.9862 26.2755 78.5762 24.5361 78.5762C22.7968 78.5762 21.3867 79.9862 21.3867 81.7256C21.3867 83.465 22.7968 84.875 24.5361 84.875Z" fill="white"/>
<path d="M24.5361 91.1738C26.2755 91.1738 27.6855 89.7638 27.6855 88.0244C27.6855 86.285 26.2755 84.875 24.5361 84.875C22.7968 84.875 21.3867 86.285 21.3867 88.0244C21.3867 89.7638 22.7968 91.1738 24.5361 91.1738Z" fill="white"/>
<path d="M30.835 65.9785C32.5743 65.9785 33.9844 64.5685 33.9844 62.8291C33.9844 61.0897 32.5743 59.6797 30.835 59.6797C29.0956 59.6797 27.6855 61.0897 27.6855 62.8291C27.6855 64.5685 29.0956 65.9785 30.835 65.9785Z" fill="white"/>
<path d="M30.835 72.2773C32.5743 72.2773 33.9844 70.8673 33.9844 69.1279C33.9844 67.3886 32.5743 65.9785 30.835 65.9785C29.0956 65.9785 27.6855 67.3886 27.6855 69.1279C27.6855 70.8673 29.0956 72.2773 30.835 72.2773Z" fill="white"/>
<path d="M37.1338 65.9785C38.8732 65.9785 40.2832 64.5685 40.2832 62.8291C40.2832 61.0897 38.8732 59.6797 37.1338 59.6797C35.3944 59.6797 33.9844 61.0897 33.9844 62.8291C33.9844 64.5685 35.3944 65.9785 37.1338 65.9785Z" fill="white"/>
<path d="M37.1338 72.2773C38.8732 72.2773 40.2832 70.8673 40.2832 69.1279C40.2832 67.3886 38.8732 65.9785 37.1338 65.9785C35.3944 65.9785 33.9844 67.3886 33.9844 69.1279C33.9844 70.8673 35.3944 72.2773 37.1338 72.2773Z" fill="white"/>
<path d="M37.1338 91.1738C38.8732 91.1738 40.2832 89.7638 40.2832 88.0244C40.2832 86.285 38.8732 84.875 37.1338 84.875C35.3944 84.875 33.9844 86.285 33.9844 88.0244C33.9844 89.7638 35.3944 91.1738 37.1338 91.1738Z" fill="white"/>
<path d="M43.4326 78.5762C45.172 78.5762 46.582 77.1661 46.582 75.4268C46.582 73.6874 45.172 72.2773 43.4326 72.2773C41.6932 72.2773 40.2832 73.6874 40.2832 75.4268C40.2832 77.1661 41.6932 78.5762 43.4326 78.5762Z" fill="white"/>
<path d="M43.4326 84.875C45.172 84.875 46.582 83.465 46.582 81.7256C46.582 79.9862 45.172 78.5762 43.4326 78.5762C41.6932 78.5762 40.2832 79.9862 40.2832 81.7256C40.2832 83.465 41.6932 84.875 43.4326 84.875Z" fill="white"/>
<path d="M43.4326 91.1738C45.172 91.1738 46.582 89.7638 46.582 88.0244C46.582 86.285 45.172 84.875 43.4326 84.875C41.6932 84.875 40.2832 86.285 40.2832 88.0244C40.2832 89.7638 41.6932 91.1738 43.4326 91.1738Z" fill="white"/>
<path d="M49.7314 65.9785C51.4708 65.9785 52.8809 64.5685 52.8809 62.8291C52.8809 61.0897 51.4708 59.6797 49.7314 59.6797C47.9921 59.6797 46.582 61.0897 46.582 62.8291C46.582 64.5685 47.9921 65.9785 49.7314 65.9785Z" fill="white"/>
<path d="M49.7314 78.5762C51.4708 78.5762 52.8809 77.1661 52.8809 75.4268C52.8809 73.6874 51.4708 72.2773 49.7314 72.2773C47.9921 72.2773 46.582 73.6874 46.582 75.4268C46.582 77.1661 47.9921 78.5762 49.7314 78.5762Z" fill="white"/>
<path d="M49.7314 91.1738C51.4708 91.1738 52.8809 89.7638 52.8809 88.0244C52.8809 86.285 51.4708 84.875 49.7314 84.875C47.9921 84.875 46.582 86.285 46.582 88.0244C46.582 89.7638 47.9921 91.1738 49.7314 91.1738Z" fill="white"/>
<path d="M56.0303 65.9785C57.7696 65.9785 59.1797 64.5685 59.1797 62.8291C59.1797 61.0897 57.7696 59.6797 56.0303 59.6797C54.2909 59.6797 52.8809 61.0897 52.8809 62.8291C52.8809 64.5685 54.2909 65.9785 56.0303 65.9785Z" fill="white"/>
<path d="M56.0303 72.2773C57.7696 72.2773 59.1797 70.8673 59.1797 69.1279C59.1797 67.3886 57.7696 65.9785 56.0303 65.9785C54.2909 65.9785 52.8809 67.3886 52.8809 69.1279C52.8809 70.8673 54.2909 72.2773 56.0303 72.2773Z" fill="white"/>
<path d="M56.0303 78.5762C57.7696 78.5762 59.1797 77.1661 59.1797 75.4268C59.1797 73.6874 57.7696 72.2773 56.0303 72.2773C54.2909 72.2773 52.8809 73.6874 52.8809 75.4268C52.8809 77.1661 54.2909 78.5762 56.0303 78.5762Z" fill="white"/>
<path d="M56.0303 91.1738C57.7696 91.1738 59.1797 89.7638 59.1797 88.0244C59.1797 86.285 57.7696 84.875 56.0303 84.875C54.2909 84.875 52.8809 86.285 52.8809 88.0244C52.8809 89.7638 54.2909 91.1738 56.0303 91.1738Z" fill="white"/>
<path d="M62.3291 21.8868C64.0685 21.8868 65.4785 20.4767 65.4785 18.7374C65.4785 16.998 64.0685 15.588 62.3291 15.588C60.5897 15.588 59.1797 16.998 59.1797 18.7374C59.1797 20.4767 60.5897 21.8868 62.3291 21.8868Z" fill="white"/>
<path d="M62.3291 34.4844C64.0685 34.4844 65.4785 33.0743 65.4785 31.335C65.4785 29.5956 64.0685 28.1855 62.3291 28.1855C60.5897 28.1855 59.1797 29.5956 59.1797 31.335C59.1797 33.0743 60.5897 34.4844 62.3291 34.4844Z" fill="white"/>
<path d="M62.3291 40.7832C64.0685 40.7832 65.4785 39.3732 65.4785 37.6338C65.4785 35.8944 64.0685 34.4844 62.3291 34.4844C60.5897 34.4844 59.1797 35.8944 59.1797 37.6338C59.1797 39.3732 60.5897 40.7832 62.3291 40.7832Z" fill="white"/>
<path d="M62.3291 47.082C64.0685 47.082 65.4785 45.672 65.4785 43.9326C65.4785 42.1932 64.0685 40.7832 62.3291 40.7832C60.5897 40.7832 59.1797 42.1932 59.1797 43.9326C59.1797 45.672 60.5897 47.082 62.3291 47.082Z" fill="white"/>
<path d="M62.3291 53.3809C64.0685 53.3809 65.4785 51.9708 65.4785 50.2314C65.4785 48.4921 64.0685 47.082 62.3291 47.082C60.5897 47.082 59.1797 48.4921 59.1797 50.2314C59.1797 51.9708 60.5897 53.3809 62.3291 53.3809Z" fill="white"/>
<path d="M62.3291 65.9785C64.0685 65.9785 65.4785 64.5685 65.4785 62.8291C65.4785 61.0897 64.0685 59.6797 62.3291 59.6797C60.5897 59.6797 59.1797 61.0897 59.1797 62.8291C59.1797 64.5685 60.5897 65.9785 62.3291 65.9785Z" fill="white"/>
<path d="M62.3291 78.5762C64.0685 78.5762 65.4785 77.1661 65.4785 75.4268C65.4785 73.6874 64.0685 72.2773 62.3291 72.2773C60.5897 72.2773 59.1797 73.6874 59.1797 75.4268C59.1797 77.1661 60.5897 78.5762 62.3291 78.5762Z" fill="white"/>
<path d="M62.3291 91.1738C64.0685 91.1738 65.4785 89.7638 65.4785 88.0244C65.4785 86.285 64.0685 84.875 62.3291 84.875C60.5897 84.875 59.1797 86.285 59.1797 88.0244C59.1797 89.7638 60.5897 91.1738 62.3291 91.1738Z" fill="white"/>
<path d="M62.3291 97.4727C64.0685 97.4727 65.4785 96.0626 65.4785 94.3232C65.4785 92.5839 64.0685 91.1738 62.3291 91.1738C60.5897 91.1738 59.1797 92.5839 59.1797 94.3232C59.1797 96.0626 60.5897 97.4727 62.3291 97.4727Z" fill="white"/>
<path d="M62.3291 103.771C64.0685 103.771 65.4785 102.361 65.4785 100.622C65.4785 98.8827 64.0685 97.4727 62.3291 97.4727C60.5897 97.4727 59.1797 98.8827 59.1797 100.622C59.1797 102.361 60.5897 103.771 62.3291 103.771Z" fill="white"/>
<path d="M62.3291 116.369C64.0685 116.369 65.4785 114.959 65.4785 113.22C65.4785 111.48 64.0685 110.07 62.3291 110.07C60.5897 110.07 59.1797 111.48 59.1797 113.22C59.1797 114.959 60.5897 116.369 62.3291 116.369Z" fill="white"/>
<path d="M62.3291 122.668C64.0685 122.668 65.4785 121.258 65.4785 119.519C65.4785 117.779 64.0685 116.369 62.3291 116.369C60.5897 116.369 59.1797 117.779 59.1797 119.519C59.1797 121.258 60.5897 122.668 62.3291 122.668Z" fill="white"/>
<path d="M62.3291 135.266C64.0685 135.266 65.4785 133.856 65.4785 132.116C65.4785 130.377 64.0685 128.967 62.3291 128.967C60.5897 128.967 59.1797 130.377 59.1797 132.116C59.1797 133.856 60.5897 135.266 62.3291 135.266Z" fill="white"/>
<path d="M68.6279 28.1855C70.3673 28.1855 71.7773 26.7755 71.7773 25.0361C71.7773 23.2968 70.3673 21.8867 68.6279 21.8867C66.8886 21.8867 65.4785 23.2968 65.4785 25.0361C65.4785 26.7755 66.8886 28.1855 68.6279 28.1855Z" fill="white"/>
<path d="M68.6279 34.4844C70.3673 34.4844 71.7773 33.0743 71.7773 31.335C71.7773 29.5956 70.3673 28.1855 68.6279 28.1855C66.8886 28.1855 65.4785 29.5956 65.4785 31.335C65.4785 33.0743 66.8886 34.4844 68.6279 34.4844Z" fill="white"/>
<path d="M68.6279 65.9785C70.3673 65.9785 71.7773 64.5685 71.7773 62.8291C71.7773 61.0897 70.3673 59.6797 68.6279 59.6797C66.8886 59.6797 65.4785 61.0897 65.4785 62.8291C65.4785 64.5685 66.8886 65.9785 68.6279 65.9785Z" fill="white"/>
<path d="M68.6279 72.2773C70.3673 72.2773 71.7773 70.8673 71.7773 69.1279C71.7773 67.3886 70.3673 65.9785 68.6279 65.9785C66.8886 65.9785 65.4785 67.3886 65.4785 69.1279C65.4785 70.8673 66.8886 72.2773 68.6279 72.2773Z" fill="white"/>
<path d="M68.6279 97.4727C70.3673 97.4727 71.7773 96.0626 71.7773 94.3232C71.7773 92.5839 70.3673 91.1738 68.6279 91.1738C66.8886 91.1738 65.4785 92.5839 65.4785 94.3232C65.4785 96.0626 66.8886 97.4727 68.6279 97.4727Z" fill="white"/>
<path d="M68.6279 116.369C70.3673 116.369 71.7773 114.959 71.7773 113.22C71.7773 111.48 70.3673 110.07 68.6279 110.07C66.8886 110.07 65.4785 111.48 65.4785 113.22C65.4785 114.959 66.8886 116.369 68.6279 116.369Z" fill="white"/>
<path d="M68.6279 122.668C70.3673 122.668 71.7773 121.258 71.7773 119.519C71.7773 117.779 70.3673 116.369 68.6279 116.369C66.8886 116.369 65.4785 117.779 65.4785 119.519C65.4785 121.258 66.8886 122.668 68.6279 122.668Z" fill="white"/>
<path d="M68.6279 141.564C70.3673 141.564 71.7773 140.154 71.7773 138.415C71.7773 136.676 70.3673 135.266 68.6279 135.266C66.8886 135.266 65.4785 136.676 65.4785 138.415C65.4785 140.154 66.8886 141.564 68.6279 141.564Z" fill="white"/>
<path d="M74.9268 21.8868C76.6661 21.8868 78.0762 20.4767 78.0762 18.7374C78.0762 16.998 76.6661 15.588 74.9268 15.588C73.1874 15.588 71.7773 16.998 71.7773 18.7374C71.7773 20.4767 73.1874 21.8868 74.9268 21.8868Z" fill="white"/>
<path d="M74.9268 34.4844C76.6661 34.4844 78.0762 33.0743 78.0762 31.335C78.0762 29.5956 76.6661 28.1855 74.9268 28.1855C73.1874 28.1855 71.7773 29.5956 71.7773 31.335C71.7773 33.0743 73.1874 34.4844 74.9268 34.4844Z" fill="white"/>
<path d="M74.9268 53.3809C76.6661 53.3809 78.0762 51.9708 78.0762 50.2314C78.0762 48.4921 76.6661 47.082 74.9268 47.082C73.1874 47.082 71.7773 48.4921 71.7773 50.2314C71.7773 51.9708 73.1874 53.3809 74.9268 53.3809Z" fill="white"/>
<path d="M74.9268 72.2773C76.6661 72.2773 78.0762 70.8673 78.0762 69.1279C78.0762 67.3886 76.6661 65.9785 74.9268 65.9785C73.1874 65.9785 71.7773 67.3886 71.7773 69.1279C71.7773 70.8673 73.1874 72.2773 74.9268 72.2773Z" fill="white"/>
<path d="M74.9268 78.5762C76.6661 78.5762 78.0762 77.1661 78.0762 75.4268C78.0762 73.6874 76.6661 72.2773 74.9268 72.2773C73.1874 72.2773 71.7773 73.6874 71.7773 75.4268C71.7773 77.1661 73.1874 78.5762 74.9268 78.5762Z" fill="white"/>
<path d="M74.9268 84.875C76.6661 84.875 78.0762 83.465 78.0762 81.7256C78.0762 79.9862 76.6661 78.5762 74.9268 78.5762C73.1874 78.5762 71.7773 79.9862 71.7773 81.7256C71.7773 83.465 73.1874 84.875 74.9268 84.875Z" fill="white"/>
<path d="M74.9268 110.07C76.6661 110.07 78.0762 108.66 78.0762 106.921C78.0762 105.182 76.6661 103.771 74.9268 103.771C73.1874 103.771 71.7773 105.182 71.7773 106.921C71.7773 108.66 73.1874 110.07 74.9268 110.07Z" fill="white"/>
<path d="M74.9268 122.668C76.6661 122.668 78.0762 121.258 78.0762 119.519C78.0762 117.779 76.6661 116.369 74.9268 116.369C73.1874 116.369 71.7773 117.779 71.7773 119.519C71.7773 121.258 73.1874 122.668 74.9268 122.668Z" fill="white"/>
<path d="M74.9268 128.967C76.6661 128.967 78.0762 127.557 78.0762 125.817C78.0762 124.078 76.6661 122.668 74.9268 122.668C73.1874 122.668 71.7773 124.078 71.7773 125.817C71.7773 127.557 73.1874 128.967 74.9268 128.967Z" fill="white"/>
<path d="M74.9268 135.266C76.6661 135.266 78.0762 133.856 78.0762 132.116C78.0762 130.377 76.6661 128.967 74.9268 128.967C73.1874 128.967 71.7773 130.377 71.7773 132.116C71.7773 133.856 73.1874 135.266 74.9268 135.266Z" fill="white"/>
<path d="M81.2256 15.588C82.965 15.588 84.375 14.1779 84.375 12.4385C84.375 10.6992 82.965 9.28912 81.2256 9.28912C79.4862 9.28912 78.0762 10.6992 78.0762 12.4385C78.0762 14.1779 79.4862 15.588 81.2256 15.588Z" fill="white"/>
<path d="M81.2256 28.1855C82.965 28.1855 84.375 26.7755 84.375 25.0361C84.375 23.2968 82.965 21.8867 81.2256 21.8867C79.4862 21.8867 78.0762 23.2968 78.0762 25.0361C78.0762 26.7755 79.4862 28.1855 81.2256 28.1855Z" fill="white"/>
<path d="M81.2256 34.4844C82.965 34.4844 84.375 33.0743 84.375 31.335C84.375 29.5956 82.965 28.1855 81.2256 28.1855C79.4862 28.1855 78.0762 29.5956 78.0762 31.335C78.0762 33.0743 79.4862 34.4844 81.2256 34.4844Z" fill="white"/>
<path d="M81.2256 47.082C82.965 47.082 84.375 45.672 84.375 43.9326C84.375 42.1932 82.965 40.7832 81.2256 40.7832C79.4862 40.7832 78.0762 42.1932 78.0762 43.9326C78.0762 45.672 79.4862 47.082 81.2256 47.082Z" fill="white"/>
<path d="M81.2256 65.9785C82.965 65.9785 84.375 64.5685 84.375 62.8291C84.375 61.0897 82.965 59.6797 81.2256 59.6797C79.4862 59.6797 78.0762 61.0897 78.0762 62.8291C78.0762 64.5685 79.4862 65.9785 81.2256 65.9785Z" fill="white"/>
<path d="M81.2256 72.2773C82.965 72.2773 84.375 70.8673 84.375 69.1279C84.375 67.3886 82.965 65.9785 81.2256 65.9785C79.4862 65.9785 78.0762 67.3886 78.0762 69.1279C78.0762 70.8673 79.4862 72.2773 81.2256 72.2773Z" fill="white"/>
<path d="M81.2256 97.4727C82.965 97.4727 84.375 96.0626 84.375 94.3232C84.375 92.5839 82.965 91.1738 81.2256 91.1738C79.4862 91.1738 78.0762 92.5839 78.0762 94.3232C78.0762 96.0626 79.4862 97.4727 81.2256 97.4727Z" fill="white"/>
<path d="M81.2256 103.771C82.965 103.771 84.375 102.361 84.375 100.622C84.375 98.8827 82.965 97.4727 81.2256 97.4727C79.4862 97.4727 78.0762 98.8827 78.0762 100.622C78.0762 102.361 79.4862 103.771 81.2256 103.771Z" fill="white"/>
<path d="M81.2256 116.369C82.965 116.369 84.375 114.959 84.375 113.22C84.375 111.48 82.965 110.07 81.2256 110.07C79.4862 110.07 78.0762 111.48 78.0762 113.22C78.0762 114.959 79.4862 116.369 81.2256 116.369Z" fill="white"/>
<path d="M81.2256 122.668C82.965 122.668 84.375 121.258 84.375 119.519C84.375 117.779 82.965 116.369 81.2256 116.369C79.4862 116.369 78.0762 117.779 78.0762 119.519C78.0762 121.258 79.4862 122.668 81.2256 122.668Z" fill="white"/>
<path d="M81.2256 135.266C82.965 135.266 84.375 133.856 84.375 132.116C84.375 130.377 82.965 128.967 81.2256 128.967C79.4862 128.967 78.0762 130.377 78.0762 132.116C78.0762 133.856 79.4862 135.266 81.2256 135.266Z" fill="white"/>
<path d="M87.5244 15.588C89.2638 15.588 90.6738 14.1779 90.6738 12.4385C90.6738 10.6992 89.2638 9.28912 87.5244 9.28912C85.785 9.28912 84.375 10.6992 84.375 12.4385C84.375 14.1779 85.785 15.588 87.5244 15.588Z" fill="white"/>
<path d="M87.5244 28.1855C89.2638 28.1855 90.6738 26.7755 90.6738 25.0361C90.6738 23.2968 89.2638 21.8867 87.5244 21.8867C85.785 21.8867 84.375 23.2968 84.375 25.0361C84.375 26.7755 85.785 28.1855 87.5244 28.1855Z" fill="white"/>
<path d="M87.5244 40.7832C89.2638 40.7832 90.6738 39.3732 90.6738 37.6338C90.6738 35.8944 89.2638 34.4844 87.5244 34.4844C85.785 34.4844 84.375 35.8944 84.375 37.6338C84.375 39.3732 85.785 40.7832 87.5244 40.7832Z" fill="white"/>
<path d="M87.5244 53.3809C89.2638 53.3809 90.6738 51.9708 90.6738 50.2314C90.6738 48.4921 89.2638 47.082 87.5244 47.082C85.785 47.082 84.375 48.4921 84.375 50.2314C84.375 51.9708 85.785 53.3809 87.5244 53.3809Z" fill="white"/>
<path d="M87.5244 59.6797C89.2638 59.6797 90.6738 58.2696 90.6738 56.5303C90.6738 54.7909 89.2638 53.3809 87.5244 53.3809C85.785 53.3809 84.375 54.7909 84.375 56.5303C84.375 58.2696 85.785 59.6797 87.5244 59.6797Z" fill="white"/>
<path d="M87.5244 65.9785C89.2638 65.9785 90.6738 64.5685 90.6738 62.8291C90.6738 61.0897 89.2638 59.6797 87.5244 59.6797C85.785 59.6797 84.375 61.0897 84.375 62.8291C84.375 64.5685 85.785 65.9785 87.5244 65.9785Z" fill="white"/>
<path d="M87.5244 72.2773C89.2638 72.2773 90.6738 70.8673 90.6738 69.1279C90.6738 67.3886 89.2638 65.9785 87.5244 65.9785C85.785 65.9785 84.375 67.3886 84.375 69.1279C84.375 70.8673 85.785 72.2773 87.5244 72.2773Z" fill="white"/>
<path d="M87.5244 91.1738C89.2638 91.1738 90.6738 89.7638 90.6738 88.0244C90.6738 86.285 89.2638 84.875 87.5244 84.875C85.785 84.875 84.375 86.285 84.375 88.0244C84.375 89.7638 85.785 91.1738 87.5244 91.1738Z" fill="white"/>
<path d="M87.5244 97.4727C89.2638 97.4727 90.6738 96.0626 90.6738 94.3232C90.6738 92.5839 89.2638 91.1738 87.5244 91.1738C85.785 91.1738 84.375 92.5839 84.375 94.3232C84.375 96.0626 85.785 97.4727 87.5244 97.4727Z" fill="white"/>
<path d="M87.5244 103.771C89.2638 103.771 90.6738 102.361 90.6738 100.622C90.6738 98.8827 89.2638 97.4727 87.5244 97.4727C85.785 97.4727 84.375 98.8827 84.375 100.622C84.375 102.361 85.785 103.771 87.5244 103.771Z" fill="white"/>
<path d="M87.5244 116.369C89.2638 116.369 90.6738 114.959 90.6738 113.22C90.6738 111.48 89.2638 110.07 87.5244 110.07C85.785 110.07 84.375 111.48 84.375 113.22C84.375 114.959 85.785 116.369 87.5244 116.369Z" fill="white"/>
<path d="M87.5244 122.668C89.2638 122.668 90.6738 121.258 90.6738 119.519C90.6738 117.779 89.2638 116.369 87.5244 116.369C85.785 116.369 84.375 117.779 84.375 119.519C84.375 121.258 85.785 122.668 87.5244 122.668Z" fill="white"/>
<path d="M93.8232 65.9785C95.5626 65.9785 96.9727 64.5685 96.9727 62.8291C96.9727 61.0897 95.5626 59.6797 93.8232 59.6797C92.0839 59.6797 90.6738 61.0897 90.6738 62.8291C90.6738 64.5685 92.0839 65.9785 93.8232 65.9785Z" fill="white"/>
<path d="M93.8232 84.875C95.5626 84.875 96.9727 83.465 96.9727 81.7256C96.9727 79.9862 95.5626 78.5762 93.8232 78.5762C92.0839 78.5762 90.6738 79.9862 90.6738 81.7256C90.6738 83.465 92.0839 84.875 93.8232 84.875Z" fill="white"/>
<path d="M93.8232 91.1738C95.5626 91.1738 96.9727 89.7638 96.9727 88.0244C96.9727 86.285 95.5626 84.875 93.8232 84.875C92.0839 84.875 90.6738 86.285 90.6738 88.0244C90.6738 89.7638 92.0839 91.1738 93.8232 91.1738Z" fill="white"/>
<path d="M93.8232 97.4727C95.5626 97.4727 96.9727 96.0626 96.9727 94.3232C96.9727 92.5839 95.5626 91.1738 93.8232 91.1738C92.0839 91.1738 90.6738 92.5839 90.6738 94.3232C90.6738 96.0626 92.0839 97.4727 93.8232 97.4727Z" fill="white"/>
<path d="M93.8232 103.771C95.5626 103.771 96.9727 102.361 96.9727 100.622C96.9727 98.8827 95.5626 97.4727 93.8232 97.4727C92.0839 97.4727 90.6738 98.8827 90.6738 100.622C90.6738 102.361 92.0839 103.771 93.8232 103.771Z" fill="white"/>
<path d="M93.8232 116.369C95.5626 116.369 96.9727 114.959 96.9727 113.22C96.9727 111.48 95.5626 110.07 93.8232 110.07C92.0839 110.07 90.6738 111.48 90.6738 113.22C90.6738 114.959 92.0839 116.369 93.8232 116.369Z" fill="white"/>
<path d="M93.8232 122.668C95.5626 122.668 96.9727 121.258 96.9727 119.519C96.9727 117.779 95.5626 116.369 93.8232 116.369C92.0839 116.369 90.6738 117.779 90.6738 119.519C90.6738 121.258 92.0839 122.668 93.8232 122.668Z" fill="white"/>
<path d="M93.8232 128.967C95.5626 128.967 96.9727 127.557 96.9727 125.817C96.9727 124.078 95.5626 122.668 93.8232 122.668C92.0839 122.668 90.6738 124.078 90.6738 125.817C90.6738 127.557 92.0839 128.967 93.8232 128.967Z" fill="white"/>
<path d="M93.8232 135.266C95.5626 135.266 96.9727 133.856 96.9727 132.116C96.9727 130.377 95.5626 128.967 93.8232 128.967C92.0839 128.967 90.6738 130.377 90.6738 132.116C90.6738 133.856 92.0839 135.266 93.8232 135.266Z" fill="white"/>
<path d="M100.122 72.2773C101.861 72.2773 103.271 70.8673 103.271 69.1279C103.271 67.3886 101.861 65.9785 100.122 65.9785C98.3827 65.9785 96.9727 67.3886 96.9727 69.1279C96.9727 70.8673 98.3827 72.2773 100.122 72.2773Z" fill="white"/>
<path d="M100.122 110.07C101.861 110.07 103.271 108.66 103.271 106.921C103.271 105.182 101.861 103.771 100.122 103.771C98.3827 103.771 96.9727 105.182 96.9727 106.921C96.9727 108.66 98.3827 110.07 100.122 110.07Z" fill="white"/>
<path d="M100.122 116.369C101.861 116.369 103.271 114.959 103.271 113.22C103.271 111.48 101.861 110.07 100.122 110.07C98.3827 110.07 96.9727 111.48 96.9727 113.22C96.9727 114.959 98.3827 116.369 100.122 116.369Z" fill="white"/>
<path d="M100.122 135.266C101.861 135.266 103.271 133.856 103.271 132.116C103.271 130.377 101.861 128.967 100.122 128.967C98.3827 128.967 96.9727 130.377 96.9727 132.116C96.9727 133.856 98.3827 135.266 100.122 135.266Z" fill="white"/>
<path d="M106.421 65.9785C108.16 65.9785 109.57 64.5685 109.57 62.8291C109.57 61.0897 108.16 59.6797 106.421 59.6797C104.682 59.6797 103.271 61.0897 103.271 62.8291C103.271 64.5685 104.682 65.9785 106.421 65.9785Z" fill="white"/>
<path d="M106.421 72.2773C108.16 72.2773 109.57 70.8673 109.57 69.1279C109.57 67.3886 108.16 65.9785 106.421 65.9785C104.682 65.9785 103.271 67.3886 103.271 69.1279C103.271 70.8673 104.682 72.2773 106.421 72.2773Z" fill="white"/>
<path d="M106.421 84.875C108.16 84.875 109.57 83.465 109.57 81.7256C109.57 79.9862 108.16 78.5762 106.421 78.5762C104.682 78.5762 103.271 79.9862 103.271 81.7256C103.271 83.465 104.682 84.875 106.421 84.875Z" fill="white"/>
<path d="M106.421 103.771C108.16 103.771 109.57 102.361 109.57 100.622C109.57 98.8827 108.16 97.4727 106.421 97.4727C104.682 97.4727 103.271 98.8827 103.271 100.622C103.271 102.361 104.682 103.771 106.421 103.771Z" fill="white"/>
<path d="M106.421 116.369C108.16 116.369 109.57 114.959 109.57 113.22C109.57 111.48 108.16 110.07 106.421 110.07C104.682 110.07 103.271 111.48 103.271 113.22C103.271 114.959 104.682 116.369 106.421 116.369Z" fill="white"/>
<path d="M106.421 122.668C108.16 122.668 109.57 121.258 109.57 119.519C109.57 117.779 108.16 116.369 106.421 116.369C104.682 116.369 103.271 117.779 103.271 119.519C103.271 121.258 104.682 122.668 106.421 122.668Z" fill="white"/>
<path d="M106.421 141.564C108.16 141.564 109.57 140.154 109.57 138.415C109.57 136.676 108.16 135.266 106.421 135.266C104.682 135.266 103.271 136.676 103.271 138.415C103.271 140.154 104.682 141.564 106.421 141.564Z" fill="white"/>
<path d="M112.72 65.9785C114.459 65.9785 115.869 64.5685 115.869 62.8291C115.869 61.0897 114.459 59.6797 112.72 59.6797C110.98 59.6797 109.57 61.0897 109.57 62.8291C109.57 64.5685 110.98 65.9785 112.72 65.9785Z" fill="white"/>
<path d="M112.72 72.2773C114.459 72.2773 115.869 70.8673 115.869 69.1279C115.869 67.3886 114.459 65.9785 112.72 65.9785C110.98 65.9785 109.57 67.3886 109.57 69.1279C109.57 70.8673 110.98 72.2773 112.72 72.2773Z" fill="white"/>
<path d="M112.72 78.5762C114.459 78.5762 115.869 77.1661 115.869 75.4268C115.869 73.6874 114.459 72.2773 112.72 72.2773C110.98 72.2773 109.57 73.6874 109.57 75.4268C109.57 77.1661 110.98 78.5762 112.72 78.5762Z" fill="white"/>
<path d="M112.72 91.1738C114.459 91.1738 115.869 89.7638 115.869 88.0244C115.869 86.285 114.459 84.875 112.72 84.875C110.98 84.875 109.57 86.285 109.57 88.0244C109.57 89.7638 110.98 91.1738 112.72 91.1738Z" fill="white"/>
<path d="M112.72 97.4727C114.459 97.4727 115.869 96.0626 115.869 94.3232C115.869 92.5839 114.459 91.1738 112.72 91.1738C110.98 91.1738 109.57 92.5839 109.57 94.3232C109.57 96.0626 110.98 97.4727 112.72 97.4727Z" fill="white"/>
<path d="M112.72 103.771C114.459 103.771 115.869 102.361 115.869 100.622C115.869 98.8827 114.459 97.4727 112.72 97.4727C110.98 97.4727 109.57 98.8827 109.57 100.622C109.57 102.361 110.98 103.771 112.72 103.771Z" fill="white"/>
<path d="M112.72 110.07C114.459 110.07 115.869 108.66 115.869 106.921C115.869 105.182 114.459 103.771 112.72 103.771C110.98 103.771 109.57 105.182 109.57 106.921C109.57 108.66 110.98 110.07 112.72 110.07Z" fill="white"/>
<path d="M112.72 116.369C114.459 116.369 115.869 114.959 115.869 113.22C115.869 111.48 114.459 110.07 112.72 110.07C110.98 110.07 109.57 111.48 109.57 113.22C109.57 114.959 110.98 116.369 112.72 116.369Z" fill="white"/>
<path d="M112.72 122.668C114.459 122.668 115.869 121.258 115.869 119.519C115.869 117.779 114.459 116.369 112.72 116.369C110.98 116.369 109.57 117.779 109.57 119.519C109.57 121.258 110.98 122.668 112.72 122.668Z" fill="white"/>
<path d="M112.72 128.967C114.459 128.967 115.869 127.557 115.869 125.817C115.869 124.078 114.459 122.668 112.72 122.668C110.98 122.668 109.57 124.078 109.57 125.817C109.57 127.557 110.98 128.967 112.72 128.967Z" fill="white"/>
<path d="M112.72 135.266C114.459 135.266 115.869 133.856 115.869 132.116C115.869 130.377 114.459 128.967 112.72 128.967C110.98 128.967 109.57 130.377 109.57 132.116C109.57 133.856 110.98 135.266 112.72 135.266Z" fill="white"/>
<path d="M112.72 141.564C114.459 141.564 115.869 140.154 115.869 138.415C115.869 136.676 114.459 135.266 112.72 135.266C110.98 135.266 109.57 136.676 109.57 138.415C109.57 140.154 110.98 141.564 112.72 141.564Z" fill="white"/>
<path d="M119.019 65.9785C120.758 65.9785 122.168 64.5685 122.168 62.8291C122.168 61.0897 120.758 59.6797 119.019 59.6797C117.279 59.6797 115.869 61.0897 115.869 62.8291C115.869 64.5685 117.279 65.9785 119.019 65.9785Z" fill="white"/>
<path d="M119.019 72.2773C120.758 72.2773 122.168 70.8673 122.168 69.1279C122.168 67.3886 120.758 65.9785 119.019 65.9785C117.279 65.9785 115.869 67.3886 115.869 69.1279C115.869 70.8673 117.279 72.2773 119.019 72.2773Z" fill="white"/>
<path d="M119.019 91.1738C120.758 91.1738 122.168 89.7638 122.168 88.0244C122.168 86.285 120.758 84.875 119.019 84.875C117.279 84.875 115.869 86.285 115.869 88.0244C115.869 89.7638 117.279 91.1738 119.019 91.1738Z" fill="white"/>
<path d="M119.019 97.4727C120.758 97.4727 122.168 96.0626 122.168 94.3232C122.168 92.5839 120.758 91.1738 119.019 91.1738C117.279 91.1738 115.869 92.5839 115.869 94.3232C115.869 96.0626 117.279 97.4727 119.019 97.4727Z" fill="white"/>
<path d="M119.019 103.771C120.758 103.771 122.168 102.361 122.168 100.622C122.168 98.8827 120.758 97.4727 119.019 97.4727C117.279 97.4727 115.869 98.8827 115.869 100.622C115.869 102.361 117.279 103.771 119.019 103.771Z" fill="white"/>
<path d="M119.019 128.967C120.758 128.967 122.168 127.557 122.168 125.817C122.168 124.078 120.758 122.668 119.019 122.668C117.279 122.668 115.869 124.078 115.869 125.817C115.869 127.557 117.279 128.967 119.019 128.967Z" fill="white"/>
<path d="M125.317 84.875C127.057 84.875 128.467 83.465 128.467 81.7256C128.467 79.9862 127.057 78.5762 125.317 78.5762C123.578 78.5762 122.168 79.9862 122.168 81.7256C122.168 83.465 123.578 84.875 125.317 84.875Z" fill="white"/>
<path d="M125.317 91.1738C127.057 91.1738 128.467 89.7638 128.467 88.0244C128.467 86.285 127.057 84.875 125.317 84.875C123.578 84.875 122.168 86.285 122.168 88.0244C122.168 89.7638 123.578 91.1738 125.317 91.1738Z" fill="white"/>
<path d="M125.317 97.4727C127.057 97.4727 128.467 96.0626 128.467 94.3232C128.467 92.5839 127.057 91.1738 125.317 91.1738C123.578 91.1738 122.168 92.5839 122.168 94.3232C122.168 96.0626 123.578 97.4727 125.317 97.4727Z" fill="white"/>
<path d="M125.317 110.07C127.057 110.07 128.467 108.66 128.467 106.921C128.467 105.182 127.057 103.771 125.317 103.771C123.578 103.771 122.168 105.182 122.168 106.921C122.168 108.66 123.578 110.07 125.317 110.07Z" fill="white"/>
<path d="M125.317 116.369C127.057 116.369 128.467 114.959 128.467 113.22C128.467 111.48 127.057 110.07 125.317 110.07C123.578 110.07 122.168 111.48 122.168 113.22C122.168 114.959 123.578 116.369 125.317 116.369Z" fill="white"/>
<path d="M125.317 122.668C127.057 122.668 128.467 121.258 128.467 119.519C128.467 117.779 127.057 116.369 125.317 116.369C123.578 116.369 122.168 117.779 122.168 119.519C122.168 121.258 123.578 122.668 125.317 122.668Z" fill="white"/>
<path d="M125.317 135.266C127.057 135.266 128.467 133.856 128.467 132.116C128.467 130.377 127.057 128.967 125.317 128.967C123.578 128.967 122.168 130.377 122.168 132.116C122.168 133.856 123.578 135.266 125.317 135.266Z" fill="white"/>
<path d="M125.317 141.564C127.057 141.564 128.467 140.154 128.467 138.415C128.467 136.676 127.057 135.266 125.317 135.266C123.578 135.266 122.168 136.676 122.168 138.415C122.168 140.154 123.578 141.564 125.317 141.564Z" fill="white"/>
<path d="M131.616 65.9785C133.356 65.9785 134.766 64.5685 134.766 62.8291C134.766 61.0897 133.356 59.6797 131.616 59.6797C129.877 59.6797 128.467 61.0897 128.467 62.8291C128.467 64.5685 129.877 65.9785 131.616 65.9785Z" fill="white"/>
<path d="M131.616 72.2773C133.356 72.2773 134.766 70.8673 134.766 69.1279C134.766 67.3886 133.356 65.9785 131.616 65.9785C129.877 65.9785 128.467 67.3886 128.467 69.1279C128.467 70.8673 129.877 72.2773 131.616 72.2773Z" fill="white"/>
<path d="M131.616 84.875C133.356 84.875 134.766 83.465 134.766 81.7256C134.766 79.9862 133.356 78.5762 131.616 78.5762C129.877 78.5762 128.467 79.9862 128.467 81.7256C128.467 83.465 129.877 84.875 131.616 84.875Z" fill="white"/>
<path d="M131.616 91.1738C133.356 91.1738 134.766 89.7638 134.766 88.0244C134.766 86.285 133.356 84.875 131.616 84.875C129.877 84.875 128.467 86.285 128.467 88.0244C128.467 89.7638 129.877 91.1738 131.616 91.1738Z" fill="white"/>
<path d="M131.616 110.07C133.356 110.07 134.766 108.66 134.766 106.921C134.766 105.182 133.356 103.771 131.616 103.771C129.877 103.771 128.467 105.182 128.467 106.921C128.467 108.66 129.877 110.07 131.616 110.07Z" fill="white"/>
<path d="M131.616 122.668C133.356 122.668 134.766 121.258 134.766 119.519C134.766 117.779 133.356 116.369 131.616 116.369C129.877 116.369 128.467 117.779 128.467 119.519C128.467 121.258 129.877 122.668 131.616 122.668Z" fill="white"/>
<path d="M131.616 141.564C133.356 141.564 134.766 140.154 134.766 138.415C134.766 136.676 133.356 135.266 131.616 135.266C129.877 135.266 128.467 136.676 128.467 138.415C128.467 140.154 129.877 141.564 131.616 141.564Z" fill="white"/>
<path d="M137.915 72.2773C139.654 72.2773 141.064 70.8673 141.064 69.1279C141.064 67.3886 139.654 65.9785 137.915 65.9785C136.176 65.9785 134.766 67.3886 134.766 69.1279C134.766 70.8673 136.176 72.2773 137.915 72.2773Z" fill="white"/>
<path d="M137.915 91.1738C139.654 91.1738 141.064 89.7638 141.064 88.0244C141.064 86.285 139.654 84.875 137.915 84.875C136.176 84.875 134.766 86.285 134.766 88.0244C134.766 89.7638 136.176 91.1738 137.915 91.1738Z" fill="white"/>
<path d="M137.915 97.4727C139.654 97.4727 141.064 96.0626 141.064 94.3232C141.064 92.5839 139.654 91.1738 137.915 91.1738C136.176 91.1738 134.766 92.5839 134.766 94.3232C134.766 96.0626 136.176 97.4727 137.915 97.4727Z" fill="white"/>
<path d="M137.915 122.668C139.654 122.668 141.064 121.258 141.064 119.519C141.064 117.779 139.654 116.369 137.915 116.369C136.176 116.369 134.766 117.779 134.766 119.519C134.766 121.258 136.176 122.668 137.915 122.668Z" fill="white"/>
<path d="M137.915 128.967C139.654 128.967 141.064 127.557 141.064 125.817C141.064 124.078 139.654 122.668 137.915 122.668C136.176 122.668 134.766 124.078 134.766 125.817C134.766 127.557 136.176 128.967 137.915 128.967Z" fill="white"/>
<path d="M137.915 135.266C139.654 135.266 141.064 133.856 141.064 132.116C141.064 130.377 139.654 128.967 137.915 128.967C136.176 128.967 134.766 130.377 134.766 132.116C134.766 133.856 136.176 135.266 137.915 135.266Z" fill="white"/>
</mask>
<g mask="url(#mask0_4673_47403)">
<path d="M141.064 9.28912H8.78906V141.565H141.064V9.28912Z" fill="black"/>
</g>
<mask id="mask1_4673_47403" style="mask-type:luminance" maskUnits="userSpaceOnUse" x="8" y="9" width="45" height="45">
<path fill-rule="evenodd" clip-rule="evenodd" d="M8.78906 25.0362V37.6339C8.78906 41.8102 10.4481 45.8156 13.4013 48.7687C16.3544 51.7219 20.3597 53.3809 24.5361 53.3809H37.1338C41.3102 53.3809 45.3155 51.7219 48.2687 48.7687C51.2218 45.8156 52.8809 41.8102 52.8809 37.6339V25.0362C52.8809 20.8598 51.2218 16.8545 48.2687 13.9013C45.3155 10.9482 41.3102 9.28912 37.1338 9.28912H24.5361C20.3597 9.28912 16.3544 10.9482 13.4013 13.9013C10.4481 16.8545 8.78906 20.8598 8.78906 25.0362ZM24.5361 15.588H37.1338C39.6396 15.588 42.0428 16.5834 43.8147 18.3553C45.5866 20.1272 46.582 22.5304 46.582 25.0362V37.6339C46.582 40.1397 45.5866 42.5429 43.8147 44.3148C42.0428 46.0867 39.6396 47.0821 37.1338 47.0821H24.5361C22.0303 47.0821 19.6271 46.0867 17.8552 44.3148C16.0833 42.5429 15.0879 40.1397 15.0879 37.6339V25.0362C15.0879 22.5304 16.0833 20.1272 17.8552 18.3553C19.6271 16.5834 22.0303 15.588 24.5361 15.588Z" fill="white"/>
</mask>
<g mask="url(#mask1_4673_47403)">
<path d="M52.8809 9.28912H8.78906V53.3809H52.8809V9.28912Z" fill="black"/>
</g>
<mask id="mask2_4673_47403" style="mask-type:luminance" maskUnits="userSpaceOnUse" x="21" y="21" width="20" height="20">
<path d="M34.8842 40.7832H26.7857C23.8027 40.7832 21.3867 38.3671 21.3867 35.3842V27.2857C21.3867 24.3027 23.8028 21.8867 26.7857 21.8867H34.8842C37.8672 21.8867 40.2832 24.3028 40.2832 27.2857V35.3842C40.2832 38.3672 37.8671 40.7832 34.8842 40.7832Z" fill="white"/>
</mask>
<g mask="url(#mask2_4673_47403)">
<path d="M40.2832 21.8867H21.3867V40.7832H40.2832V21.8867Z" fill="black"/>
</g>
<mask id="mask3_4673_47403" style="mask-type:luminance" maskUnits="userSpaceOnUse" x="96" y="9" width="46" height="45">
<path fill-rule="evenodd" clip-rule="evenodd" d="M125.317 9.28912H112.72C108.543 9.28912 104.538 10.9482 101.585 13.9013C98.6317 16.8545 96.9727 20.8598 96.9727 25.0362V37.6339C96.9727 41.8102 98.6317 45.8156 101.585 48.7687C104.538 51.7219 108.543 53.3809 112.72 53.3809H125.317C129.494 53.3809 133.499 51.7219 136.452 48.7687C139.405 45.8156 141.064 41.8102 141.064 37.6339V25.0362C141.064 20.8598 139.405 16.8545 136.452 13.9013C133.499 10.9482 129.494 9.28912 125.317 9.28912ZM134.766 25.0362V37.6339C134.766 40.1397 133.77 42.5429 131.998 44.3148C130.226 46.0867 127.823 47.0821 125.317 47.0821H112.72C110.214 47.0821 107.811 46.0867 106.039 44.3148C104.267 42.5429 103.271 40.1397 103.271 37.6339V25.0362C103.271 22.5304 104.267 20.1272 106.039 18.3553C107.811 16.5834 110.214 15.588 112.72 15.588L125.317 15.588C127.823 15.588 130.226 16.5834 131.998 18.3553C133.77 20.1272 134.766 22.5304 134.766 25.0362Z" fill="white"/>
</mask>
<g mask="url(#mask3_4673_47403)">
<path d="M141.064 9.28912H96.9727V53.3809H141.064V9.28912Z" fill="black"/>
</g>
<mask id="mask4_4673_47403" style="mask-type:luminance" maskUnits="userSpaceOnUse" x="109" y="21" width="20" height="20">
<path d="M123.068 40.7832H114.969C111.986 40.7832 109.57 38.3671 109.57 35.3842V27.2857C109.57 24.3027 111.986 21.8867 114.969 21.8867H123.068C126.051 21.8867 128.467 24.3028 128.467 27.2857V35.3842C128.467 38.3672 126.051 40.7832 123.068 40.7832Z" fill="white"/>
</mask>
<g mask="url(#mask4_4673_47403)">
<path d="M128.467 21.8867H109.57V40.7832H128.467V21.8867Z" fill="black"/>
</g>
<mask id="mask5_4673_47403" style="mask-type:luminance" maskUnits="userSpaceOnUse" x="8" y="97" width="45" height="45">
<path fill-rule="evenodd" clip-rule="evenodd" d="M24.5361 141.564H37.1338C41.3102 141.564 45.3155 139.905 48.2687 136.952C51.2218 133.999 52.8809 129.994 52.8809 125.817V113.22C52.8809 109.043 51.2218 105.038 48.2687 102.085C45.3155 99.1317 41.3102 97.4727 37.1338 97.4727H24.5361C20.3597 97.4727 16.3544 99.1317 13.4013 102.085C10.4481 105.038 8.78906 109.043 8.78906 113.22V125.817C8.78906 129.994 10.4481 133.999 13.4013 136.952C16.3544 139.905 20.3597 141.564 24.5361 141.564ZM15.0879 125.817L15.0879 113.22C15.0879 110.714 16.0833 108.311 17.8552 106.539C19.6271 104.767 22.0303 103.771 24.5361 103.771H37.1338C39.6396 103.771 42.0428 104.767 43.8147 106.539C45.5866 108.311 46.582 110.714 46.582 113.22V125.817C46.582 128.323 45.5866 130.726 43.8147 132.498C42.0428 134.27 39.6396 135.266 37.1338 135.266H24.5361C22.0303 135.266 19.6271 134.27 17.8552 132.498C16.0833 130.726 15.0879 128.323 15.0879 125.817Z" fill="white"/>
</mask>
<g mask="url(#mask5_4673_47403)">
<path d="M52.8809 97.4727H8.78906V141.564H52.8809V97.4727Z" fill="black"/>
</g>
<mask id="mask6_4673_47403" style="mask-type:luminance" maskUnits="userSpaceOnUse" x="21" y="110" width="20" height="19">
<path d="M34.8842 128.967H26.7857C23.8027 128.967 21.3867 126.551 21.3867 123.568V115.469C21.3867 112.486 23.8028 110.07 26.7857 110.07H34.8842C37.8672 110.07 40.2832 112.486 40.2832 115.469V123.568C40.2832 126.551 37.8671 128.967 34.8842 128.967Z" fill="white"/>
</mask>
<g mask="url(#mask6_4673_47403)">
<path d="M40.2832 110.07H21.3867V128.967H40.2832V110.07Z" fill="black"/>
</g>
</g>
<defs>
<clipPath id="clip0_4673_47403">
<rect width="150" height="150" fill="white" transform="translate(0 0.500061)"/>
</clipPath>
</defs>
</svg>
