<svg width="36" height="36" viewBox="0 0 36 36" fill="none" xmlns="http://www.w3.org/2000/svg">
<path d="M33 30.6213L31.0607 32.5607C30.4749 33.1464 29.5251 33.1464 28.9393 32.5607L27 30.6213M30 24V32.1213" stroke="#BB9769" stroke-width="1.5" stroke-linecap="round"/>
<path d="M33 19.5V9H7C4.79086 9 3 10.7909 3 13V29C3 31.2091 4.79086 33 7 33H22.5" stroke="#BB9769" stroke-width="1.5" stroke-linecap="round" stroke-linejoin="round"/>
<path d="M33 7C33 4.79086 31.2091 3 29 3H16C13.7909 3 12 4.79086 12 7V9H33V7Z" stroke="#BB9769" stroke-width="1.5" stroke-linejoin="round"/>
<path d="M3 18L3 24L9 24C10.6569 24 12 22.6569 12 21V21C12 19.3431 10.6569 18 9 18L3 18Z" stroke="#BB9769" stroke-width="1.5" stroke-linejoin="round"/>
</svg>
