<svg width="40" height="40" viewBox="0 0 40 40" fill="none" xmlns="http://www.w3.org/2000/svg">
<path fill-rule="evenodd" clip-rule="evenodd" d="M27.6016 3.33301L5.73496 3.33301C4.40948 3.33301 3.33496 4.40752 3.33496 5.733L3.33496 34.2663C3.33496 35.5918 4.40948 36.6663 5.73496 36.6663L33.335 36.6663C31.494 36.6663 30.0016 35.174 30.0016 33.333L30.0016 13.333L30.0016 5.73301C30.0016 4.40753 28.9271 3.33301 27.6016 3.33301ZM8.75137 11.6666C8.75137 10.9762 9.31101 10.4166 10.0014 10.4166L23.3347 10.4166C24.0251 10.4166 24.5847 10.9762 24.5847 11.6666C24.5847 12.357 24.0251 12.9166 23.3347 12.9166L10.0014 12.9166C9.31101 12.9166 8.75137 12.357 8.75137 11.6666ZM10.0014 18.7498C9.31101 18.7498 8.75137 19.3094 8.75137 19.9998C8.75137 20.6902 9.31101 21.2498 10.0014 21.2498L23.3347 21.2498C24.0251 21.2498 24.5847 20.6902 24.5847 19.9998C24.5847 19.3095 24.0251 18.7498 23.3347 18.7498L10.0014 18.7498ZM8.75137 28.333C8.75137 27.6427 9.31101 27.083 10.0014 27.083L16.668 27.083C17.3584 27.083 17.918 27.6427 17.918 28.333C17.918 29.0234 17.3584 29.583 16.668 29.583L10.0014 29.583C9.31101 29.583 8.75137 29.0234 8.75137 28.333ZM36.6676 32.9664L36.6676 16.6664C36.6676 14.8255 35.1753 13.3331 33.3343 13.3331L32.501 13.3331L32.501 32.9664C32.501 33.6292 33.0382 34.1664 33.701 34.1664L35.4676 34.1664C36.1304 34.1664 36.6676 33.6292 36.6676 32.9664Z" fill="#6366F1"/>
</svg>
