<svg width="68" height="68" viewBox="0 0 68 68" fill="none" xmlns="http://www.w3.org/2000/svg">
<path fill-rule="evenodd" clip-rule="evenodd" d="M34.0003 67.3334C52.4098 67.3334 67.3337 52.4096 67.3337 34.0001C67.3337 15.5906 52.4098 0.666753 34.0003 0.666751C15.5908 0.66675 0.666993 15.5906 0.666993 34.0001C0.666994 52.4096 15.5908 67.3334 34.0003 67.3334ZM49.3071 25.5351C50.1547 24.4452 49.9584 22.8745 48.8685 22.0268C47.7787 21.1791 46.208 21.3755 45.3603 22.4653L32.0036 39.6382C31.7066 40.0201 31.148 40.0696 30.7884 39.746L22.3394 32.142C21.3132 31.2183 19.7324 31.3015 18.8088 32.3278C17.8851 33.3541 17.9683 34.9348 18.9946 35.8584L27.4435 43.4625C29.9606 45.7279 33.8713 45.381 35.9504 42.7079L49.3071 25.5351Z" fill="#00A155"/>
</svg>
