<svg width="70" height="70" viewBox="0 0 70 70" fill="none" xmlns="http://www.w3.org/2000/svg">
<rect x="5" y="5" width="60" height="60" rx="20" fill="#F2F4F7"/>
<rect x="5" y="5" width="60" height="60" rx="20" stroke="#F9FAFB" stroke-width="9"/>
<g clip-path="url(#clip0_6463_111924)">
<path d="M39.9989 40.0047L34.9989 35.0047M34.9989 35.0047L29.9989 40.0047M34.9989 35.0047V46.2547M45.4864 42.9922C46.7055 42.3276 47.6686 41.2758 48.2237 40.003C48.7787 38.7302 48.8941 37.3088 48.5516 35.9631C48.2091 34.6174 47.4282 33.4241 46.3322 32.5715C45.2362 31.719 43.8874 31.2557 42.4989 31.2547H40.9239C40.5455 29.7913 39.8403 28.4327 38.8613 27.281C37.8823 26.1293 36.6549 25.2146 35.2715 24.6055C33.888 23.9964 32.3845 23.7089 30.874 23.7646C29.3635 23.8202 27.8852 24.2176 26.5503 24.9268C25.2155 25.636 24.0587 26.6386 23.1671 27.8592C22.2755 29.0798 21.6722 30.4867 21.4026 31.974C21.1329 33.4613 21.204 34.9904 21.6104 36.4463C22.0168 37.9022 22.7479 39.2471 23.7489 40.3797" stroke="#64748B" stroke-width="2.5" stroke-linecap="round" stroke-linejoin="round"/>
</g>
<defs>
<clipPath id="clip0_6463_111924">
<rect width="30" height="30" fill="white" transform="translate(20 20)"/>
</clipPath>
</defs>
</svg>
