<svg width="64" height="74" viewBox="0 0 64 74" fill="none" xmlns="http://www.w3.org/2000/svg">
<path d="M32.0004 6.79163C30.7692 6.79163 29.5501 7.03412 28.4127 7.50525C27.2753 7.97639 26.2418 8.66695 25.3713 9.5375C24.5007 10.408 23.8101 11.4415 23.339 12.579C22.8679 13.7164 22.6254 14.9355 22.6254 16.1666C22.6254 17.3978 22.8679 18.6169 23.339 19.7543C23.8101 20.8917 24.5007 21.9252 25.3713 22.7957C26.2418 23.6663 27.2753 24.3569 28.4127 24.828C29.5501 25.2991 30.7692 25.5416 32.0004 25.5416C34.4868 25.5416 36.8713 24.5539 38.6295 22.7957C40.3877 21.0376 41.3754 18.653 41.3754 16.1666C41.3754 13.6802 40.3877 11.2957 38.6295 9.5375C36.8713 7.77935 34.4868 6.79163 32.0004 6.79163ZM16.3754 16.1666C16.3754 12.0226 18.0216 8.04834 20.9518 5.11808C23.8821 2.18783 27.8564 0.541626 32.0004 0.541626C36.1444 0.541626 40.1187 2.18783 43.0489 5.11808C45.9792 8.04834 47.6254 12.0226 47.6254 16.1666C47.6254 20.3106 45.9792 24.2849 43.0489 27.2152C40.1187 30.1454 36.1444 31.7916 32.0004 31.7916C27.8564 31.7916 23.8821 30.1454 20.9518 27.2152C18.0216 24.2849 16.3754 20.3106 16.3754 16.1666ZM20.8087 40.4125C21.3587 40.8208 22.067 41.3 22.9129 41.775C25.0504 42.9833 28.1837 44.2333 31.9962 44.2333C35.8087 44.2333 38.9462 42.9833 41.0837 41.775C41.9295 41.3 42.6379 40.8208 43.1879 40.4125C43.9712 40.6208 44.7476 40.8513 45.517 41.1041L49.517 42.4166C52.517 43.4041 54.7837 45.8 55.592 48.7625L57.2462 60.6958C57.5587 62.9625 56.3712 64.6083 54.7212 65C50.3587 66.0416 43.0045 67.2083 32.0004 67.2083C20.9962 67.2083 13.6379 66.0416 9.27538 65C7.62954 64.6083 6.44204 62.9625 6.75038 60.6958L8.40454 48.7625C8.81556 47.2852 9.58578 45.9327 10.6465 44.8254C11.7072 43.7182 13.0255 42.8906 14.4837 42.4166L18.4837 41.1041C19.2504 40.8541 20.0254 40.6236 20.8087 40.4125ZM23.767 34.7666L22.5545 33.5708L20.8795 33.9541C19.4184 34.2875 17.9684 34.6916 16.5295 35.1666L12.5295 36.4791C10.0446 37.2869 7.80422 38.7097 6.01656 40.6154C4.2289 42.521 2.952 44.8477 2.30454 47.3791L2.26288 47.5458L0.562876 59.8375C-0.107958 64.6875 2.48788 69.8083 7.82954 71.0791C12.7045 72.2416 20.5462 73.4583 31.9962 73.4583C43.4504 73.4583 51.292 72.2416 56.167 71.0833C61.5087 69.8083 64.1087 64.6875 63.4379 59.8416L61.7337 47.55L61.692 47.3833C61.0448 44.8506 59.7676 42.5228 57.9791 40.6163C56.1907 38.7098 53.9491 37.2867 51.4629 36.4791L47.467 35.1666C46.0309 34.6944 44.5809 34.2916 43.117 33.9583L41.442 33.5708L40.2337 34.7625L40.2295 34.7666C40.0684 34.9134 39.9016 35.0538 39.7295 35.1875C39.1924 35.6142 38.621 35.9961 38.0212 36.3291C36.1894 37.3878 34.116 37.9575 32.0004 37.9833C29.8848 37.9575 27.8114 37.3878 25.9795 36.3291C25.1924 35.8845 24.4483 35.361 23.767 34.7666Z" fill="#94A3B8"/>
</svg>
