
<svg width="85" height="32" viewBox="0 0 85 32" fill="none" xmlns="http://www.w3.org/2000/svg">
<g clip-path="url(#clip0_4673_32241)">
<mask id="mask0_4673_32241" style="mask-type:luminance" maskUnits="userSpaceOnUse" x="0" y="0" width="32" height="32">
<path d="M31.1777 15.6256C31.1777 7.04542 24.2221 0.0898438 15.642 0.0898438C7.06184 0.0898438 0.106262 7.04542 0.106262 15.6256C0.106262 24.2057 7.06184 31.1613 15.642 31.1613C24.2221 31.1613 31.1777 24.2057 31.1777 15.6256Z" fill="white"/>
</mask>
<g mask="url(#mask0_4673_32241)">
<path d="M31.1783 15.6256C31.1783 7.04542 24.2227 0.0898438 15.6426 0.0898438C7.06245 0.0898438 0.106873 7.04542 0.106873 15.6256C0.106873 24.2057 7.06245 31.1613 15.6426 31.1613C24.2227 31.1613 31.1783 24.2057 31.1783 15.6256Z" fill="#A6FC6F"/>
<path d="M29.9205 1.01605C31.319 2.41455 32.0181 3.11382 32.2803 3.92014C32.5106 4.62941 32.5106 5.39342 32.2803 6.10269C32.0181 6.90901 31.319 7.60826 29.9205 9.00678L18.508 20.4194C17.1094 21.8177 16.4102 22.517 15.6038 22.779C14.8946 23.0095 14.1306 23.0095 13.4213 22.779C12.615 22.517 11.9157 21.8177 10.5172 20.4194L6.21613 16.1182C4.81761 14.7197 4.11836 14.0205 3.85638 13.2141C3.62592 12.5049 3.62592 11.7409 3.85638 11.0316C4.11836 10.2253 4.81761 9.52599 6.21613 8.12749L17.6286 -3.28502C19.0271 -4.68354 19.7264 -5.38279 20.5328 -5.64479C21.2421 -5.87524 22.006 -5.87524 22.7153 -5.64479C23.5215 -5.38279 24.2208 -4.68354 25.6194 -3.28502L29.9205 1.01605Z" fill="#7000FF"/>
<path d="M25.3016 15.5767C26.7002 16.9752 27.3994 17.6745 27.6614 18.4808C27.8918 19.1901 27.8918 19.954 27.6614 20.6633C27.3994 21.4697 26.7002 22.1689 25.3016 23.5674L13.8891 34.9799C12.4906 36.3785 11.7913 37.0778 10.985 37.3398C10.2757 37.5701 9.51173 37.5701 8.80246 37.3398C7.99614 37.0778 7.29689 36.3785 5.89837 34.9799L1.59729 30.6789C0.198784 29.2805 -0.50047 28.5812 -0.762461 27.7747C-0.992917 27.0655 -0.992917 26.3015 -0.762461 25.5922C-0.50047 24.786 0.198785 24.0867 1.59729 22.6881L13.0098 11.2756C14.4083 9.87714 15.1076 9.17787 15.9139 8.91589C16.6232 8.68543 17.3872 8.68543 18.0964 8.91589C18.9028 9.17787 19.6021 9.87714 21.0005 11.2756L25.3016 15.5767Z" fill="#7000FF"/>
</g>
<path d="M30.4219 15.6255C30.4219 7.46286 23.8048 0.845703 15.6421 0.845703C7.47946 0.845703 0.862305 7.46286 0.862305 15.6255C0.862305 23.7882 7.47946 30.4053 15.6421 30.4053C23.8048 30.4053 30.4219 23.7882 30.4219 15.6255Z" stroke="#A6FC6F" stroke-width="1.51178"/>
<path d="M20.0443 10.8453C20.5123 10.9484 20.9652 11.0364 21.4096 11.1502C21.882 11.2704 22.35 11.4164 22.818 11.5474C22.8845 11.5667 22.9104 11.5924 22.9104 11.6676C22.9082 13.1296 22.9232 14.5938 22.9039 16.0558C22.8823 17.6273 22.3864 19.0486 21.4311 20.298C20.3662 21.6914 18.973 22.5887 17.2684 22.9968C16.5964 23.1577 15.9116 23.2114 15.2224 23.1705C13.5844 23.0739 12.1332 22.4964 10.8923 21.4252C9.61277 20.3239 8.80555 18.9369 8.48137 17.2752C8.38907 16.8029 8.35257 16.3242 8.35257 15.8433C8.35043 14.4585 8.35257 13.0759 8.34827 11.6912C8.34827 11.5989 8.37834 11.5667 8.46205 11.5409C9.35514 11.2554 10.2654 11.03 11.1864 10.8625C11.195 10.8604 11.2036 10.8625 11.225 10.8604C11.225 10.8969 11.225 10.9334 11.225 10.9677C11.225 12.7045 11.2186 14.4435 11.2293 16.1803C11.2358 17.0563 11.3539 17.9214 11.6523 18.7523C11.8884 19.4114 12.2383 19.9996 12.76 20.4762C13.2495 20.9207 13.8227 21.2019 14.4646 21.3393C15.3727 21.5346 16.2787 21.5196 17.1696 21.2384C18.2216 20.9078 18.9514 20.2078 19.4195 19.2225C19.6707 18.6964 19.8211 18.1384 19.9154 17.5651C20.0207 16.9274 20.0464 16.2834 20.0464 15.6393C20.0464 14.0893 20.0464 12.5371 20.0464 10.987C20.0443 10.9462 20.0443 10.9076 20.0443 10.8453Z" fill="white"/>
<path d="M16.9072 14.0658C16.0506 14.0658 15.2026 14.0658 14.3503 14.0658C14.3503 12.0692 14.3503 10.0748 14.3503 8.08247C14.6166 7.99874 16.4006 7.99229 16.9072 8.07603C16.9072 10.0726 16.9072 12.0692 16.9072 14.0658Z" fill="white"/>

<path d="M65.9658 9.77792C65.9658 11.1418 65.2111 11.7706 64.0881 11.7706C62.9649 11.7706 62.2363 11.1507 62.2363 9.77792V5.27881H59.8124V9.86649C59.8124 12.8556 62.2624 14.029 64.101 14.029C65.9397 14.029 68.3942 12.8556 68.3942 9.86649V5.27881H65.9701L65.9658 9.77792Z" fill="#7000FF"/>
<path d="M57.7693 7.36895V5.27881H49.8987V7.36895H54.556L49.708 11.7795V13.8696H58.0598V11.7795H52.93L57.7693 7.36895Z" fill="#7000FF"/>
<path d="M80.5229 5.11523C78.9879 5.11523 77.83 5.75289 77.2577 6.72268C76.6722 5.75289 75.4059 5.11523 74.0877 5.11523C71.4988 5.11523 70.1502 6.79797 70.1502 8.87925V13.8699H72.5743V9.23352C72.5743 8.23715 73.0859 7.36479 74.2611 7.36479C74.4997 7.3515 74.7425 7.38693 74.9636 7.47548C75.1891 7.56406 75.3929 7.69691 75.5622 7.86961C75.7313 8.04231 75.8613 8.25043 75.9481 8.48072C76.0304 8.71098 76.0695 8.95454 76.0522 9.19809V13.8743H78.4761V9.19366C78.4761 8.19731 79.0529 7.35593 80.215 7.35593C81.3772 7.35593 81.9366 8.23273 81.9366 9.22466V13.861H84.3607V8.88368C84.3607 6.8024 83.1118 5.11966 80.5056 5.11966L80.5229 5.11523Z" fill="#7000FF"/>
<path d="M45.6929 9.77792C45.6929 11.1418 44.9383 11.7706 43.8238 11.7706C42.7094 11.7706 41.9637 11.1507 41.9637 9.77792V5.27881H39.5396V9.86649C39.5396 12.8556 41.981 14.029 43.8283 14.029C45.6799 14.029 48.1126 12.8556 48.1126 9.86649V5.27881H45.6885L45.6929 9.77792Z" fill="#7000FF"/>
<path d="M60.2107 24.6261V19.0597H57.8127L57.8257 20.4147C57.3054 19.6177 56.3861 18.8826 54.7599 18.8826C51.9586 18.8826 50.5232 21.1101 50.5232 23.3374C50.4713 25.5958 52.0974 27.8365 54.6429 27.8365C55.9957 27.8365 57.2186 27.2167 57.8127 26.1538C57.9515 26.6011 58.2291 26.9908 58.6107 27.261C58.9879 27.531 59.4432 27.6638 59.9029 27.6372H61.2906V25.556H60.9047C60.4277 25.556 60.2107 25.3744 60.2107 24.6304V24.6261ZM55.2674 25.6933C53.897 25.6933 52.8606 24.7235 52.8606 23.3595C52.8606 21.9956 53.9013 21.0613 55.2674 21.0613C56.6897 21.0613 57.7174 22.0045 57.7174 23.3595C57.7174 24.7102 56.6897 25.6933 55.2674 25.6933Z" fill="#7000FF"/>
<path d="M44.509 27.8454C41.6079 27.8454 39.5396 26.4461 39.5396 23.0365V16.394H41.9637V19.9544C42.6574 19.2547 43.581 18.9137 44.9079 18.9137C47.8004 18.9137 49.4135 20.9329 49.4135 23.3729C49.4135 26.2824 47.1933 27.8454 44.5263 27.8454H44.509ZM44.4829 21.0437C43.104 21.0437 42.059 22.0135 42.059 23.3774C42.059 24.7413 43.0954 25.6756 44.4829 25.6756C45.8663 25.6756 46.9331 24.7236 46.9331 23.3774C46.9331 22.0311 45.9054 21.0437 44.4829 21.0437Z" fill="#7000FF"/>
<path d="M73.8975 27.6553H76.3171V23.444L80.0855 27.6553H82.9476L79.0405 23.2447L82.6441 19.0644H79.7993L76.3128 23.0853V16.4075H73.8932V27.6553H73.8975Z" fill="#7000FF"/>
<path d="M63.0339 19.0644H65.4581V20.6055H65.5925C65.7356 20.3176 65.9438 20.0607 66.2127 19.835C66.4381 19.6489 66.7416 19.463 67.1275 19.2991C67.5136 19.1353 68.0079 19.0468 68.6193 19.0468C69.1138 19.0468 69.5734 19.1175 70.007 19.2593C70.4406 19.401 70.8136 19.6223 71.1345 19.9235C71.4554 20.2246 71.7025 20.6098 71.8847 21.0703C72.0625 21.531 72.1536 22.08 72.1536 22.7221V27.6419H69.7295V23.4218C69.7295 22.6868 69.5343 22.1421 69.1441 21.7834C68.7538 21.4246 68.2334 21.2475 67.5959 21.2475C66.8891 21.2475 66.3557 21.4512 65.9957 21.8587C65.6402 22.266 65.4538 22.7885 65.4538 23.4218V27.6419H63.0297V19.0644H63.0339Z" fill="#7000FF"/>
</g>
<defs>
<clipPath id="clip0_4673_32241">
<rect width="84.2857" height="31.25" fill="white" transform="translate(0.107117 0.000488281)"/>
</clipPath>
</defs>
</svg>