<svg width="30" height="31" viewBox="0 0 30 31" fill="none" xmlns="http://www.w3.org/2000/svg">
<path fill-rule="evenodd" clip-rule="evenodd" d="M15 8C16.3807 8 17.5 6.88071 17.5 5.5C17.5 4.11929 16.3807 3 15 3C13.6193 3 12.5 4.11929 12.5 5.5C12.5 6.88071 13.6193 8 15 8ZM15.9375 11.4375L18.75 11.4375C19.2678 11.4375 19.6875 11.0178 19.6875 10.5C19.6875 9.98223 19.2678 9.5625 18.75 9.5625L15 9.5625C9.64974 9.5625 5.3125 13.8997 5.3125 19.25C5.3125 24.6003 9.64974 28.9375 15 28.9375C17.6146 28.9375 19.9877 27.9009 21.7296 26.2185L22.3152 27.2224C22.4832 27.5104 22.7916 27.6875 23.125 27.6875L25 27.6875C25.5178 27.6875 25.9375 27.2678 25.9375 26.75C25.9375 26.2322 25.5178 25.8125 25 25.8125L23.6635 25.8125L19.5598 18.7776C19.3918 18.4896 19.0834 18.3125 18.75 18.3125L15.9375 18.3125L15.9375 11.4375Z" fill="#64748B"/>
</svg>
