<svg width="30" height="31" viewBox="0 0 30 31" fill="none" xmlns="http://www.w3.org/2000/svg">
<path d="M17.6916 24.9908C20.4614 21.0351 24.375 14.7501 24.375 10.8126C24.375 8.32616 23.3873 5.94159 21.6291 4.18343C19.871 2.42528 17.4864 1.43756 15 1.43756C12.5136 1.43756 10.129 2.42528 8.37087 4.18343C6.61272 5.94159 5.625 8.32616 5.625 10.8126C5.625 14.7501 9.53859 21.0351 12.3084 24.9908C12.6111 25.424 13.0138 25.7777 13.4824 26.0219C13.951 26.2661 14.4716 26.3936 15 26.3936C15.5284 26.3936 16.049 26.2661 16.5176 26.0219C16.9862 25.7777 17.3889 25.424 17.6916 24.9908ZM10.3125 14.5626V9.87506C10.3125 9.62642 10.4113 9.38796 10.5871 9.21215C10.7629 9.03633 11.0014 8.93756 11.25 8.93756H12.6562V8.46881C12.6562 8.09585 12.8044 7.73816 13.0681 7.47444C13.3319 7.21072 13.6895 7.06256 14.0625 7.06256H15.9375C16.3105 7.06256 16.6681 7.21072 16.9319 7.47444C17.1956 7.73816 17.3438 8.09585 17.3438 8.46881V8.93756H18.75C18.9986 8.93756 19.2371 9.03633 19.4129 9.21215C19.5887 9.38796 19.6875 9.62642 19.6875 9.87506V14.5626C19.6875 14.8112 19.5887 15.0497 19.4129 15.2255C19.2371 15.4013 18.9986 15.5001 18.75 15.5001H11.25C11.0014 15.5001 10.7629 15.4013 10.5871 15.2255C10.4113 15.0497 10.3125 14.8112 10.3125 14.5626ZM16.4062 8.46881V8.93756H13.5938V8.46881C13.5938 8.34449 13.6431 8.22526 13.731 8.13735C13.819 8.04945 13.9382 8.00006 14.0625 8.00006H15.9375C16.0618 8.00006 16.181 8.04945 16.269 8.13735C16.3569 8.22526 16.4062 8.34449 16.4062 8.46881ZM24.8438 26.2813C24.8438 29.3258 17.3095 29.5626 15 29.5626C12.6905 29.5626 5.15625 29.3282 5.15625 26.2813C5.15625 25.0302 6.42187 24.1133 8.91797 23.5569C9.1607 23.5029 9.41498 23.5474 9.62486 23.6808C9.83474 23.8142 9.98303 24.0255 10.0371 24.2683C10.0912 24.511 10.0466 24.7653 9.91323 24.9752C9.77983 25.185 9.56852 25.3333 9.32578 25.3874C7.75641 25.7371 7.22906 26.1318 7.07578 26.286C7.49531 26.7276 9.80766 27.6876 15 27.6876C20.1923 27.6876 22.5047 26.7276 22.9252 26.286C22.7709 26.1318 22.2431 25.7371 20.6752 25.3874C20.5504 25.3655 20.4313 25.3185 20.3252 25.2492C20.2191 25.18 20.1281 25.09 20.0577 24.9846C19.9874 24.8792 19.9391 24.7607 19.9159 24.6361C19.8926 24.5116 19.8948 24.3836 19.9224 24.2599C19.95 24.1363 20.0024 24.0195 20.0764 23.9166C20.1504 23.8138 20.2444 23.727 20.3529 23.6615C20.4614 23.596 20.582 23.5532 20.7075 23.5356C20.8329 23.518 20.9607 23.5261 21.083 23.5593C23.5781 24.1133 24.8438 25.0302 24.8438 26.2813Z" fill="#64748B"/>
</svg>
