<svg width="24" height="24" viewBox="0 0 24 24" fill="none" xmlns="http://www.w3.org/2000/svg">
<path d="M8.99945 18.0001L10.4994 16.5001M14.9994 14.5001C14.9994 15.8808 13.8802 17.0001 12.4994 17.0001C11.1187 17.0001 9.99944 15.8808 9.99944 14.5001C9.99944 13.1193 11.1187 12.0001 12.4994 12.0001C13.8802 12.0001 14.9994 13.1193 14.9994 14.5001ZM19.9994 7V8H3.99945V5C3.99945 3.34315 5.34259 2 6.99945 2H9.56862C10.2367 2 10.8856 2.22298 11.4126 2.6336L12.353 3.3664C12.88 3.77702 13.5289 4 14.1969 4H16.9994C18.6563 4 19.9994 5.34315 19.9994 7ZM3.47342 8H20.5255C21.7988 8 22.7479 9.17403 22.4811 10.4191L20.677 18.8381C20.2818 20.6824 18.6519 22 16.7658 22H7.23311C5.34696 22 3.7171 20.6824 3.3219 18.8381L1.51782 10.4191C1.25102 9.17404 2.20013 8 3.47342 8Z" stroke="currentColor" stroke-width="1.5" stroke-linecap="round" stroke-linejoin="round"/>
</svg>
