<svg width="24" height="24" viewBox="0 0 24 24" fill="none" xmlns="http://www.w3.org/2000/svg">
<g clip-path="url(#clip0_9269_102765)">
<path d="M4.40178 4.11212C3.93739 4.11212 3.55957 4.48994 3.55957 4.95438C3.55957 5.41877 3.93739 5.79659 4.40178 5.79659C4.86622 5.79659 5.24404 5.41877 5.24404 4.95438C5.24404 4.48994 4.86622 4.11212 4.40178 4.11212Z" fill="#64748B"/>
<path d="M17.2859 22.4466C17.6734 21.5116 17.2297 20.4395 16.2947 20.0519C15.3597 19.6644 14.2876 20.1082 13.9 21.0432C13.5124 21.9782 13.9562 23.0504 14.8912 23.4379C15.8262 23.8255 16.8983 23.3817 17.2859 22.4466Z" fill="#64748B"/>
<path d="M12.3061 21.7399C12.3061 21.551 12.323 21.3661 12.3538 21.1858H2.85685C2.08543 21.1858 1.45781 20.5582 1.45781 19.7868C1.45781 19.0153 2.08543 18.3877 2.85685 18.3877H9.40376C10.8923 18.3877 12.1034 17.1766 12.1034 15.6881C12.1034 14.1995 10.8924 12.9885 9.40376 12.9885H6.52076L5.65524 14.4355H9.40376C10.0945 14.4355 10.6563 14.9974 10.6563 15.6881C10.6563 16.3788 10.0944 16.9407 9.40376 16.9407H2.85685C1.28752 16.9407 0.0107422 18.2174 0.0107422 19.7868C0.0107422 21.3561 1.28752 22.6329 2.85685 22.6329H12.4307C12.3501 22.3488 12.3061 22.0495 12.3061 21.7399Z" fill="#64748B"/>
<path d="M23.9996 11.7248C23.9882 11.4397 23.8102 11.188 23.5453 11.082L15.8546 8.0057C15.6317 7.9166 15.379 7.94376 15.1802 8.07837C14.9814 8.21299 14.8623 8.43741 14.8623 8.67748V18.542C15.0951 18.4894 15.3369 18.4607 15.5854 18.4607C15.8342 18.4607 16.0762 18.4895 16.3093 18.5422V16.0198L23.5983 12.4018C23.8538 12.275 24.011 12.0098 23.9996 11.7248Z" fill="#64748B"/>
<path d="M8.87338 4.86503C8.87338 2.41473 6.887 0.428345 4.43669 0.428345C1.98638 0.428345 0 2.41473 0 4.86503V4.88344C0 5.7691 0.236972 6.6386 0.686335 7.40182L4.06257 13.1359C4.2154 13.3955 4.59036 13.3968 4.74497 13.1383L8.16953 7.41283C8.63013 6.64282 8.87338 5.76231 8.87338 4.86503ZM4.40181 7.24361C3.1395 7.24361 2.11252 6.21663 2.11252 4.95433C2.11252 3.69202 3.1395 2.66504 4.40181 2.66504C5.66411 2.66504 6.69109 3.69202 6.69109 4.95433C6.69109 6.21668 5.66411 7.24361 4.40181 7.24361Z" fill="#64748B"/>
</g>
<defs>
<clipPath id="clip0_9269_102765">
<rect width="24" height="24" fill="white" transform="translate(0 0.000244141)"/>
</clipPath>
</defs>
</svg>
