<svg width="16" height="16" viewBox="0 0 16 16" fill="none" xmlns="http://www.w3.org/2000/svg">
<path d="M13.1482 4.828C13.5992 4.377 13.8895 3.80575 13.9877 3.17525C14.0382 2.85025 13.934 2.53075 13.7012 2.29825C13.4687 2.06575 13.1487 1.96175 12.8247 2.01225C12.1945 2.1105 11.623 2.4005 11.172 2.8515L9.77723 4.24625L8.94223 4.0645C9.08473 3.84825 9.06098 3.55375 8.87098 3.3635C8.65348 3.1465 8.30023 3.14625 8.08273 3.3635L7.66097 3.78525L6.67148 3.56975L6.74048 3.50075C6.95773 3.2835 6.95748 2.92975 6.74048 2.71275C6.53073 2.50225 6.16348 2.502 5.95248 2.71275L5.37748 3.28775L3.32948 2.84175C3.16848 2.8065 3.00223 2.8555 2.88498 2.97225L2.47273 3.3845C2.36448 3.49275 2.31448 3.642 2.33598 3.79375C2.35748 3.9455 2.44673 4.075 2.58098 4.14925L7.39073 6.80625L4.95598 9.47025L2.48323 9.60175L2.10023 9.9845C2.01823 10.0668 1.98373 10.184 2.00798 10.2978C2.03248 10.4115 2.11173 10.504 2.22023 10.5453L4.56098 11.4393L5.45523 13.7803C5.49673 13.8888 5.58923 13.9683 5.70298 13.9925C5.72698 13.9975 5.75123 14 5.77498 14C5.86448 14 5.95098 13.9648 6.01623 13.8998L6.39873 13.5173L6.53023 11.0443L9.19423 8.6095L11.8495 13.4175C11.9235 13.5518 12.053 13.641 12.2047 13.6625C12.3565 13.6835 12.5057 13.634 12.614 13.5258L13.0265 13.1135C13.1432 12.9968 13.192 12.8308 13.157 12.6693L12.7117 10.6233L13.2875 10.0478C13.3927 9.9425 13.4507 9.8025 13.4507 9.6535C13.4507 9.5045 13.3927 9.3645 13.2875 9.25925C13.07 9.04225 12.7167 9.042 12.4992 9.25925L12.43 9.3285L12.2147 8.339L12.6367 7.917C12.742 7.81175 12.8 7.67175 12.8 7.52275C12.8 7.37375 12.742 7.23375 12.637 7.12875C12.4532 6.945 12.15 6.92175 11.936 7.0585L11.754 6.22225L13.1487 4.8275L13.1482 4.828Z" fill="#64748B"/>
</svg>
