<svg width="24" height="24" viewBox="0 0 24 24" fill="none" xmlns="http://www.w3.org/2000/svg">
<g clip-path="url(#clip0_9247_102188)">
<path d="M7.4117 5.29442V4.58854C7.4117 2.05453 9.46592 0.000305176 11.9999 0.000305176C14.5339 0.000305176 16.5882 2.05453 16.5882 4.58854V5.29442H17.4814C18.5353 5.29442 19.4287 6.06934 19.5778 7.1126L21.1846 18.3603C21.5705 21.0618 19.6934 23.5647 16.9919 23.9507C16.7604 23.9837 16.5269 24.0003 16.2931 24.0003H7.7068C4.97787 24.0003 2.76562 21.7881 2.76562 19.0591C2.76562 18.8253 2.78221 18.5918 2.81528 18.3603L4.4221 7.1126C4.57114 6.06934 5.46462 5.29442 6.51847 5.29442H7.4117ZM8.82346 5.29442H15.1764V4.58854C15.1764 2.83422 13.7543 1.41207 11.9999 1.41207C10.2456 1.41207 8.82346 2.83422 8.82346 4.58854V5.29442ZM16.5882 9.17678C16.5882 8.78693 16.2721 8.47089 15.8823 8.47089C15.4924 8.47089 15.1764 8.78693 15.1764 9.17678C15.1764 10.9311 13.7543 12.3532 11.9999 12.3532C10.2456 12.3532 8.82346 10.9311 8.82346 9.17678C8.82346 8.78693 8.50743 8.47089 8.11758 8.47089C7.72773 8.47089 7.4117 8.78693 7.4117 9.17678C7.4117 11.7108 9.46592 13.765 11.9999 13.765C14.5339 13.765 16.5882 11.7108 16.5882 9.17678Z" fill="#64748B"/>
</g>
<defs>
<clipPath id="clip0_9247_102188">
<rect width="24" height="24" fill="white" transform="translate(0 0.000305176)"/>
</clipPath>
</defs>
</svg>
