<svg width="16" height="17" viewBox="0 0 16 17" fill="none" xmlns="http://www.w3.org/2000/svg">
<path d="M14 11.167C13.9998 13.376 12.209 15.167 10 15.167L6 15.167C3.79097 15.167 2.00018 13.376 2 11.167L2 7L14 7L14 11.167ZM10.3291 8.79004C10.1213 8.60845 9.80579 8.63016 9.62402 8.83789L7.71094 11.0244C7.65221 11.0915 7.55012 11.0997 7.48047 11.0439L6.3125 10.1094C6.09687 9.93688 5.78188 9.97187 5.60938 10.1875C5.43688 10.4031 5.47188 10.7181 5.6875 10.8906L6.85645 11.8252C7.34392 12.2151 8.05177 12.1523 8.46289 11.6826L10.376 9.49609C10.5578 9.28828 10.5369 8.97188 10.3291 8.79004ZM10.667 1.33301C10.9429 1.33318 11.1668 1.55712 11.167 1.83301L11.167 3.00977C12.5461 3.43043 13.6097 4.57319 13.9121 6L2.08789 6C2.39033 4.57318 3.45389 3.43043 4.83301 3.00977L4.83301 1.83301C4.83318 1.55712 5.05712 1.33318 5.33301 1.33301C5.60904 1.33301 5.83283 1.55702 5.83301 1.83301L5.83301 2.83594C5.88838 2.83366 5.94407 2.83301 6 2.83301L10 2.83301C10.0559 2.83301 10.1116 2.83366 10.167 2.83594L10.167 1.83301C10.1672 1.55702 10.391 1.33301 10.667 1.33301Z" fill="currentColor"/>
</svg>
