<svg width="16" height="16" viewBox="0 0 16 16" fill="none" xmlns="http://www.w3.org/2000/svg">
<g clip-path="url(#clip0_8860_92826)">
<path fill-rule="evenodd" clip-rule="evenodd" d="M6.41236 0.463501C8.07929 0.463501 9.43064 1.81484 9.43064 3.48181C9.43064 5.14875 8.07929 6.50009 6.41236 6.50009C4.74542 6.50009 3.39407 5.14875 3.39407 3.48181C3.39407 1.81484 4.74542 0.463501 6.41236 0.463501ZM9.33523 11.5737H10.5583V10.8821C10.5583 10.5648 10.8169 10.3061 11.1343 10.3061H13.2032C13.5205 10.3061 13.7792 10.5648 13.7792 10.8821V11.5737H15.0022C15.2634 11.5737 15.477 11.7874 15.477 12.0485V15.0618C15.477 15.3229 15.2634 15.5366 15.0022 15.5366H9.33523C9.07407 15.5366 8.86042 15.3229 8.86042 15.0618V12.0485C8.86042 11.7874 9.07407 11.5737 9.33523 11.5737ZM11.0583 11.5737H13.2792V10.8821C13.2792 10.8408 13.2445 10.8061 13.2032 10.8061H11.1343C11.093 10.8061 11.0583 10.8408 11.0583 10.8821V11.5737ZM11.7551 12.5975V13.1415H11.2111V13.9688H11.7551V14.5128H12.5824V13.9688H13.1264V13.1415H12.5824V12.5975H11.7551ZM0.835636 12.1399L8.36042 12.1399V12.0485C8.36042 11.5114 8.79814 11.0737 9.33523 11.0737H10.0583V10.8821C10.0583 10.2888 10.541 9.80613 11.1343 9.80613H11.5881C11.0299 8.83741 10.2076 8.04025 9.21951 7.51275C9.21661 7.59947 9.21079 7.68488 9.20245 7.76819C9.17264 8.06613 9.11076 8.34078 9.03814 8.5576C9.38776 8.80231 9.43454 9.24188 9.30523 9.62241L8.79936 11.1108C8.75242 11.2494 8.59132 11.3675 8.45476 11.4041C8.32707 11.4383 8.18614 11.425 8.06114 11.3565C7.98614 11.455 7.84782 11.4846 7.73792 11.4209C7.61873 11.3519 7.57807 11.1993 7.64711 11.0801L7.86386 10.7047C7.93289 10.5855 8.08548 10.5448 8.20467 10.6139C8.31348 10.6769 8.35685 10.8096 8.31101 10.9229C8.32026 10.9239 8.33082 10.9213 8.33848 10.9159L8.83257 9.46225C8.88889 9.29653 8.90751 9.0625 8.73785 8.95566C8.65395 8.91234 8.56517 8.85591 8.48254 8.80803C8.30301 8.70503 8.10507 8.838 7.98654 8.97328L6.97489 10.1277C6.97379 10.1375 6.97661 10.1483 6.98279 10.1561C7.05786 10.06 7.19404 10.0313 7.30279 10.0938C7.42198 10.1623 7.46307 10.3144 7.39461 10.4336L7.17786 10.809C7.10935 10.9282 6.9572 10.9693 6.83801 10.9008C6.72823 10.8378 6.6847 10.7037 6.73204 10.5898C6.6102 10.5159 6.52811 10.4 6.49373 10.2716C6.4567 10.1334 6.47873 9.93863 6.57564 9.82756L7.61154 8.64516C7.85536 8.36691 8.22451 8.18497 8.59254 8.31297C8.64248 8.14456 8.68423 7.94059 8.70636 7.71938C8.7207 7.57603 8.7267 7.42644 8.72123 7.27575C8.01098 6.97753 7.23092 6.81259 6.41229 6.81259C5.7051 6.81259 5.02673 6.93578 4.39729 7.16159C4.04354 7.65375 3.92676 8.49178 3.95961 9.09313C4.52639 9.10441 4.9827 9.56766 4.9827 10.1371C4.9827 10.7137 4.51498 11.1814 3.93842 11.1814C3.36186 11.1814 2.89414 10.7137 2.89414 10.1371C2.89414 9.7296 3.12782 9.3765 3.46842 9.20447C3.42557 8.63428 3.49514 8.00713 3.69157 7.46769C2.04864 8.31056 0.847418 9.89269 0.527511 11.7751C0.494918 11.9669 0.641043 12.1399 0.835636 12.1399ZM3.93845 9.59284C4.23904 9.59284 4.48273 9.83653 4.48273 10.1371C4.48273 10.4377 4.23904 10.6814 3.93845 10.6814C3.63786 10.6814 3.39417 10.4377 3.39417 10.1371C3.39417 9.8365 3.63786 9.59284 3.93845 9.59284Z" fill="currentColor"/>
</g>
<defs>
<clipPath id="clip0_8860_92826">
<rect width="16" height="16" fill="white"/>
</clipPath>
</defs>
</svg>
