<svg width="16" height="16" viewBox="0 0 16 16" fill="none" xmlns="http://www.w3.org/2000/svg">
<path fill-rule="evenodd" clip-rule="evenodd" d="M2.53139 4.29882L4.21279 4.30031C4.40754 3.99252 4.45123 3.60856 4.18711 3.3274C4.01414 3.1435 3.76309 2.99012 3.57509 2.89241C3.5305 2.87117 3.49972 2.82583 3.49972 2.77331V2.13198C3.49972 2.05911 3.44056 2 3.36728 2C3.29446 2 3.23485 2.0594 3.23485 2.13198V2.76942C3.2344 2.81715 3.20827 2.86309 3.16293 2.88643C2.97539 2.98339 2.72253 3.13841 2.54836 3.32426C2.27943 3.6114 2.32463 3.99027 2.53139 4.29882ZM3.24506 14C3.24506 12.2768 3.24506 10.5535 3.24506 8.83032H2V14H3.24506ZM8.13656 9.67066L8.13686 14H10.3178V11.1408L11.6741 11.4268V14H12.4989V10.7283C11.0449 10.3757 9.59064 10.0232 8.13656 9.67066ZM7.872 9.67081C6.41792 10.0233 4.964 10.3757 3.50993 10.7283V14H7.872V9.67081ZM7.872 9.40012V8.18704C6.41792 8.53958 4.964 8.89196 3.50993 9.2445V10.4576C4.964 10.105 6.41792 9.75266 7.872 9.40012ZM12.4989 9.2445C11.0449 8.89211 9.59094 8.53943 8.13686 8.18704V9.40012C9.59094 9.75251 11.0449 10.1052 12.4989 10.4576V9.2445ZM12.7638 8.83032V14H14V8.83032H12.7638ZM11.5084 6.9798L12.6542 7.27607C12.7165 7.28685 12.7638 7.34101 12.7638 7.40611V8.56636H13.7366V6.18345C12.9938 6.18345 12.2512 6.18345 11.5084 6.18345V6.9798ZM8.13641 6.38007L8.13656 7.91636C9.59064 8.26889 11.0449 8.62143 12.4989 8.97381C12.4989 8.48511 12.4989 7.99656 12.4989 7.50786C11.0449 7.13183 9.59064 6.75595 8.13641 6.38007ZM7.872 6.38007C6.41792 6.75595 4.964 7.13198 3.50993 7.50786V8.97381C4.964 8.62143 6.41792 8.26889 7.872 7.91636V6.38007ZM2.26337 6.18345V8.56636H3.24506V7.40611C3.24506 7.34101 3.29236 7.28685 3.35467 7.27607L4.49162 6.98219V6.18345C3.74882 6.18345 3.00617 6.18345 2.26337 6.18345ZM4.16414 5.9195V4.5505L2.59085 4.56113V5.9195H4.16414ZM11.8359 4.56113V5.9195H13.4092V4.5505L11.8359 4.56113ZM11.7674 4.30316L13.4543 4.29538C13.6516 3.98369 13.7006 3.61305 13.4321 3.3274C13.2579 3.14215 13.0045 2.98788 12.8161 2.89032C12.7709 2.86698 12.7449 2.82089 12.7449 2.77331L12.7447 2.13198C12.7447 2.05881 12.6857 2 12.6123 2C12.5395 2 12.4799 2.0594 12.4799 2.13198V2.76942C12.4799 2.82373 12.4468 2.87042 12.3998 2.89062C12.213 2.98788 11.965 3.1411 11.7934 3.32426C11.5374 3.59764 11.5707 4.00928 11.7674 4.30316Z" fill="currentColor"/>
</svg>
