<svg width="16" height="16" viewBox="0 0 16 16" fill="none" xmlns="http://www.w3.org/2000/svg">
<path d="M3.60405 1.59998L3.59365 1.59998C3.54536 1.601 3.49766 1.61075 3.45285 1.62878C3.38805 1.65443 3.33109 1.69656 3.28759 1.75101C3.24409 1.80545 3.21557 1.87032 3.20485 1.93918C3.19205 2.01438 2.80005 4.47598 2.80005 5.59998C2.80005 6.35998 3.15365 7.03758 3.70405 7.47598C3.90405 7.63678 4.00005 7.81118 4.00005 7.95678L4.00005 8.35678C4.00005 8.37118 3.99925 8.38558 3.99765 8.39998C3.97605 8.60798 3.87685 9.54317 3.78325 10.5048C3.69125 11.4528 3.60005 12.4648 3.60005 12.8C3.60005 13.2243 3.76862 13.6313 4.06868 13.9313C4.36874 14.2314 4.7757 14.4 5.20005 14.4C5.6244 14.4 6.03136 14.2314 6.33142 13.9313C6.63148 13.6313 6.80005 13.2243 6.80005 12.8C6.80005 12.464 6.70885 11.4528 6.61685 10.5048C6.54845 9.80313 6.47699 9.10179 6.40245 8.40078L6.40005 8.35678L6.40005 7.95678C6.40005 7.81038 6.49605 7.63678 6.69605 7.47598C6.97796 7.25125 7.20562 6.96591 7.36212 6.64113C7.51862 6.31635 7.59995 5.96049 7.60005 5.59998C7.60005 4.47358 7.20565 2.00078 7.19525 1.93838C7.18349 1.86319 7.15052 1.79292 7.10021 1.73581C7.04991 1.6787 6.98435 1.63713 6.91125 1.61598C6.8777 1.60616 6.843 1.60078 6.80805 1.59998L6.79205 1.59998L6.79285 1.59998C6.68626 1.60082 6.58432 1.64376 6.50924 1.71943C6.43417 1.7951 6.39205 1.89738 6.39205 2.00398L6.39205 5.20398C6.39315 5.25598 6.384 5.30769 6.36512 5.35616C6.34624 5.40462 6.31799 5.4489 6.282 5.48645C6.24601 5.524 6.20298 5.5541 6.15535 5.57502C6.10773 5.59594 6.05645 5.60727 6.00445 5.60838C5.95245 5.60948 5.90073 5.60033 5.85227 5.58145C5.8038 5.56256 5.75953 5.53432 5.72197 5.49833C5.68442 5.46234 5.65433 5.4193 5.63341 5.37168C5.61249 5.32406 5.60115 5.27278 5.60005 5.22078L5.60005 1.99998C5.60005 1.89389 5.55791 1.79215 5.48289 1.71713C5.40788 1.64212 5.30614 1.59998 5.20005 1.59998C5.09396 1.59998 4.99222 1.64212 4.91721 1.71713C4.84219 1.79215 4.80005 1.89389 4.80005 1.99998L4.80005 5.19998L4.80085 5.22558C4.79798 5.3306 4.75352 5.43019 4.67723 5.50243C4.60094 5.57467 4.49907 5.61364 4.39405 5.61078C4.28902 5.60791 4.18944 5.56344 4.1172 5.48715C4.04496 5.41086 4.00598 5.309 4.00885 5.20398L4.00885 2.00478C4.00885 1.89755 3.96631 1.79471 3.89057 1.71882C3.81483 1.64293 3.71127 1.60019 3.60405 1.59998ZM8.80005 5.19998C8.80005 4.2452 9.17933 3.32952 9.85447 2.65439C10.5296 1.97926 11.4453 1.59998 12.4 1.59998C12.5061 1.59998 12.6079 1.64212 12.6829 1.71713C12.7579 1.79215 12.8 1.89389 12.8 1.99998L12.8 7.58238L12.8161 7.76158C12.8784 8.48038 12.9392 9.19931 12.9984 9.91838C13.0976 11.124 13.2 12.4472 13.2 12.8C13.2 13.2243 13.0315 13.6313 12.7314 13.9313C12.4314 14.2314 12.0244 14.4 11.6001 14.4C11.1757 14.4 10.7687 14.2314 10.4687 13.9313C10.1686 13.6313 10 13.2243 10 12.8C10 12.448 10.1024 11.124 10.2016 9.91838C10.2512 9.30958 10.3016 8.72078 10.3392 8.28478L10.3632 7.99998L10 7.99998C9.68179 7.99998 9.37657 7.87355 9.15152 7.6485C8.92648 7.42346 8.80005 7.11824 8.80005 6.79998L8.80005 5.19998Z" fill="currentColor"/>
</svg>
