<svg width="16" height="16" viewBox="0 0 16 16" fill="none" xmlns="http://www.w3.org/2000/svg">
<path d="M4.47237 10.5596C4.2194 10.5596 4.04846 10.6581 4.04846 10.806C4.04846 10.944 4.21934 11.0459 4.47237 11.0459C4.72537 11.0459 4.89952 10.944 4.89952 10.806C4.89952 10.6581 4.72537 10.5596 4.47237 10.5596Z" fill="currentColor"/>
<path d="M14.7375 6.28391C14.7375 4.77034 13.619 3.51856 12.1635 3.30878C11.7665 1.42141 10.0888 0 8.08508 0C6.09073 0 4.41942 1.40819 4.01239 3.28238C2.47923 3.36859 1.26245 4.63878 1.26245 6.1935V16H7.61592V6.19353C7.61592 4.71287 6.51217 3.49081 5.08267 3.30319C5.45858 1.99963 6.66223 1.04347 8.08511 1.04347C9.52295 1.04347 10.7368 2.01991 11.099 3.34444C9.74211 3.63484 8.72448 4.84031 8.72448 6.28391C8.72448 7.57291 9.53576 8.67231 10.6755 9.09978V14.7556L11.731 16L12.9999 14.7556L12.5731 13.6243L12.9999 12.4931L12.5731 11.362L12.9999 10.2308L12.5972 9.16356C13.8354 8.79166 14.7375 7.64322 14.7375 6.28391ZM4.82717 13.6154C4.55448 13.6154 4.4132 13.4675 4.28833 13.2802C4.21604 13.1718 4.15029 13.047 4.0682 12.9287V13.6515H3.50961V11.9199C3.94661 11.9199 4.16017 12.0513 4.35733 12.4161C4.61364 12.8925 4.63992 12.9353 4.71879 12.9353C4.8272 12.9353 4.8798 12.8597 4.8798 12.7381C4.8798 12.5935 4.80751 12.4719 4.6432 12.3307L5.10651 11.9364C5.29383 12.1072 5.4187 12.472 5.4187 12.8465C5.41867 13.3459 5.19848 13.6154 4.82717 13.6154ZM4.47233 11.6768C3.89405 11.6768 3.47673 11.3022 3.47673 10.8061C3.47673 10.3099 3.89401 9.93531 4.47233 9.93531C5.05061 9.93531 5.4712 10.3099 5.4712 10.8061C5.47123 11.3022 5.05064 11.6768 4.47233 11.6768ZM5.38576 8.66375V9.30122H4.06817V9.7185H3.50958V8.19719H4.06817V8.66378H4.72204C4.62017 8.58491 4.50192 8.30231 4.50192 8.13478H5.07367C5.07364 8.25959 5.28064 8.61116 5.38576 8.66375ZM5.1177 5.69503C5.1177 6.06978 4.81392 6.37359 4.43914 6.37359C4.06436 6.37359 3.76058 6.06981 3.76058 5.69503C3.76058 5.32031 4.0643 5.01656 4.43898 5.0165H4.43933C4.81395 5.01659 5.1177 5.32034 5.1177 5.69503ZM11.731 6.37359C11.3562 6.37359 11.0524 6.06981 11.0524 5.69503C11.0524 5.32031 11.3561 5.01656 11.7308 5.0165H11.7312C12.1059 5.01659 12.4096 5.32037 12.4096 5.69503C12.4095 6.06981 12.1058 6.37359 11.731 6.37359Z" fill="currentColor"/>
</svg>
