<svg width="24" height="24" viewBox="0 0 24 24" fill="none" xmlns="http://www.w3.org/2000/svg">
<g clip-path="url(#clip0_9269_103305)">
<path d="M12.7041 0.000244141C11.153 0.000244141 9.84473 1.30848 9.84473 2.85961C9.84473 4.41075 11.153 5.71898 12.7041 5.71898C14.2552 5.71898 15.5166 4.41075 15.5166 2.85961C15.5166 1.30848 14.2552 0.000244141 12.7041 0.000244141Z" fill="#64748B"/>
<path d="M15.8256 5.71899C15.0529 6.57582 13.9461 7.12524 12.7041 7.12524C11.4621 7.12524 10.3085 6.57582 9.53572 5.71899C8.8611 6.46707 8.43848 7.44708 8.43848 8.53149V9.23461C8.43848 9.62325 8.75296 9.93774 9.1416 9.93774H16.2197C16.6084 9.93774 16.9228 9.62325 16.9228 9.23461V8.53149C16.9228 7.44708 16.5002 6.46707 15.8256 5.71899Z" fill="#64748B"/>
<path d="M6.79416 21.5817L3.211 14.3978C2.86501 13.7041 2.02295 13.4212 1.32841 13.7654L0.391894 14.2293C0.0431915 14.4022 -0.0986989 14.826 0.0753476 15.1741L4.29409 23.6116C4.46757 23.9595 4.88959 24.098 5.23548 23.9274L6.15995 23.4694C6.85721 23.124 7.14141 22.278 6.79416 21.5817Z" fill="#64748B"/>
<path d="M23.425 11.6111C22.8484 11.1893 22.0469 11.2737 21.5688 11.794L17.725 16.519C17.4579 16.8002 16.9516 16.969 16.6844 16.969H13.4078C13.014 16.969 12.7047 16.6596 12.7047 16.2658C12.7047 15.872 13.014 15.5627 13.4078 15.5627C14.3495 15.5627 15.3921 15.5627 16.2203 15.5627C16.9937 15.5627 17.6266 14.9299 17.6266 14.1565C17.6266 13.383 16.9937 12.7502 16.2203 12.7502C12.9182 12.7502 16.068 12.7502 12.5359 12.7502C12.1855 12.7502 12.0108 12.528 11.7344 12.2861C10.6465 11.3071 9.01803 10.8355 7.36944 11.2176C6.45407 11.4297 5.83677 11.7995 5.21071 12.2954L5.18985 12.2785L4.17285 13.1735L8.16959 21.1877H9.35309H16.2203C17.5422 21.1877 18.8079 20.5549 19.5954 19.5002L23.7203 13.594C24.1844 12.9752 24.0578 12.0753 23.425 11.6111Z" fill="#64748B"/>
</g>
<defs>
<clipPath id="clip0_9269_103305">
<rect width="24" height="24" fill="white" transform="translate(0 0.000244141)"/>
</clipPath>
</defs>
</svg>
