<svg width="24" height="24" viewBox="0 0 24 24" fill="none" xmlns="http://www.w3.org/2000/svg">
<path d="M1.125 16.4103H20.9212C21.6825 16.4103 22.3687 16.0616 22.8038 15.4541C23.2463 14.8428 23.3662 14.0591 23.1337 13.3653C23.0362 13.0653 22.8787 12.7878 22.6613 12.5441L21.6488 11.4041L18.2213 7.54531C18.2062 7.52656 18.1912 7.50406 18.1725 7.48531L18.105 7.41031C17.1375 6.31906 15.7462 5.69281 14.2875 5.69281H1.125C0.91875 5.69281 0.75 5.86156 0.75 6.06781V16.0353C0.75 16.2453 0.91875 16.4103 1.125 16.4103ZM14.2875 6.44281C15.2737 6.44281 16.2225 6.77656 16.98 7.38031H15.6525C14.4413 7.38031 13.4587 8.36656 13.4587 9.58156V9.84406C13.4587 11.0553 14.4413 12.0453 15.6525 12.0453H21.2137L22.0988 13.0428C22.2488 13.2078 22.3575 13.3953 22.4212 13.5978C22.4738 13.7516 22.5 13.9091 22.5 14.0666H1.5V12.0453H8.96625C10.1775 12.0453 11.1637 11.0553 11.1637 9.84406V9.58156C11.1637 8.36656 10.1775 7.38031 8.96625 7.38031H1.5V6.44281H14.2875ZM5.82 8.13031V11.2953H5.07V8.13031H5.82Z" fill="#64748B"/>
<path d="M22.875 17.5559H1.125C0.918 17.5559 0.75 17.7239 0.75 17.9309C0.75 18.1379 0.918 18.3059 1.125 18.3059H22.875C23.082 18.3059 23.25 18.1379 23.25 17.9309C23.25 17.7239 23.082 17.5559 22.875 17.5559Z" fill="#64748B"/>
</svg>
