<svg width="16" height="16" viewBox="0 0 16 16" fill="none" xmlns="http://www.w3.org/2000/svg">
<g clip-path="url(#clip0_8860_92821)">
<path fill-rule="evenodd" clip-rule="evenodd" d="M7.1619 12.8128C7.1619 12.9784 7.02753 13.1128 6.86191 13.1128H5.59534C5.42972 13.1128 5.29534 12.9784 5.29534 12.8128C5.29534 12.6471 5.42972 12.5128 5.59534 12.5128H6.86191C7.02753 12.5128 7.1619 12.6468 7.1619 12.8128ZM4.29284 11.9359C4.29284 11.7703 4.42722 11.6359 4.59284 11.6359H7.86472C8.03034 11.6359 8.16472 11.7703 8.16472 11.9359C8.16472 12.1015 8.03034 12.2359 7.86472 12.2359H4.59284C4.42722 12.2359 4.29284 12.1015 4.29284 11.9359ZM9.49378 13.1546H9.7294C10.1597 13.1546 10.5097 12.8046 10.5097 12.3743C10.5097 11.944 10.1597 11.594 9.7294 11.594H9.49378C9.06347 11.594 8.71347 11.944 8.71347 12.3743C8.71347 12.8043 9.06347 13.1546 9.49378 13.1546ZM2.96347 13.1546C3.39378 13.1546 3.74378 12.8046 3.74378 12.3743C3.74378 11.944 3.39378 11.594 2.96347 11.594H2.72784C2.29753 11.594 1.94753 11.944 1.94753 12.3743C1.94753 12.8046 2.29753 13.1546 2.72784 13.1546H2.96347ZM14.9 6.11276C14.9 6.22808 14.8028 6.32526 14.6875 6.32526H14.475V4.26339H14.6875C14.8028 4.26339 14.9 4.36058 14.9 4.47589V6.11276ZM12.6875 12.8721C12.6875 13.0387 12.5519 13.1743 12.3853 13.1743H11.7344C11.641 13.1743 11.5541 13.1296 11.4972 13.0575C11.5013 13.0115 11.5044 12.9656 11.5044 12.919V12.41H12.6875V12.8721ZM1.27128 10.7343C1.14815 10.7012 1.07503 10.5746 1.10784 10.4515C1.14097 10.3284 1.26815 10.2553 1.39065 10.2881L1.81378 10.4015C1.64222 10.4928 1.48972 10.6146 1.3619 10.7587L1.27128 10.7343ZM9.22972 8.55714C8.8594 8.25933 8.39097 8.0862 7.88378 8.0862H6.21784V3.70276C6.21784 3.6087 6.29753 3.52901 6.39159 3.52901H9.23003V8.55714H9.22972ZM12.6678 3.52901C12.7619 3.52901 12.8416 3.60839 12.8416 3.70276V8.5112C12.8416 8.60526 12.7622 8.68495 12.6678 8.68495H9.8294V3.52901H12.6678ZM11.3257 10.6265C11.2944 10.6803 11.245 10.7187 11.186 10.7343L11.0953 10.7587C10.9675 10.6146 10.815 10.4928 10.6435 10.4015L11.0666 10.2881C11.1253 10.2721 11.1875 10.2806 11.2416 10.3115C11.2953 10.3425 11.3338 10.3921 11.3494 10.4512C11.365 10.5106 11.3566 10.5725 11.3257 10.6265ZM1.55284 12.9187C1.55284 13.4793 2.00878 13.9356 2.5694 13.9356H9.88753C10.4482 13.9356 10.9044 13.4793 10.9044 12.9187V11.8296C10.9044 11.624 10.8425 11.4328 10.7372 11.2725C10.7341 11.2681 10.7313 11.2634 10.7285 11.2587C10.5453 10.9896 10.2369 10.8128 9.88784 10.8128H2.56972C2.22065 10.8128 1.9119 10.99 1.72878 11.259C1.72597 11.2634 1.72347 11.2678 1.72034 11.2721C1.61472 11.4325 1.55284 11.6237 1.55284 11.8296V12.9187ZM3.08753 9.80276C3.28378 9.12433 3.86722 8.68589 4.57347 8.68589H7.88347C8.58972 8.68589 9.17315 9.12433 9.3694 9.80276L9.48815 10.2128H2.96878L3.08753 9.80276ZM4.37159 6.32526C4.25659 6.32526 4.15909 6.22808 4.15909 6.11276V4.47589C4.15909 4.36058 4.25659 4.26339 4.37159 4.26339H4.58409V6.32526H4.37159ZM7.15378 1.4787C8.72722 0.975576 10.3244 0.975889 11.9053 1.47901L12.035 1.79214C10.3685 1.64995 8.69253 1.64995 7.02409 1.79245L7.15378 1.4787ZM14.6875 3.66339H14.475V2.81651C14.475 2.38964 14.1463 2.04495 13.6757 1.97776C13.3547 1.93214 13.0335 1.89245 12.7116 1.85745L12.4072 1.12183C12.3741 1.04183 12.3078 0.979639 12.2257 0.952139C10.4325 0.350264 8.61847 0.350264 6.83378 0.952139C6.75159 0.979951 6.68566 1.04183 6.65253 1.12183L6.34816 1.85776C6.02659 1.89276 5.70503 1.93245 5.38409 1.97776C4.91347 2.04464 4.58472 2.38933 4.58472 2.81651V3.66339H4.37222C3.92409 3.66339 3.55972 4.02776 3.55972 4.47589V6.11276C3.55972 6.56089 3.92409 6.92526 4.37222 6.92526H4.58472V8.08589H4.57409C3.60878 8.08589 2.78003 8.7087 2.51159 9.63589L2.42253 9.94308L1.54628 9.70839C1.10347 9.58964 0.647217 9.85339 0.528467 10.2959C0.41628 10.715 0.646905 11.1459 1.04722 11.2912C0.98753 11.4596 0.953155 11.6406 0.953155 11.8293V12.9184C0.953155 13.2687 1.06628 13.5921 1.25628 13.8571V14.7309C1.25628 15.154 1.60065 15.4984 2.02409 15.4984H2.7044C3.12784 15.4984 3.4719 15.154 3.4719 14.7309V14.535H8.98565V14.7309C8.98565 15.154 9.33003 15.4984 9.75315 15.4984H10.4335C10.8569 15.4984 11.2013 15.154 11.2013 14.7309V13.8571C11.2444 13.7971 11.2838 13.7343 11.3185 13.6687C11.445 13.735 11.5869 13.7737 11.7347 13.7737H12.3857C12.8832 13.7737 13.2878 13.369 13.2878 12.8715V12.4093H13.6338C14.0978 12.4093 14.4753 12.0318 14.4753 11.5678V6.92526H14.6878C15.136 6.92526 15.5003 6.56089 15.5003 6.11276V4.47589C15.5 4.02808 15.1357 3.66339 14.6875 3.66339ZM12.9325 10.689C12.8166 10.689 12.7225 10.595 12.7225 10.479C12.7225 10.3631 12.8169 10.269 12.9325 10.269C13.0485 10.269 13.1425 10.3631 13.1425 10.479C13.1428 10.595 13.0485 10.689 12.9325 10.689Z" fill="currentColor"/>
</g>
<defs>
<clipPath id="clip0_8860_92821">
<rect width="16" height="16" fill="white"/>
</clipPath>
</defs>
</svg>
