<svg width="24" height="24" viewBox="0 0 24 24" fill="none" xmlns="http://www.w3.org/2000/svg">
<path fill-rule="evenodd" clip-rule="evenodd" d="M18 2.00031H6C3.79086 2.00031 2 3.79117 2 6.00031V18.0003C2 19.8645 3.27532 21.4309 5.00111 21.8746C5.32039 21.9567 5.6551 22.0003 6 22.0003H18C18.3449 22.0003 18.6796 21.9567 18.9989 21.8746C20.7247 21.4309 22 19.8645 22 18.0003V6.00031C22 3.79117 20.2091 2.00031 18 2.00031ZM15 9.00031C15 7.34345 13.6569 6.00031 12 6.00031C10.3431 6.00031 9 7.34345 9 9.00031C9 10.6572 10.3431 12.0003 12 12.0003C13.6569 12.0003 15 10.6572 15 9.00031ZM7.15257 17.0158C7.70085 15.2827 9.66322 14.0003 12 14.0003C14.3368 14.0003 16.2991 15.2827 16.8474 17.0158C17.014 17.5424 16.5523 18.0003 16 18.0003H8C7.44772 18.0003 6.98599 17.5424 7.15257 17.0158Z" fill="#64748B"/>
</svg>
