<svg width="16" height="16" viewBox="0 0 16 16" fill="none" xmlns="http://www.w3.org/2000/svg">
<path d="M3.99996 1.33337C3.64634 1.33337 3.3072 1.47385 3.05715 1.7239C2.8071 1.97395 2.66663 2.31309 2.66663 2.66671V13.3334C2.66663 13.687 2.8071 14.0261 3.05715 14.2762C3.3072 14.5262 3.64634 14.6667 3.99996 14.6667H12C12.3536 14.6667 12.6927 14.5262 12.9428 14.2762C13.1928 14.0261 13.3333 13.687 13.3333 13.3334V2.66671C13.3333 2.31309 13.1928 1.97395 12.9428 1.7239C12.6927 1.47385 12.3536 1.33337 12 1.33337H3.99996ZM7.99996 3.33337C8.88401 3.33337 9.73186 3.68456 10.357 4.30968C10.9821 4.93481 11.3333 5.78265 11.3333 6.66671C11.3333 7.55076 10.9821 8.39861 10.357 9.02373C9.73186 9.64885 8.88401 10 7.99996 10C7.1159 10 6.26806 9.64885 5.64294 9.02373C5.01782 8.39861 4.66663 7.55076 4.66663 6.66671C4.66663 5.78265 5.01782 4.93481 5.64294 4.30968C6.26806 3.68456 7.1159 3.33337 7.99996 3.33337ZM7.99996 4.00004C7.72663 4.41337 7.49996 4.86004 7.35996 5.33337H8.63996C8.49679 4.85853 8.28089 4.40875 7.99996 4.00004ZM7.13329 4.14671C6.51996 4.35337 5.99996 4.78004 5.69329 5.33337H6.66663C6.78663 4.92004 6.93329 4.52004 7.13329 4.14671ZM8.85996 4.14671C9.05996 4.52004 9.21329 4.92004 9.33329 5.33337H10.3066C9.99996 4.78004 9.47329 4.36004 8.85996 4.14671ZM5.41996 6.00004C5.36663 6.21337 5.33329 6.43337 5.33329 6.66671C5.33329 6.90004 5.36663 7.12004 5.41996 7.33337H6.54663C6.51996 7.11337 6.49996 6.89337 6.49996 6.66671C6.49996 6.44004 6.51996 6.22004 6.54663 6.00004H5.41996ZM7.21996 6.00004C7.18663 6.21337 7.16663 6.44004 7.16663 6.66671C7.16663 6.89337 7.18663 7.11337 7.21996 7.33337H8.77996C8.80663 7.11337 8.83329 6.89337 8.83329 6.66671C8.83329 6.44004 8.80663 6.21337 8.77996 6.00004H7.21996ZM9.45329 6.00004C9.47996 6.22004 9.49996 6.44004 9.49996 6.66671C9.49996 6.89337 9.47996 7.11337 9.45329 7.33337H10.58C10.6333 7.12004 10.6666 6.90004 10.6666 6.66671C10.6666 6.43337 10.6333 6.21337 10.58 6.00004H9.45329ZM5.69329 8.00004C5.99996 8.55337 6.51996 8.97337 7.13329 9.18671C6.93329 8.81337 6.78663 8.42004 6.66663 8.00004H5.69329ZM7.35996 8.00004C7.49996 8.48004 7.72663 8.92004 7.99996 9.33337C8.27996 8.92004 8.49996 8.48004 8.63996 8.00004H7.35996ZM9.33329 8.00004C9.21329 8.42004 9.05996 8.81337 8.85996 9.18671C9.47329 8.97337 9.99996 8.55337 10.3066 8.00004H9.33329ZM4.66663 11.3334H11.3333V12.6667H4.66663V11.3334Z" fill="currentColor"/>
</svg>
