<svg width="16" height="16" viewBox="0 0 16 16" fill="none" xmlns="http://www.w3.org/2000/svg">
<g clip-path="url(#clip0_8860_92839)">
<path d="M13.458 6.65835V5.04827C13.458 4.50735 13.1309 4.04833 12.6772 3.88637C12.301 3.75207 10.6578 3.05173 9.82177 2.6936H6.17822C5.34219 3.05169 3.69896 3.75207 3.3228 3.88637C2.86912 4.04833 2.54199 4.50735 2.54199 5.04827V6.65835C2.54199 7.33452 3.05312 7.88267 3.68362 7.88267C3.05312 7.88267 2.54199 8.43082 2.54199 9.10699V10.7171C2.54199 11.3932 3.05312 11.9414 3.68362 11.9414C3.05312 11.9414 2.54199 12.4895 2.54199 13.1657V14.7758C2.54199 15.452 3.05312 16.0001 3.68365 16.0001H12.3164C12.9469 16.0001 13.458 15.452 13.458 14.7758V13.1657C13.458 12.512 12.9803 11.9781 12.3789 11.9433V11.9395C12.9803 11.9046 13.458 11.3707 13.458 10.7171V9.10702C13.458 8.45336 12.9803 7.91944 12.3789 7.88462V7.88082C12.9803 7.8459 13.458 7.31198 13.458 6.65835ZM9.60587 12.0512H6.1483V7.15043H9.60587V12.0512Z" fill="currentColor"/>
<path d="M7.09119 8.09326H8.66291V11.1082H7.09119V8.09326Z" fill="currentColor"/>
<path d="M6.67065 0H9.32929V1.75063H6.67065V0Z" fill="currentColor"/>
</g>
<defs>
<clipPath id="clip0_8860_92839">
<rect width="16" height="16" fill="white"/>
</clipPath>
</defs>
</svg>
